<?xml version="1.0" standalone="no"?>
<!DOCTYPE svg PUBLIC "-//W3C//DTD SVG 1.1//EN" "http://www.w3.org/Graphics/SVG/1.1/DTD/svg11.dtd" >
<svg>
<metadata>
Created by FontForge 20090914 at Thu Nov 16 15:52:07 2017
 By www-data
Copyright (C) 1990-1992 ParaGraph JV.
</metadata>
<defs>
<font id="PetersburgCyrillic" horiz-adv-x="2154" >
  <font-face 
    font-family="Petersburg"
    font-weight="400"
    font-stretch="normal"
    units-per-em="4096"
    panose-1="2 11 114 0 0 0 0 0 0 0"
    ascent="3276"
    descent="-820"
    x-height="1892"
    cap-height="2867"
    bbox="-327.999 -918.002 4588 3719"
    underline-thickness="56"
    underline-position="-196"
    unicode-range="U+0020-U+2122"
  />
<missing-glyph horiz-adv-x="3072" 
d="M512 0v2560h2048v-2560h-2048zM2494 66v2428h-1916v-2428h1916z" />
    <glyph glyph-name=".notdef" horiz-adv-x="3072" 
d="M512 0v2560h2048v-2560h-2048zM2494 66v2428h-1916v-2428h1916z" />
    <glyph glyph-name="space" unicode=" " horiz-adv-x="1438" 
 />
    <glyph glyph-name="exclam" unicode="!" horiz-adv-x="1270" 
d="M692 573h-113.998l-21 557c-4 107.333 -11.833 233.5 -23.5 378.5s-26.5 301.833 -44.5 470.5s-33.667 303.667 -47 405c-21.333 164 -32 277.333 -32 340c0 75.333 23.167 127.666 69.5 157c46.333 29.333 98.166 44 155.499 44s109.166 -14.667 155.499 -44
s69.5 -81.666 69.5 -157c0 -62.667 -11 -176 -33 -340c-63.333 -477.333 -101.333 -895.333 -114 -1254zM418.002 160c0 58 20.667 108.667 62 152s93 65 155 65c64.667 0 117 -22 157 -66s60 -94.333 60 -151c0 -62.667 -21.5 -114.5 -64.5 -155.5
s-93.833 -61.5 -152.5 -61.5c-62 0 -113.667 22.167 -155 66.5s-62 94.5 -62 150.5z" />
    <glyph glyph-name="quotedbl" unicode="&#x22;" horiz-adv-x="1638" 
d="M287 2867h409l-147 -819h-115zM942 2867h410l-148 -819h-114z" />
    <glyph glyph-name="numbersign" unicode="#" horiz-adv-x="2626" 
d="M1577 70h-164l123 684h-676l-123 -684h-164l123 684h-467l41 229h467l152 848h-467l41 229h467l123 684h164l-123 -684h671l123 684h164l-119 -684h463l-41 -229h-463l-151 -848h463l-41 -229h-463zM901 983h676l147 848h-671z" />
    <glyph glyph-name="dollar" unicode="$" horiz-adv-x="2458" 
d="M1323 -295l-156 -0.00195312v238c-176.667 0 -335.167 28.833 -475.5 86.5s-249.666 133.834 -327.999 228.501s-117.5 194.334 -117.5 299.001c0 88 23 155 69 201s100.667 69 164 69c62 0 115.167 -22.667 159.5 -68s66.5 -108.666 66.5 -189.999
c0 -32.667 -9.66699 -73.667 -29 -123c-19.333 -45.333 -29 -72.333 -29 -81c0 -69.333 46.667 -137.5 140 -204.5s220 -101.5 380 -103.5v1286l-274 164c-127.333 74.667 -228.5 139.167 -303.5 193.5s-136.667 119.666 -185 195.999s-72.5 166.5 -72.5 270.5
c0 127.333 29 249 87 365s150 210.5 276 283.5s283.333 109.5 472 109.5v188h156v-193c137.333 -0.666992 267.5 -24.667 390.5 -72s221.167 -114 294.5 -200s110 -182.333 110 -289c0 -98 -22.667 -165.5 -68 -202.5s-88.333 -55.5 -129 -55.5
c-64 0 -118.167 18.833 -162.5 56.5s-66.5 94.167 -66.5 169.5c0 40 8 80.667 24 122c24.667 54 37 91 37 111c0 62.667 -43.167 119.334 -129.5 170c-86.333 50.667 -186.5 76 -300.5 76v-1049l418 -250c91.333 -54.667 168.666 -108.167 231.999 -160.5
s119 -124.333 167 -216s72 -202.167 72 -331.5c0 -168 -39.333 -315.833 -118 -443.5s-186 -226.667 -322 -297s-285.667 -107.5 -449 -111.5v-242zM1167 1851l-0.000976562 959c-97.333 0 -185.166 -16.5 -263.499 -49.5s-140 -80.833 -185 -143.5
s-67.5 -136.334 -67.5 -221c0 -154.667 80.667 -281.667 242 -381zM1323 1249v-1192c114 0.666992 215.5 28.834 304.5 84.501s158.167 129.5 207.5 221.5s74 189.333 74 292c0 98.667 -22.667 177.167 -68 235.5s-117 116.5 -215 174.5z" />
    <glyph glyph-name="percent" unicode="%" horiz-adv-x="3277" 
d="M246 2269c0 106 22.8359 209.333 68.5029 310s114.667 183.5 207 248.5s205.166 97.5 338.499 97.5c99.333 0 196.666 -24.167 291.999 -72.5s173 -122.166 233 -221.5c60 -99.333 90 -220 90 -362c0 -210 -62.333 -371.667 -187 -485s-267.334 -170 -428.001 -170
c-164 0 -307.333 56.667 -430 170s-184 275 -184 485zM541.003 2269c0 -189.333 29.833 -330.834 89.5 -424.501s136.167 -140.5 229.5 -140.5c92.667 0 169.167 46.833 229.5 140.5s90.5 235.167 90.5 424.501c0 189.333 -30.167 330.833 -90.5 424.5
s-136.833 140.5 -229.5 140.5c-93.333 0 -169.833 -46.833 -229.5 -140.5s-89.5 -235.167 -89.5 -424.5zM2949 2994l-2527 -3199l-94 82l2527 3195zM1802 597.999c0 209.333 62.334 370.834 187.001 484.501s267.334 170.5 428 170.5c102 0 199.833 -24.333 293.5 -73
s170.5 -122.334 230.5 -221.001s90 -219 90 -361c0 -209.333 -62.167 -370.833 -186.5 -484.5s-266.833 -170.5 -427.5 -170.5s-303.334 56.833 -428.001 170.5s-187 275.167 -187 484.5zM2097 598c0 -190 30 -331.667 90 -425s136.667 -140 230 -140
s169.833 46.833 229.5 140.5s89.5 235.167 89.5 424.5s-29.833 330.833 -89.5 424.5s-136.167 140.5 -229.5 140.5s-170 -46.667 -230 -140s-90 -235 -90 -425z" />
    <glyph glyph-name="ampersand" unicode="&#x26;" horiz-adv-x="3236" 
d="M2105 1167l0.00390625 89.999h955v-90h-152c-66 0 -121.167 -14.333 -165.5 -43s-101.166 -101.667 -170.5 -219c-112.667 -191.333 -231.334 -349.666 -356 -474.999c46 -85.333 106.667 -163.333 182 -234s156.666 -106 244 -106c99.333 0 205.666 52 319 156l58 -86
c-91.333 -79.333 -178.833 -135.333 -262.5 -168s-177.834 -49 -282.501 -49c-211.333 0 -382 88.667 -512 266c-236 -177.333 -477.667 -266 -725 -266c-190.667 0 -355.834 35.167 -495.501 105.5s-245.667 164.333 -318 282s-108.5 245.167 -108.5 382.5
c0 182 67.333 343.833 202 485.5s333.667 270.5 597 386.5c-95.333 178 -143 358.333 -143 541c0 107.333 23.5 204.666 70.5 292c47 87.333 114 156.666 201 207.999s187.5 77 301.5 77c127.333 0 230.666 -23.333 309.999 -70s135.666 -105.5 168.999 -176.5
s50 -145.833 50 -224.5c0 -261.333 -199.333 -460.666 -598 -597.999l679 -1114c68.667 68.667 136.5 156 203.5 262s100.5 189.333 100.5 250c0 90 -65.667 135 -197 135h-156zM1909 294.999l-742.001 1184c-110.667 -61.333 -214 -143.833 -310 -247.5
s-144 -232.834 -144 -387.501c0 -108.667 26.333 -220 79 -334s130.834 -209 234.501 -285s227.167 -114 370.5 -114c178 0 348.667 61.333 512 184zM1421 1733c268 120 401.999 294.668 401.999 524.001c0 114 -23.167 201.833 -69.5 263.5s-99.833 92.5 -160.5 92.5
c-85.333 0 -159.166 -39.5 -221.499 -118.5s-93.5 -188.167 -93.5 -327.5c0 -128.667 47.667 -273.334 143 -434.001z" />
    <glyph glyph-name="quotesingle" unicode="'" horiz-adv-x="983" 
d="M287 2867h409l-147 -819h-115z" />
    <glyph glyph-name="parenleft" unicode="(" horiz-adv-x="1749" 
d="M1503 -836l-53.0029 -81.998c-182 111.333 -347.333 240.5 -496 387.5s-275.667 305 -381 474s-186.166 344.167 -242.499 525.5s-84.5 359.666 -84.5 534.999c0 176 28.167 354.5 84.5 535.5s137.166 356 242.499 525s233 327.5 383 475.5s314.667 276.333 494 385
l53 -82c-177.333 -132 -321.666 -284.833 -432.999 -458.5s-193.666 -346.334 -246.999 -518.001s-88.5 -328.5 -105.5 -470.5s-25.5 -272.667 -25.5 -392s8.5 -250 25.5 -392s52.167 -299 105.5 -471s135.833 -344.667 247.5 -518s255.834 -326.333 432.501 -459z" />
    <glyph glyph-name="parenright" unicode=")" horiz-adv-x="1749" 
d="M246 2843l52.999 82c179.333 -108.667 344.333 -237.167 495 -385.5s278.167 -306 382.5 -473s184.833 -341 241.5 -522s85 -361.167 85 -540.5c0 -178.667 -28.333 -358.5 -85 -539.5s-137.167 -355.167 -241.5 -522.5s-231.166 -324.833 -380.499 -472.5
s-315 -276.834 -497 -387.501l-53 82c176 131.333 320 284 432 458s194.667 347 248 519s88.5 329 105.5 471s25.5 272.667 25.5 392s-8.5 250 -25.5 392s-52.167 298.833 -105.5 470.5s-136 344.667 -248 519.001c-112 174.333 -256 326.833 -432 457.5z" />
    <glyph glyph-name="asterisk" unicode="*" horiz-adv-x="1974" 
d="M1036 2343l44.998 -29l394 369c49.333 -16.667 90.333 -51.334 123 -104c32.667 -52.667 49 -116.334 49 -191l-517 -156v-57l517 -156c0 -75.333 -16.333 -138.833 -49 -190.5s-73.667 -86.5 -123 -104.5l-394 369l-45 -29l123 -524
c-47.333 -38 -104.666 -57 -171.999 -57s-124.666 19 -171.999 57l123 524l-45 29l-393 -369c-48 18 -88.667 53.5 -122 106.5s-50 115.833 -50 188.5l516 156v57l-516 156c0 72 16.833 135 50.5 189s74.167 89.333 121.5 106l393 -369l45 29l-123 524
c48 38.667 105.333 58 172 58s124 -19.333 172 -58z" />
    <glyph glyph-name="plus" unicode="+" horiz-adv-x="2621" 
d="M246 1352v164h983v983h164v-983h983v-164h-983v-983h-164v983h-983z" />
    <glyph glyph-name="comma" unicode="," horiz-adv-x="926" 
d="M291 -631l-66 62c59.333 56 118.666 133.333 177.999 232s89 181 89 247c0 22.667 -3.66699 41.5 -11 56.5s-17 27.333 -29 37s-25.167 18.167 -39.5 25.5l-52.5 28c-78.667 47.333 -118 117 -118 209c0 62.667 20.833 111.167 62.5 145.5s94.5 51.5 158.5 51.5
c72.667 0 130.334 -30.333 173.001 -91s64 -134 64 -220c0 -255.333 -136.333 -516.333 -409 -783z" />
    <glyph glyph-name="hyphen" unicode="-" horiz-adv-x="1475" 
d="M1229 1225v-246h-983v246h983z" />
    <glyph glyph-name="period" unicode="." horiz-adv-x="926" 
d="M246 160c0 58 20.667 108.667 62 152s93 65 155 65c56.667 0 107 -20 151 -60s66 -92.333 66 -157c0 -62.667 -21.5 -114.5 -64.5 -155.5s-93.833 -61.5 -152.5 -61.5c-62 0 -113.667 22.167 -155 66.5s-62 94.5 -62 150.5z" />
    <glyph glyph-name="slash" unicode="/" horiz-adv-x="2048" 
d="M1884 2867h164l-1884 -3744h-164z" />
    <glyph glyph-name="zero" unicode="0" 
d="M180 1434c0 168.667 18.335 340.835 55.002 516.502s91.667 336.667 165 483s167.166 264.833 281.499 355.5s246.166 136 395.499 136c196 0 361.667 -75.833 497 -227.5s235.833 -342.834 301.5 -573.501s98.5 -460.667 98.5 -690s-32.833 -459.333 -98.5 -690
s-166.167 -421.834 -301.5 -573.501s-301 -227.5 -497 -227.5c-196.667 0 -362.5 76 -497.5 228s-235.333 343 -301 573s-98.5 460 -98.5 690zM582.002 1434c0 -512.667 48.333 -870.333 145 -1073s213.334 -304 350.001 -304c85.333 0 164.833 38.667 238.5 116
s135 218.166 184 422.499s73.5 483.833 73.5 838.5c0 354 -24.5 633.167 -73.5 837.5s-110.333 345.166 -184 422.5c-73.667 77.333 -153.167 116 -238.5 116s-164.833 -38.667 -238.5 -116s-134.834 -218.166 -183.501 -422.499s-73 -483.5 -73 -837.5z" />
    <glyph glyph-name="one" unicode="1" 
d="M1184 2925h131.001v-2626c0 -122.667 51.667 -184 155 -184h254v-115h-1151v115h254c104 0 156 61.333 156 184v1995c-118 -106.667 -273.667 -221.334 -467 -344l-53 78c329.333 275.333 569.666 574.333 720.999 897z" />
    <glyph glyph-name="two" unicode="2" 
d="M1835 0l-1663 -0.000976562v98l684 758c108 119.333 200 227.333 276 324s142.833 194.834 200.5 294.501s101.834 202.667 132.501 309s46 216.5 46 330.5c0 164 -36.5 321 -109.5 471s-202.833 225 -389.5 225c-120.667 0 -211.667 -35.5 -273 -106.5
s-92 -144.833 -92 -221.5c0 -15.333 9.66699 -52 29 -110c13.333 -50 20 -95.333 20 -136c0 -72 -23.5 -125.5 -70.5 -160.5s-98.5 -52.5 -154.5 -52.5c-39.333 0 -80.5 17.333 -123.5 52s-64.5 95.334 -64.5 182c0 98 28.333 199.167 85 303.5s143.167 191.166 259.5 260.5
c116.333 69.333 258.166 104 425.499 104c114 0 221.667 -16.833 323 -50.5s190 -83.834 266 -150.5c76 -66.667 135.333 -149.834 178 -249.501s64 -214.5 64 -344.5c0 -159.333 -30 -308.5 -90 -447.5s-128.167 -255.167 -204.5 -348.5s-148.833 -170.666 -217.5 -231.999
l-893 -815h836c286 0 436 57.333 450 172l13 102h114z" />
    <glyph glyph-name="three" unicode="3" 
d="M610 1446v187.998c110 -21.333 211 -32 303 -32c120.667 0 245.167 40.5 373.5 121.5s192.5 261.5 192.5 541.5c0 119.333 -32.167 240 -96.5 362s-193.5 183 -387.5 183c-128 0 -221.333 -24.333 -280 -73s-88 -101 -88 -157c0 -21.333 5.33301 -51.333 16 -90
c8 -32 12 -64.667 12 -98c0 -68 -21 -117.833 -63 -149.5s-90.667 -47.5 -146 -47.5c-49.333 0 -93 19.5 -131 58.5s-57 93.5 -57 163.5c0 132 64.167 249.667 192.5 353s308.5 155 540.5 155c180 0 335.167 -31.167 465.5 -93.5s229.333 -147.666 297 -255.999
s101.5 -229.5 101.5 -363.5c0 -88.667 -15.5 -171.167 -46.5 -247.5s-73.333 -141.833 -127 -196.5s-116 -99 -187 -133s-147.167 -56 -228.5 -66v-29c178.667 -28 340 -101.333 484 -220s216 -291 216 -517c0 -139.333 -38.5 -275.333 -115.5 -408
s-191.833 -241.167 -344.5 -325.5s-336.667 -126.5 -552 -126.5c-174 0 -322.5 26.333 -445.5 79s-214.667 119.667 -275 201s-90.5 164 -90.5 248c0 75.333 20.833 132.333 62.5 171s90.5 58 146.5 58c126 0 189 -69.333 189 -208c0 -20 -8.33301 -55.667 -25 -107
c-10.667 -44 -16 -76.667 -16 -98c0 -58.667 36 -111.667 108 -159s176.667 -71 314 -71c202.667 0 360.5 71.333 473.5 214s169.5 332.334 169.5 569.001c0 431.333 -218.667 647 -656 647c-87.333 0 -187 -13.667 -299 -41z" />
    <glyph glyph-name="four" unicode="4" 
d="M1253 606h-1138v135c99.333 139.333 210.666 306.5 333.999 501.5l352 581l317.5 570c100.333 187.667 190.5 364.834 270.5 531.5l331 -209l-1499 -1995h1032v1069l332 283v-1352h373v-115h-373v-307c0 -122.667 52 -184 156 -184h217v-115h-1077v115h217
c103.333 0 155 61.333 155 184v307z" />
    <glyph glyph-name="five" unicode="5" 
d="M1794 2540h-1167l-90 -791c137.333 90 291.333 135 462 135c125.333 0 243.666 -16.833 354.999 -50.5s211.333 -86.667 300 -159s158 -164 208 -275s75 -241.5 75 -391.5c0 -168.667 -27 -320.167 -81 -454.5s-128.167 -246.5 -222.5 -336.5
s-203.166 -158.167 -326.499 -204.5s-253 -69.5 -389 -69.5c-215.333 0 -393.5 46.333 -534.5 139s-211.5 200.667 -211.5 324c0 81.333 20.167 144.666 60.5 189.999s88.5 68 144.5 68c57.333 0 105.833 -19.167 145.5 -57.5s59.5 -91.833 59.5 -160.5
c0 -32 -9.66699 -72.667 -29 -122c-19.333 -46.667 -29 -74 -29 -82c0 -44 34.667 -85.833 104 -125.5s170 -59.5 302 -59.5c92 0 184.167 25.833 276.5 77.5s171 145.834 236 282.501s97.5 322.667 97.5 558c0 154 -21.667 290 -65 408s-111 209.833 -203 275.5
s-207.333 98.5 -346 98.5c-169.333 0 -307.333 -60 -414 -180h-123l148 1290h917c101.333 0 177.5 8 228.5 24s82.833 50.333 95.5 103l20 78h115z" />
    <glyph glyph-name="six" unicode="6" 
d="M610 1540c189.333 150 386.001 225.002 590.001 225.002c153.333 0 291.333 -31.833 414 -95.5s219.5 -161.334 290.5 -293.001s106.5 -295.5 106.5 -491.5c0 -201.333 -40 -373 -120 -515s-186.167 -248.667 -318.5 -320s-276.833 -107 -433.5 -107
c-219.333 0 -399.333 61.167 -540 183.5s-242.167 286.666 -304.5 492.999s-93.5 436.833 -93.5 691.5c0 186.667 22 374.5 66 563.5s111.667 363.333 203 523s208 287.5 350 383.5s305.667 144 491 144c134.667 0 248.667 -22.833 342 -68.5s162.666 -105.5 207.999 -179.5
s68 -152.667 68 -236c0 -64.667 -18 -112.167 -54 -142.5s-76.667 -45.5 -122 -45.5c-75.333 0 -131.666 21.167 -168.999 63.5s-56 94.833 -56 157.5c0 14.667 2 38.667 6 72s6 58.333 6 75c0 47.333 -18.5 90.666 -55.5 130c-37 39.333 -93.5 59 -169.5 59
c-93.333 0 -191.833 -36.333 -295.5 -109s-195.334 -204.167 -275.001 -394.5s-124.5 -445.833 -134.5 -766.5zM606.001 1343c-5.33301 -97.333 -7.99805 -181.667 -7.99805 -253c0 -282 39.167 -524.667 117.5 -728s219.5 -305 423.5 -305
c188 0 314.833 83.833 380.5 251.5s98.5 350.167 98.5 547.5s-26.833 354 -80.5 470s-118.334 195.667 -194.001 239s-150.834 65 -225.501 65c-94 0 -187.167 -23.667 -279.5 -71s-169.833 -119.333 -232.5 -216z" />
    <glyph glyph-name="seven" unicode="7" 
d="M274 2867h1704l-311 -667c-55.333 -120 -117 -281.5 -185 -484.5s-133.667 -430 -197 -681s-113.333 -497.5 -150 -739.5c-14.667 -103.333 -40 -187.833 -76 -253.5s-102.333 -98.5 -199 -98.5c-139.333 0 -209 86 -209 258c0 97.333 43 252 129 464
s272.333 604.667 559 1178c161.333 321.333 274.666 553.666 339.999 697h-983c-130 0 -227 -21.5 -291 -64.5s-102 -114.5 -114 -214.5h-115z" />
    <glyph glyph-name="eight" unicode="8" 
d="M1311 1642c113.333 -54.667 211.167 -110.829 293.5 -168.496s151.833 -121.167 208.5 -190.5s99.834 -146.833 129.501 -232.5s44.5 -181.834 44.5 -288.501c0 -140 -33.167 -272.667 -99.5 -398s-167.333 -226.833 -303 -304.5s-300.5 -116.5 -494.5 -116.5
c-294 0 -522.5 77.167 -685.5 231.5s-244.5 346.166 -244.5 575.499c0 200.667 58.667 366.334 176 497.001s260.666 225.667 429.999 285c-316.667 169.333 -475 383.666 -475 642.999c0 114 26.833 228.833 80.5 344.5s142 212.167 265 289.5s280.833 116 473.5 116
c156 0 293.667 -30.333 413 -91s211.333 -141.834 276 -243.5c64.667 -101.667 97 -212.834 97 -333.5c0 -102.667 -27.833 -196.334 -83.5 -281c-55.667 -84.667 -127.5 -154.834 -215.5 -210.501s-183.333 -96.834 -286 -123.501zM1212 1708
c273.333 106.667 410 299.333 410 578c0 118.667 -25.167 217.5 -75.5 296.5s-116.5 136.667 -198.5 173s-171 54.5 -267 54.5c-162 0 -288.5 -48 -379.5 -144s-136.5 -201 -136.5 -315c0 -137.333 51.5 -250 154.5 -338s267.167 -189.667 492.5 -305zM864.001 1466
c-146.667 -78.667 -252.168 -176.335 -316.501 -293.002s-96.5 -264.667 -96.5 -444c0 -134.667 30.5 -253.167 91.5 -355.5s141.167 -180.666 240.5 -234.999s204.333 -81.5 315 -81.5c130 0 238.833 30.5 326.5 91.5s152.667 138.667 195 233s63.5 189.833 63.5 286.5
c0 174 -69.167 321.333 -207.5 442s-342.166 239.334 -611.499 356.001z" />
    <glyph glyph-name="nine" unicode="9" 
d="M1544 1327c-188.667 -150 -385.332 -225 -589.999 -225c-237.333 0 -431.833 74 -583.5 222s-227.5 367.333 -227.5 658c0 201.333 40 373.333 120 516s186.5 249.5 319.5 320.5s277.5 106.5 433.5 106.5c167.333 0 311.5 -36.167 432.5 -108.5s218.333 -171 292 -296
s127.667 -269.167 162 -432.5s51.5 -340.666 51.5 -531.999c0 -186 -22 -373.5 -66 -562.5s-111.667 -363.167 -203 -522.5s-208 -287.166 -350 -383.499s-305.667 -144.5 -491 -144.5c-198.667 0 -351.5 48.167 -458.5 144.5s-160.5 209.166 -160.5 338.499
c0 68 20.833 117.833 62.5 149.5s86.5 47.5 134.5 47.5c59.333 0 108.333 -21.667 147 -65s58 -98.333 58 -165c0 -18.667 -2.16699 -43.667 -6.5 -75s-6.5 -55.333 -6.5 -72c0 -46.667 18.833 -89.834 56.5 -129.501s94.167 -59.5 169.5 -59.5
c93.333 0 191.666 36.333 294.999 109s194.833 203.667 274.5 393s124.5 445.333 134.5 768zM1548 1524c5.33301 97.333 8 182 8 254c0 176 -14.833 340.5 -44.5 493.5s-84.5 281 -164.5 384s-190.333 154.5 -331 154.5c-189.333 0 -316.5 -83.333 -381.5 -250
s-97.5 -349.667 -97.5 -549c0 -197.333 26.833 -354 80.5 -470s118 -195.667 193 -239s150.167 -65 225.5 -65c92 0 184.667 23.5 278 70.5s171.333 119.167 234 216.5z" />
    <glyph glyph-name="colon" unicode=":" horiz-adv-x="926" 
d="M246 1720c0 58.667 20.5 109.5 61.5 152.5s92.833 64.5 155.5 64.5c56.667 0 107 -20 151 -60s66 -92.333 66 -157c0 -62.667 -21.5 -114.5 -64.5 -155.5s-93.833 -61.5 -152.5 -61.5c-56 0 -106.167 20.667 -150.5 62s-66.5 93 -66.5 155zM246 160
c0 58 20.667 108.667 62 152s93 65 155 65c56.667 0 107 -20 151 -60s66 -92.333 66 -157c0 -62.667 -21.5 -114.5 -64.5 -155.5s-93.833 -61.5 -152.5 -61.5c-62 0 -113.667 22.167 -155 66.5s-62 94.5 -62 150.5z" />
    <glyph glyph-name="semicolon" unicode=";" horiz-adv-x="967" 
d="M266 1720c0 58.667 20.5 109.5 61.5 152.5s92.833 64.5 155.5 64.5c57.333 0 107.833 -19.833 151.5 -59.5s65.5 -92.167 65.5 -157.5c0 -62.667 -21.5 -114.5 -64.5 -155.5s-93.833 -61.5 -152.5 -61.5c-62.667 0 -114.5 22.333 -155.5 67s-61.5 94.667 -61.5 150z
M311 -631l-65 62c62 59.333 121.833 137.5 179.5 234.5s86.5 178.5 86.5 244.5c0 22.667 -3.66699 41.5 -11 56.5s-17 27.333 -29 37s-27.5 19.5 -46.5 29.5l-44.5 24c-79.333 47.333 -119 117 -119 209c0 62.667 21.167 111.167 63.5 145.5s94.833 51.5 157.5 51.5
c73.333 0 131.333 -30.333 174 -91s64 -134 64 -220c0 -255.333 -136.667 -516.333 -410 -783z" />
    <glyph glyph-name="less" unicode="&#x3c;" horiz-adv-x="2826" 
d="M184 1495l2384 983l74 -164l-2138 -880l2138 -881l-74 -164l-2384 983v123z" />
    <glyph glyph-name="equal" unicode="=" horiz-adv-x="2621" 
d="M246 1597v164h2130v-164h-2130zM246 1106v164h2130v-164h-2130z" />
    <glyph glyph-name="greater" unicode="&#x3e;" horiz-adv-x="2826" 
d="M2642 1372l-2384 -983l-74 164l2138 881l-2138 880l74 164l2384 -983v-123z" />
    <glyph glyph-name="question" unicode="?" horiz-adv-x="2064" 
d="M926 573h-114.999v488c0 108.667 31 202.667 93 282s148.333 167 259 263c112.667 94 203 188 271 282s102 213 102 357c0 96 -21.167 187 -63.5 273s-108.333 156.167 -198 210.5s-200.5 81.5 -332.5 81.5c-90 0 -168.5 -20.167 -235.5 -60.5
s-100.5 -83.166 -100.5 -128.5c0 -6.66699 12.333 -44.667 37 -114c8 -24.667 12 -61.667 12 -111c0 -59.333 -21.667 -102.833 -65 -130.5s-89.666 -41.5 -138.999 -41.5c-60 0 -109.167 20.167 -147.5 60.5s-57.5 93.833 -57.5 160.5c0 70.667 24.167 143.334 72.5 218
c48.333 74.667 121.666 137 219.999 187s217.833 75 358.5 75c151.333 0 285.666 -22.5 402.999 -67.5s214.333 -107.5 291 -187.5s133.834 -172.333 171.501 -277s56.5 -218.334 56.5 -341.001c0 -147.333 -29.667 -276.166 -89 -386.499s-126.833 -198.833 -202.5 -265.5
s-165.834 -134.667 -270.501 -204c-113.333 -75.333 -196.833 -141 -250.5 -197s-80.5 -122.667 -80.5 -200v-226zM651.001 160c0 58 20.667 108.667 62 152s93 65 155 65c57.333 0 107.833 -19.833 151.5 -59.5s65.5 -92.167 65.5 -157.5
c0 -62.667 -21.5 -114.5 -64.5 -155.5s-93.833 -61.5 -152.5 -61.5c-55.333 0 -105.333 20.5 -150 61.5s-67 92.833 -67 155.5z" />
    <glyph glyph-name="at" unicode="@" horiz-adv-x="3367" 
d="M2236 2216l291 0.00195312l-180 -1298c-10.667 -61.333 -16 -109.333 -16 -144c0 -106.667 46.333 -160 139 -160c80.667 0 160.834 26.5 240.5 79.5c79.667 53 147.5 150 203.5 291s84 333.167 84 576.5c0 367.333 -89.333 643 -268 827s-361.5 298.333 -548.5 343
s-342.167 67 -465.5 67c-180.667 0 -352.334 -31.167 -515.001 -93.5s-306.667 -153.666 -432 -274c-125.333 -120.333 -223.333 -266.833 -294 -439.5s-106 -365.334 -106 -578.001c0 -200.667 29.167 -384.5 87.5 -551.5s140.5 -309.5 246.5 -427.5
s230.333 -208.167 373 -270.5s297.334 -93.5 464.001 -93.5c135.333 0 278.833 17.167 430.5 51.5s278.5 82.5 380.5 144.5l62 -123c-288 -133.333 -585.667 -200 -893 -200c-217.333 0 -411.833 37.667 -583.5 113s-316.5 179.5 -434.5 312.5s-206.667 284.667 -266 455
s-89 349.166 -89 536.499c0 246 40.833 467.167 122.5 663.5s194.5 361.166 338.5 494.5c144 133.333 310.5 234.5 499.5 303.5s390.5 103.5 604.5 103.5c244.667 0 462 -36.333 652 -109s348.333 -172.5 475 -299.5s221.667 -272.833 285 -437.5s95 -340.334 95 -527.001
c0 -208 -27.667 -382.333 -83 -523s-126 -249 -212 -325s-175.667 -129 -269 -159s-183.666 -45 -271 -45c-100.667 0 -180.334 27.333 -239 82c-58.667 54.667 -92.334 121.334 -101.001 200.001l-21 4c-69.333 -92 -156.666 -162.667 -261.999 -212s-217.333 -74 -336 -74
c-124.667 0 -236.5 28 -335.5 84s-176.333 136.167 -232 240.5s-83.5 226.833 -83.5 367.5c0 174.667 39 346.667 117 516s191 308 339 416s321 162 519 162c204 0 359.667 -71 467 -213zM1475 606.002c118 0 220.329 34.499 306.996 103.499s155.834 158.167 207.501 267.5
s89.334 226 113.001 350s35.5 242.667 35.5 356c0 148 -29.167 270.333 -87.5 367s-150.5 145 -276.5 145c-97.333 0 -187.666 -28.667 -270.999 -86s-155.166 -136.333 -215.499 -237s-106.333 -214.667 -138 -342s-47.5 -260.666 -47.5 -399.999
c0 -204 39 -342.333 117 -415s163.333 -109 256 -109z" />
    <glyph glyph-name="A" unicode="A" horiz-adv-x="2929" 
d="M1884 1118h-930l-94 -254c-84 -230 -133.667 -368.5 -149 -415.5s-23 -95.5 -23 -145.5c0 -52 11 -96.333 33 -133s50.667 -55 86 -55h164v-115h-832v115h78c68.667 0 148 69.667 238 209s207.333 404 352 794l668 1807h131l921 -2560c16.667 -48 34.667 -89 54 -123
s47.333 -63.667 84 -89s85 -38 145 -38h90v-115h-1049v115h164c54 0 94.833 8 122.5 24s41.5 47.333 41.5 94c0 39.333 -30 143.333 -90 312zM995 1233h852l-426 1180z" />
    <glyph glyph-name="B" unicode="B" horiz-adv-x="2908" 
d="M274 0l-0.000976562 114.999h234c104 0 156 61.333 156 184v2273c0 120.667 -52 181 -156 181h-234v114h1315c652.667 0 979 -226.667 979 -680c0 -208 -69.667 -356.5 -209 -445.5s-288 -142.5 -446 -160.5v-16c129.333 -16.667 252.833 -54.167 370.499 -112.5
c117.667 -58.333 215 -141.666 292 -249.999s115.5 -241.5 115.5 -399.5c0 -140 -29.667 -270 -89 -390s-162.666 -218.833 -309.999 -296.5s-344.666 -116.5 -591.999 -116.5h-1426zM1040 1630l475.999 0.000976562c145.333 0 265.333 25.5 360 76.5
s163.334 119.167 206.001 204.5s64 178.666 64 279.999c0 150 -45.667 281.167 -137 393.5s-264 168.5 -518 168.5c-168 0 -318.333 -30.333 -451 -91v-1032zM1040 1507l-0.00195312 -1269c72.667 -48.667 141.834 -81.334 207.501 -98.001s146.834 -25 243.501 -25
c260 0 450.667 65.667 572 197s182 292.333 182 483c0 191.333 -52 357.833 -156 499.5s-298 212.5 -582 212.5h-467z" />
    <glyph glyph-name="C" unicode="C" horiz-adv-x="3047" 
d="M2552 2867l131 0.00390625l57 -782h-131l-8 98c-7.33301 92 -47.333 187 -120 285s-174.167 179.5 -304.5 244.5s-281.166 97.5 -452.499 97.5c-162 0 -305.333 -36.833 -430 -110.5s-228.5 -175.834 -311.5 -306.501s-145.333 -281.167 -187 -451.5
s-62.5 -351.833 -62.5 -544.5c0 -302 54.667 -550.833 164 -746.5s248.166 -337.334 416.499 -425.001s343.5 -131.5 525.5 -131.5c399.333 0 714.666 240.333 946 721l103 -53c-137.333 -300 -307.833 -511.5 -511.5 -634.5s-426.5 -184.5 -668.5 -184.5
c-204.667 0 -394.334 35.167 -569.001 105.5s-326.167 171.166 -454.5 302.499s-226.666 286.666 -294.999 465.999s-102.5 374 -102.5 584c0 246.667 51.667 487.167 155 721.5s263 426.666 479 577c216 150.333 483.667 225.5 803 225.5c338.667 0 616 -67 832 -201z" />
    <glyph glyph-name="D" unicode="D" horiz-adv-x="3359" 
d="M274 2867h1201c164 0 328.667 -11 494 -33s339.5 -78.667 522.5 -170s337.167 -239 462.5 -443s188 -474.667 188 -812c0 -160.667 -22.667 -320.5 -68 -479.5s-124.666 -309.167 -238 -450.5c-113.333 -141.333 -272.333 -256.5 -477 -345.5
s-458.667 -133.5 -762 -133.5h-1323v115h234c104 0 156 61.333 156 184v2269c0 123.333 -52 185 -156 185h-234v114zM1040 2626l0.000976562 -2409c158 -68 338.333 -102 541 -102c263.333 0 478.333 63.5 644.999 190.5c166.667 127 286.5 289 359.5 486
s109.5 401.5 109.5 613.5c0 238 -38.333 459.833 -115 665.5s-193.334 370.834 -350 495.5c-156.667 124.667 -347 187 -571 187c-204.667 0 -411 -42.333 -619 -127z" />
    <glyph glyph-name="E" unicode="E" horiz-adv-x="2781" 
d="M274 2867l2180 0.00195312l49 -581h-131l-17 122c-12 97.333 -95.667 179.166 -251 245.499s-410.333 99.5 -765 99.5h-143c-104 0 -156 -61.667 -156 -185v-1003h185c212.667 0 372 10.5 478 31.5s173 47.667 201 80s42 72.833 42 121.5v103h131v-787h-131v103
c0 47.333 -11.833 86.666 -35.5 117.999s-88.167 58.333 -193.5 81s-269.333 34 -492 34h-185v-1151c0 -122.667 52 -184 156 -184h57c408 0 705 40 891 120s290.667 179 314 297l20 103h131l-135 -635h-2200v115h234c104 0 156 61.333 156 184v2269
c0 123.333 -52 185 -156 185h-234v114z" />
    <glyph glyph-name="F" unicode="F" horiz-adv-x="2634" 
d="M1511 0l-1237 0.00195312v115h234c104 0 156 61.333 156 184v2269c0 123.333 -52 185 -156 185h-234v114h2180l49 -581h-131l-17 122c-12 97.333 -95.667 179.166 -251 245.499s-410.333 99.5 -765 99.5h-143c-104 0 -156 -61.667 -156 -185v-1003h185
c212.667 0 372 10.5 478 31.5s173 47.667 201 80s42 72.833 42 121.5v103h131v-787h-131v103c0 47.333 -11.833 86.666 -35.5 117.999s-88.167 58.333 -193.5 81s-269.333 34 -492 34h-185v-1151c0 -122.667 52 -184 156 -184h315v-115z" />
    <glyph glyph-name="G" unicode="G" horiz-adv-x="3256" 
d="M2040 1249l1175 0.000976562v-114h-172c-103.333 0 -155 -61.667 -155 -185v-655c-362 -234.667 -733.333 -352 -1114 -352c-298.667 0 -560.834 65.167 -786.501 195.5s-398.834 309.166 -519.501 536.499s-181 480.333 -181 759c0 191.333 32.333 376.5 97 555.5
s159.334 339.167 284.001 480.5s276.334 252.5 455.001 333.5s379 121.5 601 121.5c160 0 304.833 -12 434.5 -36s236.334 -50.833 320 -80.5c83.667 -29.667 150.5 -57.834 200.5 -84.501l-4 143h131l57 -782h-131l-8 98c-5.33301 63.333 -31.833 131 -79.5 203
s-115.167 140.5 -202.5 205.5s-192 117.667 -314 158s-256.667 60.5 -404 60.5c-165.333 0 -310.833 -37.667 -436.5 -113s-229.667 -178.333 -312 -309s-143.333 -278.167 -183 -442.5s-59.5 -337.833 -59.5 -520.5c0 -319.333 49.833 -581.666 149.5 -786.999
s227.5 -353.5 383.5 -444.5s322.333 -136.5 499 -136.5c112 0 225.5 19.333 340.5 58s211.333 99 289 181s116.5 182.667 116.5 302v352c0 123.333 -52 185 -156 185h-315v114z" />
    <glyph glyph-name="H" unicode="H" horiz-adv-x="3465" 
d="M1040 1552h1446v1016c0 123.333 -51.667 185 -155 185h-234v114h1155v-114h-233c-104 0 -156 -61.667 -156 -185v-2269c0 -122.667 52 -184 156 -184h233v-115h-1155v115h234c103.333 0 155 61.333 155 184v1139h-1446v-1139c0 -122.667 52 -184 156 -184h234v-115h-1156
v115h234c104 0 156 61.333 156 184v2269c0 123.333 -52 185 -156 185h-234v114h1156v-114h-234c-104 0 -156 -61.667 -156 -185v-1016z" />
    <glyph glyph-name="I" unicode="I" horiz-adv-x="1642" 
d="M274 2867h1156v-114h-234c-104 0 -156 -61.667 -156 -185v-2269c0 -122.667 52 -184 156 -184h234v-115h-1156v115h234c104 0 156 61.333 156 184v2269c0 123.333 -52 185 -156 185h-234v114z" />
    <glyph glyph-name="J" unicode="J" horiz-adv-x="1761" 
d="M393 2867h1155v-114h-233c-104 0 -156 -61.667 -156 -185v-2130c0 -304.667 -47.667 -559.167 -143 -763.5s-219 -354.166 -371 -449.499s-312.333 -143 -481 -143c-156 0 -277 36.5 -363 109.5s-129 156.833 -129 251.5c0 56 16.667 107.5 50 154.5s85 70.5 155 70.5
c61.333 0 114.833 -17.167 160.5 -51.5s68.5 -88.166 68.5 -161.499c0 -10.667 -0.666992 -25.334 -2 -44.001s-2 -35.334 -2 -50.001c0 -109.333 56 -164 168 -164c78 0 155.667 27.833 233 83.5s143.166 158.167 197.499 307.5s81.5 352.333 81.5 609v2371
c0 123.333 -51.667 185 -155 185h-234v114z" />
    <glyph glyph-name="K" unicode="K" horiz-adv-x="3199" 
d="M664 299v2269c0 123.333 -52 185 -156 185h-234v114h1156v-114h-234c-104 0 -156 -61.667 -156 -185v-1110l852 791c218.667 198.667 328 337.667 328 417c0 58 -38.333 87 -115 87h-200v114h1073v-114h-99c-144 0 -346 -115 -606 -345l-786 -704l1134 -1323
c76.667 -90 152 -155.833 226 -197.5s172.333 -64.5 295 -68.5v-115h-693l-1237 1458l-172 -160v-999c0 -122.667 52 -184 156 -184h234v-115h-1156v115h234c104 0 156 61.333 156 184z" />
    <glyph glyph-name="L" unicode="L" horiz-adv-x="2609" 
d="M274 2867l1156 -0.00195312v-114h-234c-104 0 -156 -61.667 -156 -185v-2269c0 -75.333 15.833 -124.166 47.5 -146.499s74.834 -34.833 129.501 -37.5c286 0 555.333 37.333 808 112s383.334 187.334 392 338.001l4 74h131l-49 -639h-2229v115h234
c104 0 156 61.333 156 184v2269c0 123.333 -52 185 -156 185h-234v114z" />
    <glyph glyph-name="M" unicode="M" horiz-adv-x="4010" 
d="M274 2867l828.001 -0.00195312l971 -2306l979 2306h745v-114h-233c-104 0 -156 -61.667 -156 -185v-2269c0 -122.667 52 -184 156 -184h233v-115h-1155v115h233c104 0 156 61.333 156 184v2204l-1053 -2503h-106l-1094 2585v-1364v-86c0 -286 18.667 -527.5 56 -724.5
s119.666 -295.5 246.999 -295.5h78v-115h-885v115h78c85.333 0 149.166 55.333 191.499 166s68.833 242.334 79.5 395.001s16 334.334 16 545.001v1327c0 90 -14.667 146.667 -44 170s-66.666 35 -111.999 35h-209v114z" />
    <glyph glyph-name="N" unicode="N" horiz-adv-x="3031" 
d="M0 2867l671.998 -0.000976562l1753 -2261v1041v86c0 286.667 -18.833 528.334 -56.5 725.001s-119.834 295 -246.5 295h-78v114h926v-114h-119c-85.333 0 -149.166 -55 -191.499 -165s-68.833 -241.333 -79.5 -394s-16 -335 -16 -547v-1704h-147l-1782 2314v-1036v-86
c0 -286 18.833 -527.5 56.5 -724.5s119.834 -295.5 246.501 -295.5h78v-115h-885v115h78c86 0 149.833 55 191.5 165s68 241.667 79 395s16.5 335.333 16.5 546v1204l-82 94c-66 78 -130.5 136.5 -193.5 175.5s-136.5 58.5 -220.5 58.5v114z" />
    <glyph glyph-name="O" unicode="O" horiz-adv-x="3371" 
d="M287 1442c0 193.333 32.167 379.498 96.5 558.498s158.166 337.833 281.499 476.5s274.5 248 453.5 328s379.5 120 601.5 120c222.667 0 423.334 -39.667 602.001 -119s330.167 -188.666 454.5 -327.999s218.333 -297.833 282 -475.5s95.5 -364.5 95.5 -560.5
c0 -198 -32.167 -387.667 -96.5 -569s-158.5 -341.666 -282.5 -480.999s-275.5 -249 -454.5 -329s-379.167 -120 -600.5 -120c-293.333 0 -548.5 68.5 -765.5 205.5s-382.5 320.333 -496.5 550s-171 477.5 -171 743.5zM733 1442c0 -210.667 32.002 -421.667 96.002 -633
s170 -389.5 318 -534.5s339 -217.5 573 -217.5s425.167 72.5 573.5 217.5s254.333 323.167 318 534.5s95.5 422.333 95.5 633c0 150 -16.333 302.667 -49 458s-87.167 302.5 -163.5 441.5s-178.833 251.833 -307.5 338.5s-284.334 130 -467.001 130
c-219.333 0 -403.333 -66 -552 -198s-258.334 -302.5 -329.001 -511.5s-106 -428.5 -106 -658.5z" />
    <glyph glyph-name="P" unicode="P" horiz-adv-x="2757" 
d="M274 2867h1049c187.333 0 373.333 -18.333 558 -55s350.167 -119.834 496.5 -249.5c146.333 -129.667 219.5 -320.167 219.5 -571.5c0 -262.667 -104 -473.167 -312 -631.5s-497.333 -237.5 -868 -237.5c-118 0 -242.333 11 -373 33v-856c0 -122.667 52 -184 156 -184
h316v-115h-1237v115h233c104 0 156 61.333 156 184v2269c0 123.333 -52 185 -156 185h-238v114zM1044 2662l0.000976562 -1384c94 -27.333 193.667 -41 299 -41c176 0 325.167 34.833 447.5 104.5s212.833 161.667 271.5 276s88 238.833 88 373.5
c0 110.667 -14 211.834 -42 303.5c-28 91.667 -71 172.167 -129 241.5s-132 122.833 -222 160.5s-195 56.5 -315 56.5c-142.667 0 -275.334 -30.333 -398.001 -91z" />
    <glyph glyph-name="Q" unicode="Q" horiz-adv-x="3371" 
d="M741 -553l791.003 504.001c-290 39.333 -528.5 137.666 -715.5 294.999s-322 342.666 -405 555.999s-124.5 426.666 -124.5 639.999c0 193.333 32.167 379.5 96.5 558.5s158.166 337.833 281.499 476.5s274.5 248 453.5 328s379.5 120 601.5 120
c222.667 0 423.334 -39.667 602.001 -119s330.167 -188.666 454.5 -327.999s218.333 -297.833 282 -475.5s95.5 -364.5 95.5 -560.5c0 -199.333 -32.167 -389.166 -96.5 -569.499s-158.333 -340.333 -282 -480s-275.667 -249.5 -456 -329.5s-381.5 -120 -603.5 -120
l-352 -222l12 -49c127.333 38.667 251.666 58 372.999 58c174 0 359.667 -43.667 557 -131l175 -77c72 -31.333 136.167 -55 192.5 -71s111.5 -24 165.5 -24c112 0 222.833 26.333 332.5 79s202.167 130 277.5 232l74 -57c-180 -399.333 -420.333 -599 -721 -599
c-79.333 0 -150.833 10 -214.5 30s-135.334 51.333 -215 94l-226.5 122c-136.667 74.667 -259.834 131.667 -369.501 171s-236.167 59 -379.5 59c-208.667 0 -401.334 -72.333 -578.001 -217zM733.003 1442c0 -210.667 32.002 -421.667 96.002 -633s170 -389.5 318 -534.5
s339 -217.5 573 -217.5s425.167 72.5 573.5 217.5s254.333 323.167 318 534.5s95.5 422.333 95.5 633c0 150 -16.333 302.667 -49 458s-87.167 302.5 -163.5 441.5s-178.833 251.833 -307.5 338.5s-284.334 130 -467.001 130c-219.333 0 -403.333 -66 -552 -198
s-258.334 -302.5 -329.001 -511.5s-106 -428.5 -106 -658.5z" />
    <glyph glyph-name="R" unicode="R" horiz-adv-x="2994" 
d="M274 2867l1233 -0.000976562c168 0 325.667 -16.5 473 -49.5s274 -103.667 380 -212s159 -265.5 159 -471.5c0 -132.667 -28.5 -247 -85.5 -343s-132.333 -173 -226 -231s-196.5 -100.333 -308.5 -127s-223.333 -40 -334 -40v-29
c135.333 -15.333 250.666 -57.833 345.999 -127.5s177.333 -156.5 245.999 -260.5c68.667 -104 151 -247.667 247 -431l57 -112.5c27.333 -55 55.166 -105.333 83.5 -151c28.333 -45.667 57.333 -82.834 87 -111.501s59.167 -43 88.5 -43c30.667 0 56 17.833 76 53.5
s30 84.834 30 147.501h111c0 -112.667 -28.667 -205 -86 -277s-138 -108 -242 -108c-114 0 -214.167 32.833 -300.5 98.5s-159.5 145.167 -219.5 238.5s-135 224 -225 392c-99.333 179.333 -178.833 313.333 -238.5 402s-130.167 161.834 -211.5 219.501
s-177.333 86.5 -288 86.5c-38 0 -66.667 -1.33301 -86 -4v-1077c0 -122.667 52 -184 156 -184h234v-115h-1156v115h234c104 0 156 61.333 156 184v2269c0 123.333 -52 185 -156 185h-234v114zM1040 2671l0.000976562 -1180c84.667 -10.667 175 -16 271 -16
c524 0 786 221 786 663c0 197.333 -63.833 349.166 -191.5 455.499s-291.834 159.5 -492.501 159.5c-118 0 -242.333 -27.333 -373 -82z" />
    <glyph glyph-name="S" unicode="S" horiz-adv-x="2413" 
d="M1909 2867l131.002 -0.000976562l24 -725h-131l-4 86c-4 100 -41.5 194.833 -112.5 284.5s-166.5 161.667 -286.5 216s-249 81.5 -387 81.5c-158 0 -282.167 -40 -372.5 -120s-135.5 -178 -135.5 -294c0 -158 80.667 -285 242 -381l847 -508
c141.333 -83.333 256 -178.5 344 -285.5s132 -247.833 132 -422.5c0 -132 -29.333 -263.167 -88 -393.5s-157.167 -240 -295.5 -329s-317.833 -133.5 -538.5 -133.5c-308 0 -583.667 64 -827 192l8 -135h-131l-54 741h132l4 -53c8 -96.667 53.667 -194.334 137 -293.001
s190.166 -179.667 320.499 -243s264.5 -95 402.5 -95c126.667 0 237.334 28 332.001 84s166.667 129.667 216 221s74 189 74 293c0 95.333 -23.833 173.333 -71.5 234s-117.834 119.334 -210.501 176.001l-733 442c-144 87.333 -249.333 154.833 -316 202.5
s-124.334 109.334 -173.001 185.001s-73 166.5 -73 272.5c0 128 28.333 249.667 85 365s149.5 209.666 278.5 283c129 73.333 294.833 110 497.5 110c236 0 481.667 -59 737 -177z" />
    <glyph glyph-name="T" unicode="T" horiz-adv-x="2793" 
d="M156 2867h2539v-639h-131v94c0 77.333 -41 149.333 -123 216s-183.167 119.167 -303.5 157.5s-232.166 57.5 -335.499 57.5c-125.333 0 -188 -26 -188 -78v-2376c0 -122.667 51.667 -184 155 -184h234v-115h-1155v115h233c104 0 156 61.333 156 184v2376
c0 52 -62.667 78 -188 78c-104.667 0 -217 -19.167 -337 -57.5s-220.833 -90.666 -302.5 -157c-81.667 -66.333 -122.5 -138.5 -122.5 -216.5v-94h-131v639z" />
    <glyph glyph-name="U" unicode="U" horiz-adv-x="3396" 
d="M274 2867l1156 0.000976562v-114h-234c-104 0 -156 -61.667 -156 -185v-1610c0 -238 41 -422.833 123 -554.5s179.5 -220.167 292.5 -265.5s227.167 -68 342.5 -68c129.333 0 258.333 24.5 386.999 73.5c128.667 49 239.667 143.333 333 283s140 333.5 140 581.5v639v86
c0 286.667 -18.833 528.334 -56.5 725.001s-119.834 295 -246.5 295h-98v114h926v-114h-99c-85.333 0 -149 -55 -191 -165s-68.333 -241.333 -79 -394s-16 -335 -16 -547v-643c0 -126.667 -14.5 -250.334 -43.5 -371.001s-80.167 -233.334 -153.5 -338.001
s-176.166 -189.5 -308.5 -254.5c-132.333 -65 -297.166 -97.5 -494.499 -97.5c-324.667 0 -594.834 78 -810.501 234s-323.5 418 -323.5 786v1605c0 123.333 -52 185 -156 185h-234v114z" />
    <glyph glyph-name="V" unicode="V" horiz-adv-x="3129" 
d="M86 2867h1016v-114h-168c-55.333 0 -91.666 -10.833 -108.999 -32.5s-26 -50.5 -26 -86.5c0 -14.667 3.66699 -30.667 11 -48l21 -51l832 -2093l614 1467c158.667 380 238 613.333 238 700c0 96 -39.667 144 -119 144h-192v114h839v-114
c-78.667 -2 -146.667 -25.333 -204 -70s-111 -110.5 -161 -197.5s-107.5 -207.667 -172.5 -362l-211.5 -505.5l-709 -1675h-119l-1028 2592c-59.333 145.333 -163 218 -311 218h-41v114z" />
    <glyph glyph-name="W" unicode="W" horiz-adv-x="4448" 
d="M86 2867h1094v-114h-201c-92.667 0 -139 -37 -139 -111c0 -29.333 6.66699 -65 20 -107l688 -2035l582 1503l-176 532c-20.667 64 -51.5 116.333 -92.5 157s-112.5 61 -214.5 61h-99v114h1131v-114h-238c-82 0 -123 -37 -123 -111c0 -27.333 8.33301 -63 25 -107
l684 -2035l528 1409c126 338 189 571.333 189 700c0 96 -46.667 144 -140 144h-184v114h942v-114c-92 -2 -174.334 -35.833 -247 -101.5c-72.667 -65.667 -148.667 -177.834 -228 -336.5c-79.333 -158.667 -177.666 -391 -295 -697l-643 -1675h-115l-639 1847l-716 -1847
h-119l-885 2592c-50.667 145.333 -149 218 -295 218h-94v114z" />
    <glyph glyph-name="X" unicode="X" horiz-adv-x="3121" 
d="M229 2867l1131 0.00292969v-114h-258c-54.667 0 -82 -23.333 -82 -70c0 -20.667 23.333 -65.667 70 -135l565 -860c70 87.333 198.333 260.666 385 519.999c164 228.667 246 381.334 246 458c0 58 -50.667 87 -152 87h-197v114h1016v-114h-90
c-72.667 0 -150.167 -31.167 -232.5 -93.5s-175.166 -154.666 -278.5 -277c-103.333 -122.333 -237.333 -292.5 -402 -510.5l-117 -157l-104 -138l679 -1020c107.333 -160 197.833 -273.667 271.5 -341s174.5 -101 302.5 -101v-115h-1118v115h233c44 0 72.667 20.333 86 61
v45c-3.33301 12 -19.666 39.333 -49 82l-643 963c-472.667 -620 -709 -976.333 -709 -1069c0 -54.667 33 -82 99 -82h221v-115h-905v115c102 25.333 196.5 72.166 283.5 140.499s175 156.166 264 263.499s240.833 300.333 455.5 579l97.5 122l119.5 152l-684 1032
c-76.667 116.667 -152.167 203.5 -226.5 260.5s-166.833 86.5 -277.5 88.5v114z" />
    <glyph glyph-name="Y" unicode="Y" horiz-adv-x="2916" 
d="M86 2867h1110v-114h-225c-60 0 -90 -23.333 -90 -70c0 -30.667 8 -62 24 -94l692 -1258l312 529c99.333 170 180.166 329 242.499 477s93.5 255 93.5 321c0 63.333 -37 95 -111 95h-229v114h925v-114c-92 0 -172.333 -28.167 -241 -84.5s-128.5 -124.166 -179.5 -203.5
c-51 -79.333 -156.5 -252.333 -316.5 -519l-451 -750v-897c0 -122.667 52 -184 156 -184h234v-115h-1155v115h233c104 0 156 61.333 156 184v872l-738 1340c-87.333 161.333 -234.666 242 -441.999 242v114z" />
    <glyph glyph-name="Z" unicode="Z" horiz-adv-x="2662" 
d="M438 2867h1925v-114l-1642 -2638h373c299.333 0 539.333 20.5 720 61.5s307.334 90.667 380.001 149s111.334 116.5 116.001 174.5l8 90h131l-86 -590h-2089v115l1655 2638h-413c-187.333 0 -355.333 -15.667 -504 -47s-264.334 -73.333 -347.001 -126
s-127 -110 -133 -172l-12 -131h-131z" />
    <glyph glyph-name="bracketleft" unicode="[" horiz-adv-x="1540" 
d="M410 2925h884v-91h-372c-104 0 -156 -61.333 -156 -184v-3293c0 -122.667 52 -184 156 -184h372v-91h-884v3843z" />
    <glyph glyph-name="backslash" unicode="\" horiz-adv-x="2048" 
d="M0 2867h164l1884 -3744h-164z" />
    <glyph glyph-name="bracketright" unicode="]" horiz-adv-x="1540" 
d="M246 2925h884v-3843h-884v91h372c104 0 156 61.333 156 184v3293c0 122.667 -52 184 -156 184h-372v91z" />
    <glyph glyph-name="asciicircum" unicode="^" horiz-adv-x="1999" 
d="M999 2925l877 -1287h-184l-693 1020l-692 -1020h-184z" />
    <glyph glyph-name="underscore" unicode="_" horiz-adv-x="2376" 
d="M0 -877v164h2376v-164h-2376z" />
    <glyph glyph-name="grave" unicode="`" horiz-adv-x="1278" 
d="M868 2269l-77 -45l-525 643c-40.667 48 -61 97.333 -61 148c0 42 18.833 81.167 56.5 117.5s81.5 54.5 131.5 54.5c86.667 0 146.667 -46.667 180 -140z" />
    <glyph glyph-name="a" unicode="a" horiz-adv-x="1917" 
d="M1249 1130l-0.00292969 212.999c0 91.333 -8.66699 172.333 -26 243s-59.166 131.834 -125.499 183.501s-165.833 77.5 -298.5 77.5c-94.667 0 -158 -14.167 -190 -42.5s-48 -56.5 -48 -84.5c0 -16.667 2.66699 -38.334 8 -65.001c8.66699 -28 13 -56.667 13 -86
c0 -60 -18 -105 -54 -135s-79.667 -45 -131 -45c-55.333 0 -98.5 19.5 -129.5 58.5s-46.5 84.833 -46.5 137.5c0 91.333 46.833 172.833 140.5 244.5s235.167 107.5 424.5 107.5c516.667 0 775 -198 775 -594v-1069c0 -106 30 -159 90 -159c63.333 0 113.666 53 150.999 159
l90 -36c-22 -70 -60.667 -134.667 -116 -194s-134 -89 -236 -89c-107.333 0 -182.666 37.5 -225.999 112.5s-65 156.167 -65 243.5c-195.333 -237.333 -423.333 -356 -684 -356c-133.333 0 -239 38 -317 114s-117 173 -117 291c0 114.667 29.5 215 88.5 301
s139.333 158.333 241 217s217.334 107.834 347.001 147.501s276.834 74.5 441.501 104.5zM1249 429.999v610c-207.333 -39.333 -366.5 -91.833 -477.5 -157.5s-186.167 -136.667 -225.5 -213s-59 -157.5 -59 -243.5c0 -98 23.167 -174.333 69.5 -229s107.833 -82 184.5 -82
c156.667 0 326 105 508 315z" />
    <glyph glyph-name="b" unicode="b" horiz-adv-x="2204" 
d="M446 -45l-89.999 0.000976562v2908c0 35.333 -19.667 58.5 -59 69.5s-105.666 16.5 -198.999 16.5h-49v90c159.333 7.33301 365.666 59.333 618.999 156v-1430c148 114.667 328 172 540 172c172 0 322.333 -43.5 451 -130.5s227 -204 295 -351s102 -307.167 102 -480.5
c0 -167.333 -28.5 -315.833 -85.5 -445.5s-132.333 -236.834 -226 -321.501s-195.834 -148 -306.501 -190s-220 -63 -328 -63c-90 0 -187.5 15.667 -292.5 47s-194.5 84 -268.5 158zM668.001 1614l0.000976562 -1151c0 -139.333 45.333 -243.833 136 -313.5
s194 -104.5 310 -104.5c85.333 0 172.166 25.333 260.499 76s164.666 144.667 228.999 282s96.5 326.666 96.5 567.999c0 294.667 -58.667 511.667 -176 651s-260.666 209 -429.999 209c-134.667 0 -276.667 -72.333 -426 -217z" />
    <glyph glyph-name="c" unicode="c" horiz-adv-x="1884" 
d="M1679 557l82 -20c-42.667 -141.333 -124 -273.666 -244 -396.999s-294 -185 -522 -185c-151.333 0 -291.5 36 -420.5 108s-232.5 181.333 -310.5 328s-117 323.667 -117 531c0 193.333 39.167 367.333 117.5 522s189.166 275.5 332.499 362.5s309 130.5 497 130.5
c176 0 314.833 -33.667 416.5 -101s152.5 -151 152.5 -251c0 -68 -20.333 -120.5 -61 -157.5s-86 -55.5 -136 -55.5c-48 0 -91.333 16.667 -130 50s-58 76.666 -58 129.999c0 25.333 3.33301 51 10 77s10 51 10 75c0 34.667 -18.833 67.167 -56.5 97.5
s-93.834 45.5 -168.501 45.5c-138 0 -249.667 -49 -335 -147s-145.666 -217.833 -180.999 -359.5s-53 -281.167 -53 -418.5c0 -238.667 53 -437 159 -595s253.667 -237 443 -237c146.667 0 269.834 46 369.501 138s167.5 201.667 203.5 329z" />
    <glyph glyph-name="d" unicode="d" horiz-adv-x="2286" 
d="M2154 0l-524.001 0.000976562l-61 176c-98.667 -78.667 -190 -135.167 -274 -169.5s-177 -51.5 -279 -51.5c-180.667 0 -336.667 43.5 -468 130.5s-231 204.5 -299 352.5s-102 310.667 -102 488c0 187.333 39.833 358.166 119.5 512.499s191.667 276 336 365
s309.5 133.5 495.5 133.5c147.333 0 293.333 -25.667 438 -77v1003c0 35.333 -19.667 58.5 -59 69.5s-105.666 16.5 -198.999 16.5h-49v90c159.333 7.33301 365.333 59.333 618 156v-2740c0 -114.667 11.667 -204.167 35 -268.5s77.333 -96.5 162 -96.5h110v-90z
M1536 307.001v1307c-33.333 78 -86.666 136.333 -159.999 175s-155.333 58 -246 58c-116.667 0 -222.667 -35.667 -318 -107s-170.5 -176.166 -225.5 -314.499s-82.5 -303.5 -82.5 -495.5c0 -166 22.833 -313.333 68.5 -442s111.5 -229.834 197.5 -303.501
s187 -110.5 303 -110.5c56.667 0 129.667 14.167 219 42.5s170.666 91.833 243.999 190.5z" />
    <glyph glyph-name="e" unicode="e" horiz-adv-x="1872" 
d="M1749 1081l-1241 0.00292969c-2.66699 -35.333 -4 -87 -4 -155c0 -203.333 28.667 -366.5 86 -489.5s130.166 -209.5 218.499 -259.5s182.166 -75 281.499 -75c246.667 0 436.334 127 569.001 381l74 -41c-56 -105.333 -117 -194 -183 -266
s-142.667 -126.833 -230 -164.5s-190 -56.5 -308 -56.5c-116 0 -226.167 20.667 -330.5 62s-196.833 103.166 -277.5 185.499s-143.667 183.166 -189 302.499s-68 254 -68 404c0 190 34.333 363.667 103 521s168.334 281.166 299.001 371.499s285 135.5 463 135.5
c169.333 0 309.333 -43.167 420 -129.5s191.167 -195 241.5 -326s75.5 -264.5 75.5 -400.5zM508 1171l905 0.000976562v58c0 217.333 -39.167 374.666 -117.5 471.999s-175.5 146 -291.5 146c-66 0 -133.333 -17.5 -202 -52.5s-131.167 -103.167 -187.5 -204.5
s-91.833 -241 -106.5 -419z" />
    <glyph glyph-name="f" unicode="f" horiz-adv-x="1241" 
d="M438 1757h-307.001v135h307v62c0 197.333 30.5 389 91.5 575s146.833 336.667 257.5 452s236 173 376 173c80 0 147.167 -21.5 201.5 -64.5s81.5 -97.833 81.5 -164.5c0 -52.667 -14.833 -96.667 -44.5 -132s-70.834 -53 -123.501 -53c-52 0 -97.167 16.333 -135.5 49
s-57.5 78 -57.5 136c0 68 -24.333 102 -73 102c-174.667 0 -262 -282.667 -262 -848v-106v-181h483v-135h-483v-1569c0 -38.667 11.333 -64.667 34 -78s60.334 -20 113.001 -20h160v-90h-926v90h160c52.667 0 90.334 6.66699 113.001 20s34 39.333 34 78v1569z" />
    <glyph glyph-name="g" unicode="g" horiz-adv-x="2081" 
d="M668 815v16.002c-140.667 20 -253.667 80.667 -339 182s-128 210 -128 326c0 105.333 31.5 203.5 94.5 294.5s156.833 164.333 281.5 220s272.334 83.5 443.001 83.5c145.333 0 276.333 -25.667 393 -77c86 190.667 209 286 369 286c64 0 113.333 -15 148 -45
s52 -68 52 -114c0 -39.333 -13.167 -73.166 -39.5 -101.499s-56.833 -42.5 -91.5 -42.5c-60 0 -110.333 22 -151 66c-23.333 32.667 -53.333 49 -90 49c-24.667 0 -50.167 -13 -76.5 -39s-44.5 -54 -54.5 -84c229.333 -130 344 -295.333 344 -496
c0 -95.333 -28.167 -187.5 -84.5 -276.5s-147.166 -162.667 -272.499 -221s-283.666 -87.5 -474.999 -87.5c-42.667 0 -83.334 1.33301 -122.001 4s-70.334 4 -95.001 4c-152.667 0 -229 -56 -229 -168c0 -57.333 32.5 -99 97.5 -125s153.833 -48.667 266.5 -68l484 -73
c420 -62.667 630 -258 630 -586c0 -89.333 -26.5 -183.833 -79.5 -283.5s-155.667 -187.334 -308 -263.001s-362.833 -113.5 -631.5 -113.5c-196.667 0 -366.667 27.667 -510 83s-252 130.666 -326 225.999s-111 200 -111 314c0 101.333 24.833 187.333 74.5 258
s114.167 124.5 193.5 161.5s160.666 58.167 243.999 63.5v25c-86 16.667 -157.333 53.167 -214 109.5s-85 118.166 -85 185.499c0 68 37.333 133.333 112 196s170 99.667 286 111zM1008 1847c-128 0 -225.5 -33.3311 -292.5 -99.998s-110.167 -136.834 -129.5 -210.501
s-29 -133.834 -29 -180.501c0 -140 35 -260.333 105 -361s182.333 -151 337 -151c100 0 185 22 255 66s122.833 105 158.5 183s53.5 165.667 53.5 263c0 138 -39.667 254.333 -119 349s-192.333 142 -339 142zM1294 41.0039l-557.001 85.998
c-74.667 -10 -142 -36.167 -202 -78.5s-106.833 -96.166 -140.5 -161.499s-50.5 -135.666 -50.5 -210.999c0 -168 62.333 -293.833 187 -377.5s282.334 -125.5 473.001 -125.5c168.667 0 311.167 22.833 427.5 68.5s202.5 105.334 258.5 179.001s84 152.167 84 235.5
c0 207.333 -160 335.666 -480 384.999z" />
    <glyph glyph-name="h" unicode="h" horiz-adv-x="2294" 
d="M1057 0l-926.003 0.000976562v90h160c52.667 0 90.334 6.66699 113.001 20s34 39.333 34 78v2675c0 35.333 -19.667 58.5 -59 69.5s-105.666 16.5 -198.999 16.5h-49v90c210.667 27.333 417 79.333 619 156v-1466c204.667 138.667 395.667 208 573 208
c106 0 202 -23.333 288 -70s155 -122.834 207 -228.501s78 -242.167 78 -409.5v-1041c0 -38 11.5 -63.833 34.5 -77.5s60.833 -20.5 113.5 -20.5h160v-90h-926v90h160c52.667 0 90.334 6.66699 113.001 20s34 39.333 34 78v1078c0 176 -36.833 308.667 -110.5 398
s-176.167 134 -307.5 134c-70 0 -143.333 -19.5 -220 -58.5s-142.334 -89.167 -197.001 -150.5v-1401c0 -38.667 11.333 -64.667 34 -78s60.334 -20 113.001 -20h160v-90z" />
    <glyph glyph-name="i" unicode="i" horiz-adv-x="1188" 
d="M1057 0l-926.001 0.000976562v90h160c52.667 0 90.334 6.66699 113.001 20s34 39.333 34 78v1454c0 35.333 -19.5 58.666 -58.5 69.999s-105.5 17 -199.5 17h-49v90c161.333 7.33301 367.666 59 618.999 155v-1786c0 -38.667 11.333 -64.667 34 -78
s60.334 -20 113.001 -20h160v-90zM335.999 2503c0 51.333 19.333 98.165 58 140.499c38.667 42.333 87.667 63.5 147 63.5c52.667 0 100.667 -19.167 144 -57.5s65 -87.166 65 -146.499c0 -58.667 -22 -108.167 -66 -148.5s-91.667 -60.5 -143 -60.5
c-58 0 -106.667 21.833 -146 65.5s-59 91.5 -59 143.5z" />
    <glyph glyph-name="j" unicode="j" horiz-adv-x="1159" 
d="M438 -180v1822c0 35.333 -19.5 58.666 -58.5 69.999s-105.5 17 -199.5 17h-49v90c161.333 7.33301 367.666 59 618.999 155v-1970c0 -115.333 -23.5 -245 -70.5 -389s-124.333 -268.833 -232 -374.5s-245.834 -158.5 -414.501 -158.5
c-97.333 0 -173.666 29.667 -228.999 89s-83 124 -83 194c0 50 16.833 92.5 50.5 127.5s72.834 52.5 117.501 52.5c52.667 0 96.667 -16.333 132 -49s53 -83 53 -151c0 -8.66699 -1.33301 -18.667 -4 -30s-4 -20.666 -4 -27.999c0 -65.333 27 -98 81 -98
c194 0 291 210.333 291 631zM336 2503c0 51.333 19.5 98.166 58.5 140.5c39 42.333 89.167 63.5 150.5 63.5c59.333 0 108.333 -21 147 -63s58 -89 58 -141c0 -53.333 -19.667 -101.5 -59 -144.5s-88 -64.5 -146 -64.5c-61.333 0 -111.5 22 -150.5 66
s-58.5 91.667 -58.5 143z" />
    <glyph glyph-name="k" unicode="k" horiz-adv-x="2212" 
d="M1016 0l-926.003 0.000976562v90h160c52.667 0 90.334 6.66699 113.001 20s34 39.333 34 78v2675c0 35.333 -19.167 58.5 -57.5 69.5s-105.166 16.5 -200.499 16.5h-49v90c159.333 7.33301 365.666 59.333 618.999 156v-2429c276.667 316 461.167 539.833 553.5 671.5
s138.5 221.834 138.5 270.501c0 62.667 -56 94 -168 94h-82v90h827v-90h-86c-38 0 -75.833 -10.167 -113.5 -30.5s-90.167 -63.5 -157.5 -129.5s-166.666 -172.333 -297.999 -319l-79.5 -87.5c-25 -27.667 -55.833 -59.834 -92.5 -96.501l696 -901
c54 -66.667 98.833 -108 134.5 -124s78.167 -24 127.5 -24h54v-90h-926v90h143c84.667 0 127 26 127 78c0 23.333 -9.33301 46.666 -28 69.999l-508 675l-262 -290v-435c0 -38.667 11.333 -64.667 34 -78s60.334 -20 113.001 -20h160v-90z" />
    <glyph glyph-name="l" unicode="l" horiz-adv-x="1188" 
d="M1057 0h-926.002v90h160c52.667 0 90.334 6.66699 113.001 20s34 39.333 34 78v2675c0 35.333 -19.667 58.5 -59 69.5s-105.666 16.5 -198.999 16.5h-49v90c159.333 7.33301 365.666 59.333 618.999 156v-3007c0 -38.667 11.333 -64.667 34 -78s60.334 -20 113.001 -20
h160v-90z" />
    <glyph glyph-name="m" unicode="m" horiz-adv-x="3301" 
d="M1012 0l-881.003 0.000976562v90h160c52.667 0 90.334 6.66699 113.001 20s34 39.333 34 78v1454c0 35.333 -19.5 58.666 -58.5 69.999s-105.5 17 -199.5 17h-49v90c161.333 7.33301 367.666 59 618.999 155v-237c190.667 133.333 361.334 200 512.001 200
c216.667 0 373.667 -76.333 471 -229c190 152.667 382.333 229 577 229c152.667 0 289.834 -53.333 411.5 -160c121.667 -106.667 182.5 -264.667 182.5 -474v-1115c0 -38.667 11.5 -64.667 34.5 -78s60.833 -20 113.5 -20h159v-90h-880v90h114
c53.333 0 91.333 6.66699 114 20s34 39.333 34 78v1102c0 169.333 -38.167 298.333 -114.5 387s-176.166 133 -299.5 133c-133.333 0 -267 -65.333 -401 -196c32.667 -88.667 49 -189.667 49 -303v-1123c0 -38.667 11.333 -64.667 34 -78s60.334 -20 113.001 -20h115v-90
h-840v90h119c52.667 0 90.5 6.66699 113.5 20s34.5 39.333 34.5 78v1123c0 136.667 -28.5 254 -85.5 352s-150.167 147 -279.5 147c-142 0 -275.667 -65.333 -401 -196v-1426c0 -38.667 11.333 -64.667 34 -78s60.334 -20 113.001 -20h115v-90z" />
    <glyph glyph-name="n" unicode="n" horiz-adv-x="2294" 
d="M1057 0l-926.001 0.000976562v90h160c52.667 0 90.334 6.66699 113.001 20s34 39.333 34 78v1454c0 35.333 -19.5 58.666 -58.5 69.999s-105.5 17 -199.5 17h-49v90c209.333 26.667 415.666 78.334 618.999 155.001v-245c204.667 138.667 395.667 208 573 208
c106 0 202 -23.333 288 -70s155 -122.834 207 -228.501s78 -242.167 78 -409.5v-1041c0 -38 11.5 -63.833 34.5 -77.5s60.833 -20.5 113.5 -20.5h160v-90h-926v90h160c52.667 0 90.334 6.66699 113.001 20s34 39.333 34 78v1078c0 176 -36.833 308.667 -110.5 398
s-176.167 134 -307.5 134c-70 0 -143.333 -19.5 -220 -58.5s-142.334 -89.167 -197.001 -150.5v-1401c0 -38.667 11.333 -64.667 34 -78s60.334 -20 113.001 -20h160v-90z" />
    <glyph glyph-name="o" unicode="o" horiz-adv-x="2130" 
d="M147 946c0 113.333 16.167 227.498 48.5 342.498s85.166 222.333 158.499 322s169.5 179 288.5 238s259.833 88.5 422.5 88.5c145.333 0 274.833 -25 388.5 -75s209.834 -120.167 288.501 -210.5s138.334 -195.666 179.001 -315.999s61 -250.166 61 -389.499
c0 -185.333 -35.833 -353.166 -107.5 -503.499s-177 -269.166 -316 -356.499s-303.5 -131 -493.5 -131c-162.667 0 -303.667 30 -423 90s-215.333 139.167 -288 237.5s-125.334 205.166 -158.001 320.499s-49 229.666 -49 342.999zM504 945.998
c0 -357.333 59.8301 -596.833 179.497 -718.5s246.834 -182.5 381.501 -182.5c136 0 263.5 60.667 382.5 182s178.5 361 178.5 719c0 249.333 -32.167 441 -96.5 575s-138.166 221.833 -221.499 263.5s-164.333 62.5 -243 62.5c-135.333 0 -262.666 -60.833 -381.999 -182.5
s-179 -361.167 -179 -718.5z" />
    <glyph glyph-name="p" unicode="p" horiz-adv-x="2204" 
d="M1016 -877h-926.003v91h160c52.667 0 90.334 6.66699 113.001 20s34 39.333 34 78v2330c0 35.333 -19.167 58.666 -57.5 69.999s-105.166 17 -200.499 17h-49v90c161.333 7.33301 367.666 59 618.999 155v-229c164 128 333.333 192 508 192c150 0 289 -38.167 417 -114.5
s230.333 -189.666 307 -339.999s115 -327.833 115 -532.5c0 -170.667 -34 -332.5 -102 -485.5s-167.667 -276.167 -299 -369.5s-285.666 -140 -462.999 -140c-204 0 -365 39.667 -483 119v-762c0 -38.667 11.333 -64.667 34 -78s60.334 -20 113.001 -20h160v-91z
M708.997 1638l0.000976562 -1306c0 -41.333 16.833 -84.666 50.5 -129.999s84 -82.833 151 -112.5s145.833 -44.5 236.5 -44.5c95.333 0 185.5 34.333 270.5 103s153.333 170.5 205 305.5s77.5 297.833 77.5 488.5c0 164 -20.833 310.5 -62.5 439.5
s-106.834 230.667 -195.501 305s-200.667 111.5 -336 111.5c-168.667 0 -301 -53.333 -397 -160z" />
    <glyph glyph-name="q" unicode="q" horiz-adv-x="2163" 
d="M2114 -877l-926.002 -0.000976562v91h160c52.667 0 90.334 6.66699 113.001 20s34 39.333 34 78v831c-169.333 -125.333 -355 -188 -557 -188c-145.333 0 -278.166 40.667 -398.499 122s-215.833 197.333 -286.5 348s-106 324.334 -106 521.001
c0 172 36.333 334.167 109 486.5s178 274.5 316 366.5s298.333 138 481 138c117.333 0 219.5 -14.167 306.5 -42.5s170.5 -79.5 250.5 -153.5l110 196h86v-2625c0 -38.667 11.5 -64.667 34.5 -78s60.833 -20 113.5 -20h160v-91zM1495 282.999l0.000976562 1224
c0 62.667 -18.5 120 -55.5 172s-89.167 93 -156.5 123s-144 45 -230 45c-162 0 -294 -82.333 -396 -247s-153 -386.667 -153 -666c0 -302 56 -520.833 168 -656.5s240.333 -203.5 385 -203.5c77.333 0 155.666 19.167 234.999 57.5s147 88.833 203 151.5z" />
    <glyph glyph-name="r" unicode="r" horiz-adv-x="1593" 
d="M1057 0l-926.002 -0.000976562v90h160c52.667 0 90.334 6.66699 113.001 20s34 39.333 34 78v1454c0 35.333 -19.5 58.666 -58.5 69.999s-105.5 17 -199.5 17h-49v90c161.333 7.33301 367.666 59 618.999 155v-430c118 262 273.667 393 467 393
c97.333 0 176.166 -23.167 236.499 -69.5s90.5 -104.833 90.5 -175.5c0 -51.333 -14.5 -99 -43.5 -143s-71.833 -66 -128.5 -66c-49.333 0 -91 17.833 -125 53.5s-51 80.5 -51 134.5c0 71.333 -35.333 107 -106 107c-57.333 0 -112.166 -32.667 -164.499 -98
s-94.666 -145.666 -126.999 -240.999s-48.5 -181.666 -48.5 -258.999v-992c0 -38.667 11.333 -64.667 34 -78s60.334 -20 113.001 -20h160v-90z" />
    <glyph glyph-name="s" unicode="s" horiz-adv-x="1597" 
d="M1237 1892l101.997 -0.000976562l17 -512h-103v66c0 51.333 -23.667 108.666 -71 171.999s-113 117.333 -197 162s-176 67 -276 67c-99.333 0 -174.666 -29.333 -225.999 -88s-77 -129 -77 -211c0 -58.667 19.5 -109.334 58.5 -152.001s82.333 -76.667 130 -102
s143.167 -71.666 286.5 -138.999c163.333 -76 299 -161.167 407 -255.5s162 -222.166 162 -383.499c0 -93.333 -24.667 -183 -74 -269s-123.166 -156.167 -221.499 -210.5s-215.5 -81.5 -351.5 -81.5c-170 0 -347.667 45 -533 135l4 -90h-102l-25 537h103
c2.66699 -82 30.834 -161 84.501 -237s124.167 -137.5 211.5 -184.5s178.333 -70.5 273 -70.5c117.333 0 207.5 37 270.5 111s94.5 157.333 94.5 250c0 59.333 -13.333 111.833 -40 157.5s-61.5 84.834 -104.5 117.501s-89.833 62 -140.5 88l-190 95
c-190 97.333 -326.333 185.333 -409 264s-124 180.667 -124 306c0 142 52 261.333 156 358s250 145 438 145c169.333 0 325 -39.333 467 -118v73z" />
    <glyph glyph-name="t" unicode="t" horiz-adv-x="1552" 
d="M377 1790h-307v102c144.667 8.66699 267.5 59.334 368.5 152.001s151.5 245.667 151.5 459v45h98v-656c146 0 253.833 3.66699 323.5 11s177.5 24.333 323.5 51v-164h-647v-1315c0 -129.333 30.333 -223.833 91 -283.5s132.667 -89.5 216 -89.5c93.333 0 175 40 245 120
s114 167 132 261l90 -37c-100 -327.333 -285.667 -491 -557 -491c-160 0 -288 52.167 -384 156.5s-144 250.166 -144 437.499v1241z" />
    <glyph glyph-name="u" unicode="u" horiz-adv-x="2281" 
d="M2150 0l-618 0.00195312v258c-144.667 -128 -266.667 -210.5 -366 -247.5s-200 -55.5 -302 -55.5c-119.333 0 -227 42.5 -323 127.5s-144 243.167 -144 474.5v1085c0 35.333 -19.167 58.666 -57.5 69.999s-105.166 17 -200.499 17h-49v90
c161.333 7.33301 367.666 59 618.999 155v-1417c0 -297.333 107.667 -446 323 -446c78 0 164.5 25.833 259.5 77.5s175.167 113.167 240.5 184.5v1269c0 35.333 -19.5 58.666 -58.5 69.999s-105.5 17 -199.5 17h-49v90c160.667 7.33301 366.667 59 618 155v-1786
c0 -38.667 11.5 -64.667 34.5 -78s60.833 -20 113.5 -20h159v-90z" />
    <glyph glyph-name="v" unicode="v" 
d="M49 1892h889v-90h-143c-38.667 0 -71.667 -9 -99 -27s-41 -43 -41 -75c0 -8.66699 5.66699 -30.667 17 -66l512 -1233l258 656c32 80 72.667 192 122 336s74 238 74 282c0 52 -16.667 86.167 -50 102.5s-82 24.5 -146 24.5h-90v90h753v-90h-94
c-62 0 -125.333 -54 -190 -162s-153 -302.333 -265 -583l-442 -1102h-74l-696 1679c-45.333 112 -108 168 -188 168h-107v90z" />
    <glyph glyph-name="w" unicode="w" horiz-adv-x="3068" 
d="M49 1892h762.001v-90h-33c-106.667 0 -160 -27.333 -160 -82c0 -16 4.33301 -35 13 -57l495 -1270l357 930l-123 340c-32.667 92.667 -102.334 139 -209.001 139h-45v90h762v-90h-82c-87.333 0 -131 -24.333 -131 -73c0 -10.667 6.66699 -32.667 20 -66l471 -1270
l267 684c136 350 204 559 204 627c0 42.667 -9.83301 69.667 -29.5 81s-54.834 17 -105.5 17h-127v90h664v-90h-70c-53.333 0 -104.833 -35.333 -154.5 -106s-94.167 -152.5 -133.5 -245.5s-99 -244.833 -179 -455.5l-397 -1040h-82l-467 1245l-459 -1245h-102l-664 1708
c-36 92.667 -100 139 -192 139h-70v90z" />
    <glyph glyph-name="x" unicode="x" horiz-adv-x="2114" 
d="M934 913l-474.999 689c-38 53.333 -84.333 99.5 -139 138.5s-131.334 59.5 -230.001 61.5v90h877v-90h-140c-60 0 -90 -15 -90 -45c0 -22 9.66699 -49.333 29 -82l356 -532l242 336c76.667 102.667 115 186 115 250c0 48.667 -27.333 73 -82 73h-152v90h737v-90h-73
c-69.333 0 -134 -26.833 -194 -80.5s-136 -140.167 -228 -259.5l-307 -397l557 -811c74.667 -109.333 181 -164 319 -164v-90h-934v90h172c74 0 111 23.333 111 70c0 24 -9.66699 55.333 -29 94l-381 577l-270 -360c-90 -120 -135 -212.667 -135 -278
c0 -44.667 16.167 -73 48.5 -85s77.5 -18 135.5 -18h90v-90h-774v90h49c102 0 272.667 154.333 512 463z" />
    <glyph glyph-name="y" unicode="y" horiz-adv-x="2163" 
d="M2105 1892l0.00195312 -90.002h-61c-53.333 0 -98.833 -24.833 -136.5 -74.5s-80.667 -136.167 -129 -259.5l-164.5 -424l-545 -1376c-64 -160 -143.833 -297.667 -239.5 -413s-224.834 -173 -387.501 -173c-90 0 -167.667 25.667 -233 77s-98 116 -98 194
c0 54.667 16.333 100.334 49 137.001s75 55 127 55c116.667 0 180.667 -62.667 192 -188c7.33301 -84.667 40.333 -127 99 -127c58 0 123 38.833 195 116.5s138 195.834 198 354.501l102 266l-713 1688c-36.667 98 -110.334 147 -221.001 147h-82v90h844v-90h-139
c-71.333 0 -107 -26 -107 -78c0 -21.333 5.66699 -44.333 17 -69l553 -1315l172 475c160.667 445.333 241 732 241 860c0 84.667 -42.333 127 -127 127h-110v90h704z" />
    <glyph glyph-name="z" unicode="z" horiz-adv-x="1724" 
d="M213 1892l1372 -0.000976562v-90l-1147 -1712h197c550 0 832.667 99.667 848 299l8 115h102l-37 -504h-1466v90l1118 1712h-139c-261.333 0 -455.166 -31.167 -581.499 -93.5s-191.833 -136.166 -196.5 -221.499l-4 -98h-103z" />
    <glyph glyph-name="braceleft" unicode="{" horiz-adv-x="1438" 
d="M1208 2925v-115.004c-204.667 -33.333 -307 -191.666 -307 -474.999c0 -60 3.5 -128.667 10.5 -206s10.5 -171.333 10.5 -282c0 -118.667 -16.333 -233.5 -49 -344.5s-85 -210.667 -157 -299s-164.667 -154.833 -278 -199.5c113.333 -46 206 -113 278 -201
s124.333 -187.5 157 -298.5s49 -225.833 49 -344.5c0 -110.667 -3.5 -204.667 -10.5 -282s-10.5 -146 -10.5 -206c0 -283.333 102.333 -441.666 307 -474.999v-115c-93.333 7.33301 -185.5 35.333 -276.5 84s-169.333 133.167 -235 253.5s-98.5 281.166 -98.5 482.499
c0 27.333 2 75.333 6 144s6 120.334 6 155.001c0 477.333 -127 724.333 -381 741v123c254 16.667 381 263.667 381 741c0 34.667 -2 86.334 -6 155.001s-6 116.667 -6 144.001c0 201.333 32.833 362.166 98.5 482.5c65.667 120.333 144 204.833 235 253.5
s183.167 76.667 276.5 84z" />
    <glyph glyph-name="bar" unicode="|" horiz-adv-x="623" 
d="M229 -918v4314h164v-4314h-164z" />
    <glyph glyph-name="braceright" unicode="}" horiz-adv-x="1438" 
d="M229 -918v114.999c122 20 203.833 77.333 245.5 172s62.5 195.667 62.5 303c0 66.667 -3.5 138.667 -10.5 216s-10.5 168 -10.5 272c0 118.667 16.333 233.5 49 344.5s85.167 210.667 157.5 299s164.5 155.166 276.5 200.499c-112 44.667 -204.167 111.167 -276.5 199.5
s-124.833 188 -157.5 299s-49 225.833 -49 344.5c0 85.333 0.833008 142 2.5 170s5.16699 74 10.5 138s8 124 8 180c0 107.333 -20.833 208.5 -62.5 303.5s-123.5 152.167 -245.5 171.5v115c93.333 -7.33301 185.666 -35.333 276.999 -84s169.833 -133.167 235.5 -253.5
s98.5 -281.166 98.5 -482.499c0 -36 -2.16699 -86.167 -6.5 -150.5s-6.5 -113.833 -6.5 -148.5c0 -264.667 36.167 -452.5 108.5 -563.5s163.166 -170.167 272.499 -177.5v-123c-109.333 -7.33301 -200.166 -66.5 -272.499 -177.5s-108.5 -298.833 -108.5 -563.5
c0 -34.667 2.16699 -84.167 6.5 -148.5s6.5 -114.5 6.5 -150.5c0 -201.333 -32.833 -362.166 -98.5 -482.499s-144.167 -204.833 -235.5 -253.5s-183.666 -76.667 -276.999 -84z" />
    <glyph glyph-name="asciitilde" unicode="~" horiz-adv-x="2220" 
d="M369 1044l-123 0.000976562c27.333 84 69.333 160.5 126 229.5s123.167 123.167 199.5 162.5s156.166 59 239.499 59c91.333 0 221 -31.333 389 -94c176 -62.667 305.667 -94 389 -94c112.667 0 200 62.667 262 188h123
c-75.333 -168.667 -152.166 -287.334 -230.499 -356.001s-170.833 -103 -277.5 -103c-114.667 0 -244.334 27.333 -389.001 82c-199.333 74 -331.666 111 -396.999 111c-64.667 0 -125 -16.833 -181 -50.5s-99.333 -78.5 -130 -134.5z" />
    <glyph glyph-name="nonbreakingspace" unicode="&#xa0;" horiz-adv-x="1278" 
 />
    <glyph glyph-name="afii10062" unicode="&#xa1;" horiz-adv-x="3183" 
d="M229 2867l1082 0.000976562v-114h-213c-54.667 0 -82 -27.333 -82 -82c0 -22.667 4 -40.667 12 -54l823 -1589c151.333 297.333 271 541.166 359 731.499s155.333 346 202 467s76.834 211.333 90.5 271c13.667 59.667 20.5 109.167 20.5 148.5
c0 71.333 -39.667 107 -119 107h-209v114h889v-114h-131c-52 -30 -101.833 -75.5 -149.5 -136.5s-99.334 -144.5 -155.001 -250.5s-144.5 -287 -266.5 -543l-293 -611c-147.333 -302 -252.666 -513.333 -315.999 -634s-133 -231.167 -209 -331.5s-160.167 -176 -252.5 -227
s-201.833 -76.5 -328.5 -76.5c-88.667 0 -167.667 16.833 -237 50.5s-123 79 -161 136s-57 118.833 -57 185.5c0 72.667 23.5 131.167 70.5 175.5s101.5 66.5 163.5 66.5c63.333 0 116 -19.333 158 -58s63 -90.334 63 -155.001c0 -34 -4.16699 -57.667 -12.5 -71
s-12.5 -43 -12.5 -89c0 -24.667 12.833 -48.5 38.5 -71.5s59.5 -34.5 101.5 -34.5c86 0 176 44.333 270 133s184 224.334 270 407.001l-1011 1926c-71.333 139.333 -175.333 209 -312 209h-86v114zM1753 2974c-156 0 -287.833 26.834 -395.5 80.501
s-187.5 120.834 -239.5 201.5c-52 80.667 -78 161.334 -78 242c0 76 19.667 131.833 59 167.5s84 53.5 134 53.5c54 0 98.167 -19.833 132.5 -59.5s51.5 -86.834 51.5 -141.5c0 -56.667 -19 -111 -57 -163c-19.333 -24 -29 -52.667 -29 -86c0 -40 33.833 -81.5 101.5 -124.5
s174.5 -64.5 320.5 -64.5c143.333 0 248.833 21.5 316.5 64.5s101.5 84.5 101.5 124.5c0 29.333 -12.333 62 -37 98c-32.667 46 -49 96.333 -49 151c0 53.333 17.167 100.166 51.5 140.5c34.333 40.333 78.5 60.5 132.5 60.5c50 0 94.667 -17.833 134 -53.5
s59 -91.5 59 -167.5c0 -80.667 -26 -161.334 -78 -242c-52 -80.667 -131.333 -147.834 -238 -201.501s-237.667 -80.5 -393 -80.5z" />
    <glyph glyph-name="afii10062" unicode="&#x40e;" horiz-adv-x="3183" 
d="M229 2867l1082 0.000976562v-114h-213c-54.667 0 -82 -27.333 -82 -82c0 -22.667 4 -40.667 12 -54l823 -1589c151.333 297.333 271 541.166 359 731.499s155.333 346 202 467s76.834 211.333 90.5 271c13.667 59.667 20.5 109.167 20.5 148.5
c0 71.333 -39.667 107 -119 107h-209v114h889v-114h-131c-52 -30 -101.833 -75.5 -149.5 -136.5s-99.334 -144.5 -155.001 -250.5s-144.5 -287 -266.5 -543l-293 -611c-147.333 -302 -252.666 -513.333 -315.999 -634s-133 -231.167 -209 -331.5s-160.167 -176 -252.5 -227
s-201.833 -76.5 -328.5 -76.5c-88.667 0 -167.667 16.833 -237 50.5s-123 79 -161 136s-57 118.833 -57 185.5c0 72.667 23.5 131.167 70.5 175.5s101.5 66.5 163.5 66.5c63.333 0 116 -19.333 158 -58s63 -90.334 63 -155.001c0 -34 -4.16699 -57.667 -12.5 -71
s-12.5 -43 -12.5 -89c0 -24.667 12.833 -48.5 38.5 -71.5s59.5 -34.5 101.5 -34.5c86 0 176 44.333 270 133s184 224.334 270 407.001l-1011 1926c-71.333 139.333 -175.333 209 -312 209h-86v114zM1753 2974c-156 0 -287.833 26.834 -395.5 80.501
s-187.5 120.834 -239.5 201.5c-52 80.667 -78 161.334 -78 242c0 76 19.667 131.833 59 167.5s84 53.5 134 53.5c54 0 98.167 -19.833 132.5 -59.5s51.5 -86.834 51.5 -141.5c0 -56.667 -19 -111 -57 -163c-19.333 -24 -29 -52.667 -29 -86c0 -40 33.833 -81.5 101.5 -124.5
s174.5 -64.5 320.5 -64.5c143.333 0 248.833 21.5 316.5 64.5s101.5 84.5 101.5 124.5c0 29.333 -12.333 62 -37 98c-32.667 46 -49 96.333 -49 151c0 53.333 17.167 100.166 51.5 140.5c34.333 40.333 78.5 60.5 132.5 60.5c50 0 94.667 -17.833 134 -53.5
s59 -91.5 59 -167.5c0 -80.667 -26 -161.334 -78 -242c-52 -80.667 -131.333 -147.834 -238 -201.501s-237.667 -80.5 -393 -80.5z" />
    <glyph glyph-name="afii10110" unicode="&#xa2;" horiz-adv-x="2163" 
d="M57 1892l844.003 -0.00195312v-90h-139c-71.333 0 -107 -26 -107 -78c0 -21.333 5.66699 -44.333 17 -69l553 -1315l172 475c160.667 445.333 241 732 241 860c0 84.667 -42.333 127 -127 127h-110v90h704v-90h-65c-58 0 -107.333 -29.667 -148 -89
s-80.834 -141.5 -120.501 -246.5l-157.5 -422.5l-545 -1376c-64 -160 -143.833 -297.667 -239.5 -413s-224.834 -173 -387.501 -173c-90 0 -167.667 25.667 -233 77s-98 116 -98 194c0 54.667 16.333 100.334 49 137.001s75 55 127 55c116.667 0 180.667 -62.667 192 -188
c7.33301 -84.667 40.333 -127 99 -127c58 0 123 38.833 195 116.5s138 195.834 198 354.501l102 266l-713 1688c-36.667 98 -110.334 147 -221.001 147h-82v90zM1176 2191c-123.333 0 -231.167 23.5 -323.5 70.5s-162.666 106.833 -210.999 179.5s-72.5 145 -72.5 217
c0 66 19.333 117.333 58 154s86.334 55 143.001 55c56 0 96.667 -18.833 122 -56.5s38 -78.834 38 -123.5c0 -20 -8.33301 -46 -25 -78c-8 -17.333 -19.833 -38.5 -35.5 -63.5s-26 -43 -31 -54s-7.5 -25.167 -7.5 -42.5c0 -42.667 33.167 -80.5 99.5 -113.5
s148.166 -49.5 245.499 -49.5c106 0 190.5 18.5 253.5 55.5s94.5 72.833 94.5 107.5c0 35.333 -12.333 68.333 -37 99c-41.333 51.333 -62 97.666 -62 139c0 56 15 100 45 132s68.333 48 115 48c57.333 0 105.166 -18.167 143.499 -54.5s57.5 -87.833 57.5 -154.5
c0 -72 -24.5 -144.333 -73.5 -217s-119.5 -132.5 -211.5 -179.5s-200.333 -70.5 -325 -70.5z" />
    <glyph glyph-name="afii10110" unicode="&#x45e;" horiz-adv-x="2163" 
d="M57 1892l844.003 -0.00195312v-90h-139c-71.333 0 -107 -26 -107 -78c0 -21.333 5.66699 -44.333 17 -69l553 -1315l172 475c160.667 445.333 241 732 241 860c0 84.667 -42.333 127 -127 127h-110v90h704v-90h-65c-58 0 -107.333 -29.667 -148 -89
s-80.834 -141.5 -120.501 -246.5l-157.5 -422.5l-545 -1376c-64 -160 -143.833 -297.667 -239.5 -413s-224.834 -173 -387.501 -173c-90 0 -167.667 25.667 -233 77s-98 116 -98 194c0 54.667 16.333 100.334 49 137.001s75 55 127 55c116.667 0 180.667 -62.667 192 -188
c7.33301 -84.667 40.333 -127 99 -127c58 0 123 38.833 195 116.5s138 195.834 198 354.501l102 266l-713 1688c-36.667 98 -110.334 147 -221.001 147h-82v90zM1176 2191c-123.333 0 -231.167 23.5 -323.5 70.5s-162.666 106.833 -210.999 179.5s-72.5 145 -72.5 217
c0 66 19.333 117.333 58 154s86.334 55 143.001 55c56 0 96.667 -18.833 122 -56.5s38 -78.834 38 -123.5c0 -20 -8.33301 -46 -25 -78c-8 -17.333 -19.833 -38.5 -35.5 -63.5s-26 -43 -31 -54s-7.5 -25.167 -7.5 -42.5c0 -42.667 33.167 -80.5 99.5 -113.5
s148.166 -49.5 245.499 -49.5c106 0 190.5 18.5 253.5 55.5s94.5 72.833 94.5 107.5c0 35.333 -12.333 68.333 -37 99c-41.333 51.333 -62 97.666 -62 139c0 56 15 100 45 132s68.333 48 115 48c57.333 0 105.166 -18.167 143.499 -54.5s57.5 -87.833 57.5 -154.5
c0 -72 -24.5 -144.333 -73.5 -217s-119.5 -132.5 -211.5 -179.5s-200.333 -70.5 -325 -70.5z" />
    <glyph glyph-name="afii10057" unicode="&#xa3;" horiz-adv-x="1761" 
d="M393 2867h1155v-114h-233c-104 0 -156 -61.667 -156 -185v-2130c0 -304.667 -47.667 -559.167 -143 -763.5s-219 -354.166 -371 -449.499s-312.333 -143 -481 -143c-156 0 -277 36.5 -363 109.5s-129 156.833 -129 251.5c0 56 16.667 107.5 50 154.5s85 70.5 155 70.5
c61.333 0 114.833 -17.167 160.5 -51.5s68.5 -88.166 68.5 -161.499c0 -10.667 -0.666992 -25.334 -2 -44.001s-2 -35.334 -2 -50.001c0 -109.333 56 -164 168 -164c78 0 155.667 27.833 233 83.5s143.166 158.167 197.499 307.5s81.5 352.333 81.5 609v2371
c0 123.333 -51.667 185 -155 185h-234v114z" />
    <glyph glyph-name="afii10057" unicode="&#x408;" horiz-adv-x="1761" 
d="M393 2867h1155v-114h-233c-104 0 -156 -61.667 -156 -185v-2130c0 -304.667 -47.667 -559.167 -143 -763.5s-219 -354.166 -371 -449.499s-312.333 -143 -481 -143c-156 0 -277 36.5 -363 109.5s-129 156.833 -129 251.5c0 56 16.667 107.5 50 154.5s85 70.5 155 70.5
c61.333 0 114.833 -17.167 160.5 -51.5s68.5 -88.166 68.5 -161.499c0 -10.667 -0.666992 -25.334 -2 -44.001s-2 -35.334 -2 -50.001c0 -109.333 56 -164 168 -164c78 0 155.667 27.833 233 83.5s143.166 158.167 197.499 307.5s81.5 352.333 81.5 609v2371
c0 123.333 -51.667 185 -155 185h-234v114z" />
    <glyph glyph-name="currency" unicode="&#xa4;" horiz-adv-x="3121" 
d="M401 160l-113.999 110l409 414c-188 217.333 -282 467.333 -282 750c0 124 22.167 251 66.5 381s116.166 252.667 215.499 368l-409 410l114 110l410 -405c113.333 98.667 235.5 170.334 366.5 215c131 44.667 258.833 67 383.5 67c124 0 251.5 -22.333 382.5 -67
s253.167 -116.334 366.5 -215.001l410 405l114 -110l-409 -410c98.667 -113.333 170.334 -235.5 215 -366.5c44.667 -131 67 -258.5 67 -382.5c0 -124.667 -22.333 -252.5 -67 -383.5s-116.334 -253.167 -215 -366.5l409 -414l-114 -110l-410 409
c-115.333 -99.333 -238 -171.166 -368 -215.499s-257 -66.5 -381 -66.5c-282.667 0 -532.667 94 -750 282zM578.001 1434c0 -190 46.834 -360.332 140.501 -510.999s216.167 -267 367.5 -349s309.666 -123 474.999 -123c190 0 360.333 46.833 511 140.5
s267 216.167 349 367.5s123 309.666 123 474.999c0 164 -41.167 321.667 -123.5 473s-198.5 274.166 -348.5 368.5c-150 94.333 -320.333 141.5 -511 141.5s-361 -47.167 -511 -141.5s-266.167 -217.166 -348.5 -368.5c-82.333 -151.333 -123.5 -309 -123.5 -473z" />
    <glyph glyph-name="afii10050" unicode="&#xa5;" horiz-adv-x="2163" 
d="M274 2867h861c98 0 218.333 14.5 361 43.5s267.667 73.167 375 132.5s161 131.666 161 217v91h131v-598h-967c-104 0 -156 -61.667 -156 -185v-2269c0 -122.667 52 -184 156 -184h234v-115h-1156v115h234c104 0 156 61.333 156 184v2269c0 123.333 -52 185 -156 185h-234
v114z" />
    <glyph glyph-name="afii10050" unicode="&#x490;" horiz-adv-x="2163" 
d="M274 2867h861c98 0 218.333 14.5 361 43.5s267.667 73.167 375 132.5s161 131.666 161 217v91h131v-598h-967c-104 0 -156 -61.667 -156 -185v-2269c0 -122.667 52 -184 156 -184h234v-115h-1156v115h234c104 0 156 61.333 156 184v2269c0 123.333 -52 185 -156 185h-234
v114z" />
    <glyph glyph-name="brokenbar" unicode="&#xa6;" horiz-adv-x="926" 
d="M246 1720c0 58.667 20.5 109.5 61.5 152.5s92.833 64.5 155.5 64.5c56.667 0 107 -20 151 -60s66 -92.333 66 -157c0 -62.667 -21.5 -114.5 -64.5 -155.5s-93.833 -61.5 -152.5 -61.5c-56 0 -106.167 20.667 -150.5 62s-66.5 93 -66.5 155zM246 160
c0 58 20.667 108.667 62 152s93 65 155 65c56.667 0 107 -20 151 -60s66 -92.333 66 -157c0 -62.667 -21.5 -114.5 -64.5 -155.5s-93.833 -61.5 -152.5 -61.5c-62 0 -113.667 22.167 -155 66.5s-62 94.5 -62 150.5z" />
    <glyph glyph-name="section" unicode="&#xa7;" horiz-adv-x="2208" 
d="M1016 2044l601.998 -450.999c240 -181.333 360 -387.333 360 -618c0 -249.333 -147.333 -488.333 -442 -717c128.667 -119.333 193 -265.333 193 -438c0 -85.333 -22.167 -177.833 -66.5 -277.5s-113 -184.834 -206 -255.501s-207.167 -106 -342.5 -106
c-122.667 0 -231.5 21.833 -326.5 65.5s-168 100.667 -219 171s-76.5 142.833 -76.5 217.5c0 70.667 19.333 124.667 58 162s84.667 56 138 56c60 0 109.833 -17 149.5 -51s59.5 -76 59.5 -126c0 -16 -1.33301 -38 -4 -66s-4 -56.333 -4 -85c0 -153.333 75 -230 225 -230
c109.333 0 195.333 39.333 258 118s94 170.667 94 276c0 144 -65.333 268 -196 372l-701 545c-226.667 178.667 -340 387.667 -340 627c0 70 17.667 147.833 53 233.5s84.833 168.667 148.5 249s135.834 150.166 216.501 209.499c-90 120.667 -135 251.667 -135 393.001
c0 97.333 27.833 193.166 83.5 287.5c55.667 94.333 136.5 171.166 242.5 230.5c106 59.333 230.667 89 374 89c101.333 0 194 -16 278 -48s150.167 -74.833 198.5 -128.5s72.5 -111.167 72.5 -172.5c0 -70.667 -20 -123.834 -60 -159.5
c-40 -35.667 -85.333 -53.5 -136 -53.5c-125.333 0 -192.333 93 -201 279c-5.33301 112 -81.666 168 -228.999 168c-104 0 -190.167 -32.5 -258.5 -97.5s-102.5 -134.833 -102.5 -209.5c0 -98.667 25.833 -189.167 77.5 -271.5s106.5 -144.833 164.5 -187.5zM1430 1319
l-708.999 536c-82.667 -55.333 -148.334 -127 -197.001 -215s-73 -181.333 -73 -280c0 -94.667 27 -179.5 81 -254.5s138.667 -158.167 254 -249.5l680 -524c84.667 58 149.667 128 195 210s68 159.333 68 232c0 207.333 -99.667 389 -299 545z" />
    <glyph glyph-name="afii10023" unicode="&#xa8;" horiz-adv-x="2781" 
d="M2474 0l-2200 0.00195312v115h234c104 0 156 61.333 156 184v2269c0 123.333 -52 185 -156 185h-234v114h2180l49 -581h-131l-17 122c-12 97.333 -95.667 179.166 -251 245.499s-410.333 99.5 -765 99.5h-143c-104 0 -156 -61.667 -156 -185v-1003h185
c212.667 0 372 10.5 478 31.5s173 47.667 201 80s42 72.833 42 121.5v103h131v-787h-131v103c0 47.333 -11.833 86.666 -35.5 117.999s-88.167 58.333 -193.5 81s-269.333 34 -492 34h-185v-1151c0 -122.667 52 -184 156 -184h57c408 0 705 40 891 120s290.667 179 314 297
l20 103h131zM713 3351c0 68 27.333 130.667 82 188s120 86 196 86c78.667 0 144.167 -28.333 196.5 -85s78.5 -119.667 78.5 -189c0 -70 -26.167 -133.333 -78.5 -190s-117.833 -85 -196.5 -85c-76 0 -141.333 28.667 -196 86s-82 120.333 -82 189zM1642 3351
c0 78 28.668 143.167 86.001 195.5s120.333 78.5 189 78.5c69.333 0 132.333 -26.167 188.999 -78.5c56.667 -52.333 85 -117.5 85 -195.5c0 -78.667 -28.333 -144.167 -85 -196.5s-119.667 -78.5 -189 -78.5c-68.667 0 -131.667 26.167 -189 78.5s-86 117.833 -86 196.5z
" />
    <glyph glyph-name="afii10023" unicode="&#x401;" horiz-adv-x="2781" 
d="M2474 0l-2200 0.00195312v115h234c104 0 156 61.333 156 184v2269c0 123.333 -52 185 -156 185h-234v114h2180l49 -581h-131l-17 122c-12 97.333 -95.667 179.166 -251 245.499s-410.333 99.5 -765 99.5h-143c-104 0 -156 -61.667 -156 -185v-1003h185
c212.667 0 372 10.5 478 31.5s173 47.667 201 80s42 72.833 42 121.5v103h131v-787h-131v103c0 47.333 -11.833 86.666 -35.5 117.999s-88.167 58.333 -193.5 81s-269.333 34 -492 34h-185v-1151c0 -122.667 52 -184 156 -184h57c408 0 705 40 891 120s290.667 179 314 297
l20 103h131zM713 3351c0 68 27.333 130.667 82 188s120 86 196 86c78.667 0 144.167 -28.333 196.5 -85s78.5 -119.667 78.5 -189c0 -70 -26.167 -133.333 -78.5 -190s-117.833 -85 -196.5 -85c-76 0 -141.333 28.667 -196 86s-82 120.333 -82 189zM1642 3351
c0 78 28.668 143.167 86.001 195.5s120.333 78.5 189 78.5c69.333 0 132.333 -26.167 188.999 -78.5c56.667 -52.333 85 -117.5 85 -195.5c0 -78.667 -28.333 -144.167 -85 -196.5s-119.667 -78.5 -189 -78.5c-68.667 0 -131.667 26.167 -189 78.5s-86 117.833 -86 196.5z
" />
    <glyph glyph-name="copyright" unicode="&#xa9;" horiz-adv-x="3277" 
d="M147 1434c0 183.333 35.3311 364.165 105.998 542.498s172.334 339.333 305.001 483s291.167 257.167 475.5 340.5s385.833 125 604.5 125c287.333 0 545.333 -71.667 773.999 -215c228.667 -143.333 405.334 -329.666 530.001 -558.999s187 -468.333 187 -717
c0 -184.667 -35 -365.667 -105 -543s-171.5 -338 -304.5 -482s-291.5 -257.667 -475.5 -341s-386 -125 -606 -125c-248.667 0 -487.667 62.333 -717 187s-415.666 301.334 -558.999 530.001s-215 486.667 -215 774zM310.998 1434c0 -165.333 31.166 -327.17 93.499 -485.503
s152.333 -301.166 270 -428.499s258.667 -228.166 423 -302.499s344.5 -111.5 540.5 -111.5c196.667 0 377.334 37.333 542.001 112s305.667 175.334 423 302.001s207.166 269.334 269.5 428.001c62.333 158.667 93.5 320.667 93.5 486s-31.167 327 -93.5 485
s-152.5 301 -270.5 429s-259 228.833 -423 302.5s-344.333 110.5 -541 110.5c-164.667 0 -326.167 -31.167 -484.5 -93.5s-300.833 -151.833 -427.5 -268.5s-227.5 -257.834 -302.5 -423.501s-112.5 -346.167 -112.5 -541.5zM2134 2294h90.001l33 -455h-90l-8 107
c-35.333 96.667 -101.833 169.167 -199.5 217.5s-195.167 72.5 -292.5 72.5c-102 0 -196.667 -32.167 -284 -96.5s-157.333 -157.833 -210 -280.5s-79 -267.334 -79 -434.001c0 -246.667 58.5 -436.667 175.5 -570s265.833 -200 446.5 -200
c245.333 0 425.666 135.333 540.999 406l90 -29c-128.667 -327.333 -365 -491 -709 -491c-168 0 -316.833 38.5 -446.5 115.5s-229.667 183.333 -300 319s-105.5 287.167 -105.5 454.5c0 164.667 36 315.334 108 452.001s175.667 245 311 325s292 120 470 120
c158.667 0 311.667 -34.333 459 -103v70z" />
    <glyph glyph-name="afii10053" unicode="&#xaa;" horiz-adv-x="3027" 
d="M1335 1434l-602.002 -0.000976562c0 -317.333 53.5 -576.333 160.5 -777s243 -344.667 408 -432s337.5 -131 517.5 -131c162.667 0 307.834 38.333 435.501 115s232 169 313 277s146.833 217.667 197.5 329l102 -53c-137.333 -300 -308 -511.5 -512 -634.5
s-426.333 -184.5 -667 -184.5c-276 0 -520.5 63.833 -733.5 191.5s-377.5 303.834 -493.5 528.501s-174 474.667 -174 750c0 174.667 28.833 351.167 86.5 529.5s145.834 341.5 264.501 489.5s272.167 267.167 460.5 357.5s406.5 135.5 654.5 135.5
c285.333 0 546 -59 782 -177l-4 119h131l58 -758h-131l-9 82c-9.33301 98.667 -51.666 196.167 -127 292.5c-75.333 96.333 -178.166 174.833 -308.5 235.5c-130.333 60.667 -277.166 91 -440.499 91c-184.667 0 -349.334 -58.667 -494.001 -176
s-257.5 -272.5 -338.5 -465.5s-124.5 -399.833 -130.5 -620.5h594c248.667 0 519 28.667 811 86v-286c-292 57.333 -562.333 86 -811 86z" />
    <glyph glyph-name="afii10053" unicode="&#x404;" horiz-adv-x="3027" 
d="M1335 1434l-602.002 -0.000976562c0 -317.333 53.5 -576.333 160.5 -777s243 -344.667 408 -432s337.5 -131 517.5 -131c162.667 0 307.834 38.333 435.501 115s232 169 313 277s146.833 217.667 197.5 329l102 -53c-137.333 -300 -308 -511.5 -512 -634.5
s-426.333 -184.5 -667 -184.5c-276 0 -520.5 63.833 -733.5 191.5s-377.5 303.834 -493.5 528.501s-174 474.667 -174 750c0 174.667 28.833 351.167 86.5 529.5s145.834 341.5 264.501 489.5s272.167 267.167 460.5 357.5s406.5 135.5 654.5 135.5
c285.333 0 546 -59 782 -177l-4 119h131l58 -758h-131l-9 82c-9.33301 98.667 -51.666 196.167 -127 292.5c-75.333 96.333 -178.166 174.833 -308.5 235.5c-130.333 60.667 -277.166 91 -440.499 91c-184.667 0 -349.334 -58.667 -494.001 -176
s-257.5 -272.5 -338.5 -465.5s-124.5 -399.833 -130.5 -620.5h594c248.667 0 519 28.667 811 86v-286c-292 57.333 -562.333 86 -811 86z" />
    <glyph glyph-name="guillemotleft" unicode="&#xab;" 
d="M754 946l801.999 -879.999l-61 -66l-426 359.5c-129.333 105 -260.166 204.667 -392.499 299s-275.833 190.166 -430.5 287.499c230 145.333 435.333 286.833 616 424.5s391.667 311.5 633 521.5l61 -65zM1421 946.001l488 -618l-62 -58
c-153.333 148 -281.833 266.833 -385.5 356.5s-238.5 196.167 -404.5 319.5l280 216.5c84.667 68.333 167 139 247 212l263 247.5l62 -57z" />
    <glyph glyph-name="logicalnot" unicode="&#xac;" horiz-adv-x="2621" 
d="M246 1556v164h2130v-778h-164v614h-1966z" />
    <glyph glyph-name="registered" unicode="&#xae;" horiz-adv-x="3277" 
d="M147 1434c0 183.333 35.3311 364.165 105.998 542.498s172.334 339.333 305.001 483s291.167 257.167 475.5 340.5s385.833 125 604.5 125c287.333 0 545.333 -71.667 773.999 -215c228.667 -143.333 405.334 -329.666 530.001 -558.999s187 -468.333 187 -717
c0 -184.667 -35 -365.667 -105 -543s-171.5 -338 -304.5 -482s-291.5 -257.667 -475.5 -341s-386 -125 -606 -125c-248.667 0 -487.667 62.333 -717 187s-415.666 301.334 -558.999 530.001s-215 486.667 -215 774zM310.998 1434c0 -165.333 31.166 -327.17 93.499 -485.503
s152.333 -301.166 270 -428.499s258.667 -228.166 423 -302.499s344.5 -111.5 540.5 -111.5c196.667 0 377.334 37.333 542.001 112s305.667 175.334 423 302.001s207.166 269.334 269.5 428.001c62.333 158.667 93.5 320.667 93.5 486s-31.167 327 -93.5 485
s-152.5 301 -270.5 429s-259 228.833 -423 302.5s-344.333 110.5 -541 110.5c-164.667 0 -326.167 -31.167 -484.5 -93.5s-300.833 -151.833 -427.5 -268.5s-227.5 -257.834 -302.5 -423.501s-112.5 -346.167 -112.5 -541.5zM900.997 2294l680.001 0.000976562
c218 0 396.833 -28.333 536.5 -85s209.5 -174.667 209.5 -354c0 -139.333 -58.333 -249.833 -175 -331.5s-260.667 -122.5 -432 -122.5v-17c111.333 -30.667 204.5 -78.5 279.5 -143.5s131.833 -131.167 170.5 -198.5s80 -152.666 124 -255.999c21.333 -54 41 -90 59 -108
s43.333 -27 76 -27v-90c-30.667 -13.333 -66.334 -20 -107.001 -20c-162.667 0 -306 146 -430 438c-41.333 94.667 -74.833 164.667 -100.5 210s-70.667 89.166 -135 131.499s-149.5 65.166 -255.5 68.499v-615c0 -73.333 31.333 -110 94 -110h139v-91h-733v91h139
c63.333 0 95 36.667 95 110v1319c0 74 -31.667 111 -95 111h-139v90zM1401 2175l-0.000976562 -696.001c56.667 -11.333 123.667 -17 201 -17c168.667 0 282.5 40.333 341.5 121s88.5 171.334 88.5 272.001c0 84.667 -30.167 164 -90.5 238s-172.166 111 -335.499 111
c-70 0 -138.333 -9.66699 -205 -29z" />
    <glyph glyph-name="afii10056" unicode="&#xaf;" horiz-adv-x="1647" 
d="M1430 0h-1156v115h234c104 0 156 61.333 156 184v2269c0 123.333 -52 185 -156 185h-234v114h1156v-114h-234c-104 0 -156 -61.667 -156 -185v-2269c0 -122.667 52 -184 156 -184h234v-115zM156 3351c0 78 28.333 143.167 85 195.5s119.667 78.5 189 78.5
c68.667 0 131.667 -26.167 189 -78.5s86 -117.5 86 -195.5c0 -70 -26.167 -133.333 -78.5 -190s-117.833 -85 -196.5 -85c-78 0 -143.167 28.333 -195.5 85s-78.5 120 -78.5 190zM999 3351c0 78 28.667 143.167 86 195.5s120.333 78.5 189 78.5
c69.333 0 132.333 -26.167 189 -78.5s85 -117.5 85 -195.5c0 -70.667 -26 -134.167 -78 -190.5s-117.333 -84.5 -196 -84.5s-144.167 28.333 -196.5 85s-78.5 120 -78.5 190z" />
    <glyph glyph-name="afii10056" unicode="&#x407;" horiz-adv-x="1647" 
d="M1430 0h-1156v115h234c104 0 156 61.333 156 184v2269c0 123.333 -52 185 -156 185h-234v114h1156v-114h-234c-104 0 -156 -61.667 -156 -185v-2269c0 -122.667 52 -184 156 -184h234v-115zM156 3351c0 78 28.333 143.167 85 195.5s119.667 78.5 189 78.5
c68.667 0 131.667 -26.167 189 -78.5s86 -117.5 86 -195.5c0 -70 -26.167 -133.333 -78.5 -190s-117.833 -85 -196.5 -85c-78 0 -143.167 28.333 -195.5 85s-78.5 120 -78.5 190zM999 3351c0 78 28.667 143.167 86 195.5s120.333 78.5 189 78.5
c69.333 0 132.333 -26.167 189 -78.5s85 -117.5 85 -195.5c0 -70.667 -26 -134.167 -78 -190.5s-117.333 -84.5 -196 -84.5s-144.167 28.333 -196.5 85s-78.5 120 -78.5 190z" />
    <glyph glyph-name="degree" unicode="&#xb0;" horiz-adv-x="1368" 
d="M246 2486c0 86.667 21.167 163.667 63.5 231s97.166 118.833 164.499 154.5s137.333 53.5 210 53.5c86 0 162.333 -20.667 229 -62s118.167 -96.166 154.5 -164.5c36.333 -68.333 54.5 -139.166 54.5 -212.5c0 -72.667 -17.833 -142.667 -53.5 -210
s-87 -122.166 -154 -164.5c-67 -42.333 -143.833 -63.5 -230.5 -63.5c-129.333 0 -234.666 44.167 -315.999 132.5s-122 190.166 -122 305.5zM393 2486c0 -82.667 30.3311 -151.834 90.998 -207.5c60.667 -55.667 127.334 -83.5 200.001 -83.5c84 0 153.5 30.5 208.5 91.5
s82.5 127.5 82.5 199.5c0 84 -30.167 153.5 -90.5 208.5s-127.166 82.5 -200.499 82.5c-72 0 -138.5 -27.5 -199.5 -82.5s-91.5 -124.5 -91.5 -208.5z" />
    <glyph glyph-name="plusminus" unicode="&#xb1;" horiz-adv-x="2621" 
d="M246 1556v164h983v901h164v-901h983v-164h-983v-860h-164v860h-983zM246 205v164h2130v-164h-2130z" />
    <glyph glyph-name="afii10055" unicode="&#xb2;" horiz-adv-x="1642" 
d="M274 2867h1156v-114h-234c-104 0 -156 -61.667 -156 -185v-2269c0 -122.667 52 -184 156 -184h234v-115h-1156v115h234c104 0 156 61.333 156 184v2269c0 123.333 -52 185 -156 185h-234v114z" />
    <glyph glyph-name="afii10055" unicode="&#x406;" horiz-adv-x="1642" 
d="M274 2867h1156v-114h-234c-104 0 -156 -61.667 -156 -185v-2269c0 -122.667 52 -184 156 -184h234v-115h-1156v115h234c104 0 156 61.333 156 184v2269c0 123.333 -52 185 -156 185h-234v114z" />
    <glyph glyph-name="afii10103" unicode="&#xb3;" horiz-adv-x="1188" 
d="M1057 0l-926.001 0.000976562v90h160c52.667 0 90.334 6.66699 113.001 20s34 39.333 34 78v1454c0 35.333 -19.5 58.666 -58.5 69.999s-105.5 17 -199.5 17h-49v90c161.333 7.33301 367.666 59 618.999 155v-1786c0 -38.667 11.333 -64.667 34 -78
s60.334 -20 113.001 -20h160v-90zM335.999 2503c0 51.333 19.333 98.165 58 140.499c38.667 42.333 87.667 63.5 147 63.5c52.667 0 100.667 -19.167 144 -57.5s65 -87.166 65 -146.499c0 -58.667 -22 -108.167 -66 -148.5s-91.667 -60.5 -143 -60.5
c-58 0 -106.667 21.833 -146 65.5s-59 91.5 -59 143.5z" />
    <glyph glyph-name="afii10103" unicode="&#x456;" horiz-adv-x="1188" 
d="M1057 0l-926.001 0.000976562v90h160c52.667 0 90.334 6.66699 113.001 20s34 39.333 34 78v1454c0 35.333 -19.5 58.666 -58.5 69.999s-105.5 17 -199.5 17h-49v90c161.333 7.33301 367.666 59 618.999 155v-1786c0 -38.667 11.333 -64.667 34 -78
s60.334 -20 113.001 -20h160v-90zM335.999 2503c0 51.333 19.333 98.165 58 140.499c38.667 42.333 87.667 63.5 147 63.5c52.667 0 100.667 -19.167 144 -57.5s65 -87.166 65 -146.499c0 -58.667 -22 -108.167 -66 -148.5s-91.667 -60.5 -143 -60.5
c-58 0 -106.667 21.833 -146 65.5s-59 91.5 -59 143.5z" />
    <glyph glyph-name="afii10098" unicode="&#xb4;" horiz-adv-x="1581" 
d="M131 1892h622.999c252 0 427.667 38.5 527 115.5s149 162.833 149 257.5v37h102v-500h-688c-62.667 0 -94 -32.667 -94 -98v-1516c0 -38.667 11.333 -64.667 34 -78s60.334 -20 113.001 -20h201v-90h-967v90h160c52.667 0 90.334 6.66699 113.001 20s34 39.333 34 78
v1516c0 39.333 -11.333 65.5 -34 78.5s-60.334 19.5 -113.001 19.5h-160v90z" />
    <glyph glyph-name="afii10098" unicode="&#x491;" horiz-adv-x="1581" 
d="M131 1892h622.999c252 0 427.667 38.5 527 115.5s149 162.833 149 257.5v37h102v-500h-688c-62.667 0 -94 -32.667 -94 -98v-1516c0 -38.667 11.333 -64.667 34 -78s60.334 -20 113.001 -20h201v-90h-967v90h160c52.667 0 90.334 6.66699 113.001 20s34 39.333 34 78
v1516c0 39.333 -11.333 65.5 -34 78.5s-60.334 19.5 -113.001 19.5h-160v90z" />
    <glyph glyph-name="mu" unicode="&#xb5;" horiz-adv-x="2425" 
d="M1651 1892l311.002 0.000976562v-1618c0 -106 30 -159 90 -159c62 0 112.667 53 152 159l90 -36c-24.667 -76.667 -65.834 -143 -123.501 -199s-133.834 -84 -228.501 -84c-88 0 -153.833 35.667 -197.5 107s-65.5 165.333 -65.5 282h-24
c-40 -100.667 -101.667 -190.667 -185 -270s-191 -119 -323 -119c-98.667 0 -181.834 21 -249.501 63s-119.167 90 -154.5 144s-61.666 108 -78.999 162h-29c6 -237.333 32 -460 78 -668c30 -134 45 -258.333 45 -373c0 -44 -15.5 -88.5 -46.5 -133.5
s-87.833 -67.5 -170.5 -67.5c-52 0 -100.5 15.167 -145.5 45.5s-67.5 82.166 -67.5 155.499c0 34 23 199.333 69 496c52 331.333 78 697.333 78 1098v1015h311v-1335c0 -118.667 34.5 -209 103.5 -271s156.167 -93 261.5 -93c94 0 179.5 25.833 256.5 77.5
s136.833 117.667 179.5 198s64 161.833 64 244.5v1179z" />
    <glyph glyph-name="paragraph" unicode="&#xb6;" horiz-adv-x="2392" 
d="M1188 -877l-164 -0.000976562v2311c-114 0 -234.667 17 -362 51s-240.833 102.833 -340.5 206.5s-149.5 249.834 -149.5 438.501c0 196.667 65.833 368.667 197.5 516s366.167 221 703.5 221h1147v-114h-459v-3630h-164v3630h-409v-3630z" />
    <glyph glyph-name="periodcentered" unicode="&#xb7;" horiz-adv-x="926" 
d="M246 1102c0 58.667 20.5 109.5 61.5 152.5s92.833 64.5 155.5 64.5c64.667 0 117 -22 157 -66s60 -94.333 60 -151c0 -62.667 -21.5 -114.5 -64.5 -155.5s-93.833 -61.5 -152.5 -61.5c-62 0 -113.667 22.167 -155 66.5s-62 94.5 -62 150.5z" />
    <glyph glyph-name="afii10071" unicode="&#xb8;" horiz-adv-x="1872" 
d="M1749 1081l-1241 0.00292969c-2.66699 -35.333 -4 -87 -4 -155c0 -203.333 28.667 -366.5 86 -489.5s130.166 -209.5 218.499 -259.5s182.166 -75 281.499 -75c246.667 0 436.334 127 569.001 381l74 -41c-56 -105.333 -117 -194 -183 -266
s-142.667 -126.833 -230 -164.5s-190 -56.5 -308 -56.5c-116 0 -226.167 20.667 -330.5 62s-196.833 103.166 -277.5 185.499s-143.667 183.166 -189 302.499s-68 254 -68 404c0 190 34.333 363.667 103 521s168.334 281.166 299.001 371.499s285 135.5 463 135.5
c169.333 0 309.333 -43.167 420 -129.5s191.167 -195 241.5 -326s75.5 -264.5 75.5 -400.5zM508 1171l905 0.000976562v58c0 217.333 -39.167 374.666 -117.5 471.999s-175.5 146 -291.5 146c-66 0 -133.333 -17.5 -202 -52.5s-131.167 -103.167 -187.5 -204.5
s-91.833 -241 -106.5 -419zM434 2503c0 46 17.667 91.5 53 136.5s86 67.5 152 67.5s116.667 -22.167 152 -66.5s53 -90.166 53 -137.5c0 -46.667 -17.667 -92.5 -53 -137.5s-86 -67.5 -152 -67.5s-116.667 22.833 -152 68.5s-53 91.167 -53 136.5zM1090 2503
c0 56 18.3311 104 54.998 144s86.334 60 149.001 60c63.333 0 113.333 -20 150 -60s55 -88 55 -144c0 -56.667 -18.667 -105 -56 -145s-87 -60 -149 -60c-61.333 0 -110.666 20 -147.999 60s-56 88.333 -56 145z" />
    <glyph glyph-name="afii10071" unicode="&#x451;" horiz-adv-x="1872" 
d="M1749 1081l-1241 0.00292969c-2.66699 -35.333 -4 -87 -4 -155c0 -203.333 28.667 -366.5 86 -489.5s130.166 -209.5 218.499 -259.5s182.166 -75 281.499 -75c246.667 0 436.334 127 569.001 381l74 -41c-56 -105.333 -117 -194 -183 -266
s-142.667 -126.833 -230 -164.5s-190 -56.5 -308 -56.5c-116 0 -226.167 20.667 -330.5 62s-196.833 103.166 -277.5 185.499s-143.667 183.166 -189 302.499s-68 254 -68 404c0 190 34.333 363.667 103 521s168.334 281.166 299.001 371.499s285 135.5 463 135.5
c169.333 0 309.333 -43.167 420 -129.5s191.167 -195 241.5 -326s75.5 -264.5 75.5 -400.5zM508 1171l905 0.000976562v58c0 217.333 -39.167 374.666 -117.5 471.999s-175.5 146 -291.5 146c-66 0 -133.333 -17.5 -202 -52.5s-131.167 -103.167 -187.5 -204.5
s-91.833 -241 -106.5 -419zM434 2503c0 46 17.667 91.5 53 136.5s86 67.5 152 67.5s116.667 -22.167 152 -66.5s53 -90.166 53 -137.5c0 -46.667 -17.667 -92.5 -53 -137.5s-86 -67.5 -152 -67.5s-116.667 22.833 -152 68.5s-53 91.167 -53 136.5zM1090 2503
c0 56 18.3311 104 54.998 144s86.334 60 149.001 60c63.333 0 113.333 -20 150 -60s55 -88 55 -144c0 -56.667 -18.667 -105 -56 -145s-87 -60 -149 -60c-61.333 0 -110.666 20 -147.999 60s-56 88.333 -56 145z" />
    <glyph glyph-name="afii61352" unicode="&#xb9;" horiz-adv-x="4334" 
d="M311 2867l668 -0.00195312l1532 -2191v1679c0 380 166.667 570 500 570c102 0 183.333 -28.5 244 -85.5s91 -125.5 91 -205.5c0 -66.667 -19 -117.5 -57 -152.5s-81.667 -52.5 -131 -52.5c-134 0 -201 83.333 -201 250c0 68 -30 102 -90 102
c-54.667 0 -104.5 -32.333 -149.5 -97s-67.5 -174.334 -67.5 -329.001v-2412h-115l-1552 2220v-1606c0 -239.333 -48.667 -401.5 -146 -486.5s-204.333 -127.5 -321 -127.5c-124 0 -221.833 35.833 -293.5 107.5s-107.5 151.834 -107.5 240.501
c0 45.333 16.5 85.333 49.5 120s79.167 52 138.5 52c61.333 0 109.5 -19.667 144.5 -59s52.5 -94.666 52.5 -165.999v-50c4 -51.333 28.333 -82.666 73 -93.999h41c153.333 26 230 210.333 230 553v1704l-119 168c-109.333 156 -247.333 234 -414 234v114zM2900 1266
c0 97.333 21.333 193.5 64 288.5s108.5 173.667 197.5 236s199.833 93.5 332.5 93.5c118 0 222 -27.333 312 -82s159.5 -128.667 208.5 -222s73.5 -198 73.5 -314c0 -114 -24.5 -218.167 -73.5 -312.5s-118.667 -169 -209 -224s-194.166 -82.5 -311.5 -82.5
c-100 0 -187.833 18.5 -263.5 55.5s-138 86.5 -187 148.5s-85.167 129.5 -108.5 202.5s-35 143.833 -35 212.5zM3195 1266c0 -190.667 28.833 -326.499 86.5 -407.499s128.5 -121.5 212.5 -121.5c99.333 0 174 47.833 224 143.5s75 224.167 75 385.5
c0 145.333 -23 269.666 -69 372.999s-122.667 155 -230 155c-90.667 0 -163.167 -44 -217.5 -132s-81.5 -220 -81.5 -396zM3985 -0.000976562h-983v246h983v-246z" />
    <glyph glyph-name="afii61352" unicode="&#x2116;" horiz-adv-x="4334" 
d="M311 2867l668 -0.00195312l1532 -2191v1679c0 380 166.667 570 500 570c102 0 183.333 -28.5 244 -85.5s91 -125.5 91 -205.5c0 -66.667 -19 -117.5 -57 -152.5s-81.667 -52.5 -131 -52.5c-134 0 -201 83.333 -201 250c0 68 -30 102 -90 102
c-54.667 0 -104.5 -32.333 -149.5 -97s-67.5 -174.334 -67.5 -329.001v-2412h-115l-1552 2220v-1606c0 -239.333 -48.667 -401.5 -146 -486.5s-204.333 -127.5 -321 -127.5c-124 0 -221.833 35.833 -293.5 107.5s-107.5 151.834 -107.5 240.501
c0 45.333 16.5 85.333 49.5 120s79.167 52 138.5 52c61.333 0 109.5 -19.667 144.5 -59s52.5 -94.666 52.5 -165.999v-50c4 -51.333 28.333 -82.666 73 -93.999h41c153.333 26 230 210.333 230 553v1704l-119 168c-109.333 156 -247.333 234 -414 234v114zM2900 1266
c0 97.333 21.333 193.5 64 288.5s108.5 173.667 197.5 236s199.833 93.5 332.5 93.5c118 0 222 -27.333 312 -82s159.5 -128.667 208.5 -222s73.5 -198 73.5 -314c0 -114 -24.5 -218.167 -73.5 -312.5s-118.667 -169 -209 -224s-194.166 -82.5 -311.5 -82.5
c-100 0 -187.833 18.5 -263.5 55.5s-138 86.5 -187 148.5s-85.167 129.5 -108.5 202.5s-35 143.833 -35 212.5zM3195 1266c0 -190.667 28.833 -326.499 86.5 -407.499s128.5 -121.5 212.5 -121.5c99.333 0 174 47.833 224 143.5s75 224.167 75 385.5
c0 145.333 -23 269.666 -69 372.999s-122.667 155 -230 155c-90.667 0 -163.167 -44 -217.5 -132s-81.5 -220 -81.5 -396zM3985 -0.000976562h-983v246h983v-246z" />
    <glyph glyph-name="afii10101" unicode="&#xba;" horiz-adv-x="1950" 
d="M668 971h-164.003c2.66699 -248 39 -437.5 109 -568.5s149.333 -215.833 238 -254.5s176.334 -58 263.001 -58c70.667 0 140.334 8.16699 209.001 24.5s141.834 57.5 219.501 123.5s145.167 165.667 202.5 299l82 -41c-158.667 -360.667 -401.667 -541 -729 -541
c-198.667 0 -369.667 43.833 -513 131.5s-252.166 209.5 -326.499 365.5s-111.5 334.333 -111.5 535c0 95.333 19.167 213 57.5 353s130.166 274.5 275.499 403.5s360.666 193.5 645.999 193.5c204.667 0 381 -39.333 529 -118l-4 73h102l16 -495h-102v49
c0 72.667 -24 139.667 -72 201s-113.667 110 -197 146s-174 54 -272 54c-165.333 0 -294.333 -41.667 -387 -125s-155 -183.5 -187 -300.5s-48 -237.167 -48 -360.5c229.333 0 406 3 530 9s246.333 20.667 367 44v-213c-137.333 30.667 -256.166 50 -356.499 58
s-225.833 12 -376.5 12z" />
    <glyph glyph-name="afii10101" unicode="&#x454;" horiz-adv-x="1950" 
d="M668 971h-164.003c2.66699 -248 39 -437.5 109 -568.5s149.333 -215.833 238 -254.5s176.334 -58 263.001 -58c70.667 0 140.334 8.16699 209.001 24.5s141.834 57.5 219.501 123.5s145.167 165.667 202.5 299l82 -41c-158.667 -360.667 -401.667 -541 -729 -541
c-198.667 0 -369.667 43.833 -513 131.5s-252.166 209.5 -326.499 365.5s-111.5 334.333 -111.5 535c0 95.333 19.167 213 57.5 353s130.166 274.5 275.499 403.5s360.666 193.5 645.999 193.5c204.667 0 381 -39.333 529 -118l-4 73h102l16 -495h-102v49
c0 72.667 -24 139.667 -72 201s-113.667 110 -197 146s-174 54 -272 54c-165.333 0 -294.333 -41.667 -387 -125s-155 -183.5 -187 -300.5s-48 -237.167 -48 -360.5c229.333 0 406 3 530 9s246.333 20.667 367 44v-213c-137.333 30.667 -256.166 50 -356.499 58
s-225.833 12 -376.5 12z" />
    <glyph glyph-name="guillemotright" unicode="&#xbb;" 
d="M1401 946l-803 881.002l61 65c237.333 -207.333 445.5 -379.333 624.5 -516s387.5 -280 625.5 -430c-230.667 -144.667 -439.667 -288.334 -627 -431.001s-395 -314.334 -623 -515.001l-61 66zM733 946.002l-487 619l61 57l269 -252.5
c76.667 -69.667 157.334 -138.667 242.001 -207l280 -216.5l-280 -216.5c-84.667 -68.333 -165.334 -137.333 -242.001 -207l-269 -252.5l-61 58z" />
    <glyph glyph-name="afii10105" unicode="&#xbc;" horiz-adv-x="1159" 
d="M438 -180v1822c0 35.333 -19.5 58.666 -58.5 69.999s-105.5 17 -199.5 17h-49v90c161.333 7.33301 367.666 59 618.999 155v-1970c0 -115.333 -23.5 -245 -70.5 -389s-124.333 -268.833 -232 -374.5s-245.834 -158.5 -414.501 -158.5
c-97.333 0 -173.666 29.667 -228.999 89s-83 124 -83 194c0 50 16.833 92.5 50.5 127.5s72.834 52.5 117.501 52.5c52.667 0 96.667 -16.333 132 -49s53 -83 53 -151c0 -8.66699 -1.33301 -18.667 -4 -30s-4 -20.666 -4 -27.999c0 -65.333 27 -98 81 -98
c194 0 291 210.333 291 631zM336 2503c0 51.333 19.5 98.166 58.5 140.5c39 42.333 89.167 63.5 150.5 63.5c59.333 0 108.333 -21 147 -63s58 -89 58 -141c0 -53.333 -19.667 -101.5 -59 -144.5s-88 -64.5 -146 -64.5c-61.333 0 -111.5 22 -150.5 66
s-58.5 91.667 -58.5 143z" />
    <glyph glyph-name="afii10105" unicode="&#x458;" horiz-adv-x="1159" 
d="M438 -180v1822c0 35.333 -19.5 58.666 -58.5 69.999s-105.5 17 -199.5 17h-49v90c161.333 7.33301 367.666 59 618.999 155v-1970c0 -115.333 -23.5 -245 -70.5 -389s-124.333 -268.833 -232 -374.5s-245.834 -158.5 -414.501 -158.5
c-97.333 0 -173.666 29.667 -228.999 89s-83 124 -83 194c0 50 16.833 92.5 50.5 127.5s72.834 52.5 117.501 52.5c52.667 0 96.667 -16.333 132 -49s53 -83 53 -151c0 -8.66699 -1.33301 -18.667 -4 -30s-4 -20.666 -4 -27.999c0 -65.333 27 -98 81 -98
c194 0 291 210.333 291 631zM336 2503c0 51.333 19.5 98.166 58.5 140.5c39 42.333 89.167 63.5 150.5 63.5c59.333 0 108.333 -21 147 -63s58 -89 58 -141c0 -53.333 -19.667 -101.5 -59 -144.5s-88 -64.5 -146 -64.5c-61.333 0 -111.5 22 -150.5 66
s-58.5 91.667 -58.5 143z" />
    <glyph glyph-name="afii10054" unicode="&#xbd;" horiz-adv-x="2413" 
d="M1909 2867l131.002 -0.000976562l24 -725h-131l-4 86c-4 100 -41.5 194.833 -112.5 284.5s-166.5 161.667 -286.5 216s-249 81.5 -387 81.5c-158 0 -282.167 -40 -372.5 -120s-135.5 -178 -135.5 -294c0 -158 80.667 -285 242 -381l847 -508
c141.333 -83.333 256 -178.5 344 -285.5s132 -247.833 132 -422.5c0 -132 -29.333 -263.167 -88 -393.5s-157.167 -240 -295.5 -329s-317.833 -133.5 -538.5 -133.5c-308 0 -583.667 64 -827 192l8 -135h-131l-54 741h132l4 -53c8 -96.667 53.667 -194.334 137 -293.001
s190.166 -179.667 320.499 -243s264.5 -95 402.5 -95c126.667 0 237.334 28 332.001 84s166.667 129.667 216 221s74 189 74 293c0 95.333 -23.833 173.333 -71.5 234s-117.834 119.334 -210.501 176.001l-733 442c-144 87.333 -249.333 154.833 -316 202.5
s-124.334 109.334 -173.001 185.001s-73 166.5 -73 272.5c0 128 28.333 249.667 85 365s149.5 209.666 278.5 283c129 73.333 294.833 110 497.5 110c236 0 481.667 -59 737 -177z" />
    <glyph glyph-name="afii10054" unicode="&#x405;" horiz-adv-x="2413" 
d="M1909 2867l131.002 -0.000976562l24 -725h-131l-4 86c-4 100 -41.5 194.833 -112.5 284.5s-166.5 161.667 -286.5 216s-249 81.5 -387 81.5c-158 0 -282.167 -40 -372.5 -120s-135.5 -178 -135.5 -294c0 -158 80.667 -285 242 -381l847 -508
c141.333 -83.333 256 -178.5 344 -285.5s132 -247.833 132 -422.5c0 -132 -29.333 -263.167 -88 -393.5s-157.167 -240 -295.5 -329s-317.833 -133.5 -538.5 -133.5c-308 0 -583.667 64 -827 192l8 -135h-131l-54 741h132l4 -53c8 -96.667 53.667 -194.334 137 -293.001
s190.166 -179.667 320.499 -243s264.5 -95 402.5 -95c126.667 0 237.334 28 332.001 84s166.667 129.667 216 221s74 189 74 293c0 95.333 -23.833 173.333 -71.5 234s-117.834 119.334 -210.501 176.001l-733 442c-144 87.333 -249.333 154.833 -316 202.5
s-124.334 109.334 -173.001 185.001s-73 166.5 -73 272.5c0 128 28.333 249.667 85 365s149.5 209.666 278.5 283c129 73.333 294.833 110 497.5 110c236 0 481.667 -59 737 -177z" />
    <glyph glyph-name="afii10102" unicode="&#xbe;" horiz-adv-x="1597" 
d="M1237 1892l101.997 -0.000976562l17 -512h-103v66c0 51.333 -23.667 108.666 -71 171.999s-113 117.333 -197 162s-176 67 -276 67c-99.333 0 -174.666 -29.333 -225.999 -88s-77 -129 -77 -211c0 -58.667 19.5 -109.334 58.5 -152.001s82.333 -76.667 130 -102
s143.167 -71.666 286.5 -138.999c163.333 -76 299 -161.167 407 -255.5s162 -222.166 162 -383.499c0 -93.333 -24.667 -183 -74 -269s-123.166 -156.167 -221.499 -210.5s-215.5 -81.5 -351.5 -81.5c-170 0 -347.667 45 -533 135l4 -90h-102l-25 537h103
c2.66699 -82 30.834 -161 84.501 -237s124.167 -137.5 211.5 -184.5s178.333 -70.5 273 -70.5c117.333 0 207.5 37 270.5 111s94.5 157.333 94.5 250c0 59.333 -13.333 111.833 -40 157.5s-61.5 84.834 -104.5 117.501s-89.833 62 -140.5 88l-190 95
c-190 97.333 -326.333 185.333 -409 264s-124 180.667 -124 306c0 142 52 261.333 156 358s250 145 438 145c169.333 0 325 -39.333 467 -118v73z" />
    <glyph glyph-name="afii10102" unicode="&#x455;" horiz-adv-x="1597" 
d="M1237 1892l101.997 -0.000976562l17 -512h-103v66c0 51.333 -23.667 108.666 -71 171.999s-113 117.333 -197 162s-176 67 -276 67c-99.333 0 -174.666 -29.333 -225.999 -88s-77 -129 -77 -211c0 -58.667 19.5 -109.334 58.5 -152.001s82.333 -76.667 130 -102
s143.167 -71.666 286.5 -138.999c163.333 -76 299 -161.167 407 -255.5s162 -222.166 162 -383.499c0 -93.333 -24.667 -183 -74 -269s-123.166 -156.167 -221.499 -210.5s-215.5 -81.5 -351.5 -81.5c-170 0 -347.667 45 -533 135l4 -90h-102l-25 537h103
c2.66699 -82 30.834 -161 84.501 -237s124.167 -137.5 211.5 -184.5s178.333 -70.5 273 -70.5c117.333 0 207.5 37 270.5 111s94.5 157.333 94.5 250c0 59.333 -13.333 111.833 -40 157.5s-61.5 84.834 -104.5 117.501s-89.833 62 -140.5 88l-190 95
c-190 97.333 -326.333 185.333 -409 264s-124 180.667 -124 306c0 142 52 261.333 156 358s250 145 438 145c169.333 0 325 -39.333 467 -118v73z" />
    <glyph glyph-name="afii10104" unicode="&#xbf;" horiz-adv-x="1192" 
d="M1061 0h-930.002v90h160c64.667 0 105.334 8.5 122.001 25.5s25 41.167 25 72.5v1454c0 30 -14 52 -42 66s-100 21 -216 21h-49v90c168.667 10 376.334 61.667 623.001 155v-1786c0 -40.667 10.167 -67.167 30.5 -79.5s57.833 -18.5 112.5 -18.5h164v-90zM36.998 2490
c0 62 21 115.833 63 161.5s97.333 68.5 166 68.5c44.667 0 84.667 -11.167 120 -33.5s62.5 -51.333 81.5 -87s28.5 -72.167 28.5 -109.5c0 -56 -22.333 -108.167 -67 -156.5s-99 -72.5 -163 -72.5c-57.333 0 -109.833 21.667 -157.5 65s-71.5 98 -71.5 164zM617.998 2490
c0 69.333 22.667 125 68 167s99.333 63 162 63c68 0 123.167 -23.333 165.5 -70s63.5 -100 63.5 -160c0 -64.667 -24.167 -119 -72.5 -163s-100.5 -66 -156.5 -66c-58 0 -110.833 21.667 -158.5 65s-71.5 98 -71.5 164z" />
    <glyph glyph-name="afii10104" unicode="&#x457;" horiz-adv-x="1192" 
d="M1061 0h-930.002v90h160c64.667 0 105.334 8.5 122.001 25.5s25 41.167 25 72.5v1454c0 30 -14 52 -42 66s-100 21 -216 21h-49v90c168.667 10 376.334 61.667 623.001 155v-1786c0 -40.667 10.167 -67.167 30.5 -79.5s57.833 -18.5 112.5 -18.5h164v-90zM36.998 2490
c0 62 21 115.833 63 161.5s97.333 68.5 166 68.5c44.667 0 84.667 -11.167 120 -33.5s62.5 -51.333 81.5 -87s28.5 -72.167 28.5 -109.5c0 -56 -22.333 -108.167 -67 -156.5s-99 -72.5 -163 -72.5c-57.333 0 -109.833 21.667 -157.5 65s-71.5 98 -71.5 164zM617.998 2490
c0 69.333 22.667 125 68 167s99.333 63 162 63c68 0 123.167 -23.333 165.5 -70s63.5 -100 63.5 -160c0 -64.667 -24.167 -119 -72.5 -163s-100.5 -66 -156.5 -66c-58 0 -110.833 21.667 -158.5 65s-71.5 98 -71.5 164z" />
    <glyph glyph-name="afii10017" unicode="&#xc0;" horiz-adv-x="2929" 
d="M1884 1118h-930l-94 -254c-84 -230 -133.667 -368.5 -149 -415.5s-23 -95.5 -23 -145.5c0 -52 11 -96.333 33 -133s50.667 -55 86 -55h164v-115h-832v115h78c68.667 0 148 69.667 238 209s207.333 404 352 794l668 1807h131l921 -2560c16.667 -48 34.667 -89 54 -123
s47.333 -63.667 84 -89s85 -38 145 -38h90v-115h-1049v115h164c54 0 94.833 8 122.5 24s41.5 47.333 41.5 94c0 39.333 -30 143.333 -90 312zM995 1233h852l-426 1180z" />
    <glyph glyph-name="afii10017" unicode="&#x410;" horiz-adv-x="2929" 
d="M1884 1118h-930l-94 -254c-84 -230 -133.667 -368.5 -149 -415.5s-23 -95.5 -23 -145.5c0 -52 11 -96.333 33 -133s50.667 -55 86 -55h164v-115h-832v115h78c68.667 0 148 69.667 238 209s207.333 404 352 794l668 1807h131l921 -2560c16.667 -48 34.667 -89 54 -123
s47.333 -63.667 84 -89s85 -38 145 -38h90v-115h-1049v115h164c54 0 94.833 8 122.5 24s41.5 47.333 41.5 94c0 39.333 -30 143.333 -90 312zM995 1233h852l-426 1180z" />
    <glyph glyph-name="afii10018" unicode="&#xc1;" horiz-adv-x="2871" 
d="M279 2867h2138l49 -581h-131l-17 122c-12 97.333 -95.667 179.166 -251 245.5c-155.333 66.333 -410 99.5 -764 99.5h-62c-58 0 -105.333 -11.833 -142 -35.5s-55 -74.834 -55 -153.5v-885c174 46.667 349 70 525 70c223.333 0 417 -36.333 581 -109s289 -172 375 -298
s129 -266 129 -420c0 -144.667 -29.667 -285.667 -89 -423s-174.833 -254.833 -346.5 -352.5s-411.5 -146.5 -719.5 -146.5h-1220v115h233c104 0 156 61.333 156 184v2269c0 123.333 -52 185 -156 185h-233v114zM1044 1565l0.00292969 -1327
c119.333 -82 269.666 -123 450.999 -123c160 0 293.667 37 401 111s186.166 172.667 236.499 296s75.5 259.333 75.5 408c0 247.333 -69.833 425.166 -209.5 533.499s-315.834 162.5 -528.501 162.5c-144.667 0 -286.667 -20.333 -426 -61z" />
    <glyph glyph-name="afii10018" unicode="&#x411;" horiz-adv-x="2871" 
d="M279 2867h2138l49 -581h-131l-17 122c-12 97.333 -95.667 179.166 -251 245.5c-155.333 66.333 -410 99.5 -764 99.5h-62c-58 0 -105.333 -11.833 -142 -35.5s-55 -74.834 -55 -153.5v-885c174 46.667 349 70 525 70c223.333 0 417 -36.333 581 -109s289 -172 375 -298
s129 -266 129 -420c0 -144.667 -29.667 -285.667 -89 -423s-174.833 -254.833 -346.5 -352.5s-411.5 -146.5 -719.5 -146.5h-1220v115h233c104 0 156 61.333 156 184v2269c0 123.333 -52 185 -156 185h-233v114zM1044 1565l0.00292969 -1327
c119.333 -82 269.666 -123 450.999 -123c160 0 293.667 37 401 111s186.166 172.667 236.499 296s75.5 259.333 75.5 408c0 247.333 -69.833 425.166 -209.5 533.499s-315.834 162.5 -528.501 162.5c-144.667 0 -286.667 -20.333 -426 -61z" />
    <glyph glyph-name="afii10019" unicode="&#xc2;" horiz-adv-x="2908" 
d="M274 0l-0.000976562 114.999h234c104 0 156 61.333 156 184v2273c0 120.667 -52 181 -156 181h-234v114h1315c652.667 0 979 -226.667 979 -680c0 -208 -69.667 -356.5 -209 -445.5s-288 -142.5 -446 -160.5v-16c129.333 -16.667 252.833 -54.167 370.499 -112.5
c117.667 -58.333 215 -141.666 292 -249.999s115.5 -241.5 115.5 -399.5c0 -140 -29.667 -270 -89 -390s-162.666 -218.833 -309.999 -296.5s-344.666 -116.5 -591.999 -116.5h-1426zM1040 1630l475.999 0.000976562c145.333 0 265.333 25.5 360 76.5
s163.334 119.167 206.001 204.5s64 178.666 64 279.999c0 150 -45.667 281.167 -137 393.5s-264 168.5 -518 168.5c-168 0 -318.333 -30.333 -451 -91v-1032zM1040 1507l-0.00195312 -1269c72.667 -48.667 141.834 -81.334 207.501 -98.001s146.834 -25 243.501 -25
c260 0 450.667 65.667 572 197s182 292.333 182 483c0 191.333 -52 357.833 -156 499.5s-298 212.5 -582 212.5h-467z" />
    <glyph glyph-name="afii10019" unicode="&#x412;" horiz-adv-x="2908" 
d="M274 0l-0.000976562 114.999h234c104 0 156 61.333 156 184v2273c0 120.667 -52 181 -156 181h-234v114h1315c652.667 0 979 -226.667 979 -680c0 -208 -69.667 -356.5 -209 -445.5s-288 -142.5 -446 -160.5v-16c129.333 -16.667 252.833 -54.167 370.499 -112.5
c117.667 -58.333 215 -141.666 292 -249.999s115.5 -241.5 115.5 -399.5c0 -140 -29.667 -270 -89 -390s-162.666 -218.833 -309.999 -296.5s-344.666 -116.5 -591.999 -116.5h-1426zM1040 1630l475.999 0.000976562c145.333 0 265.333 25.5 360 76.5
s163.334 119.167 206.001 204.5s64 178.666 64 279.999c0 150 -45.667 281.167 -137 393.5s-264 168.5 -518 168.5c-168 0 -318.333 -30.333 -451 -91v-1032zM1040 1507l-0.00195312 -1269c72.667 -48.667 141.834 -81.334 207.501 -98.001s146.834 -25 243.501 -25
c260 0 450.667 65.667 572 197s182 292.333 182 483c0 191.333 -52 357.833 -156 499.5s-298 212.5 -582 212.5h-467z" />
    <glyph glyph-name="afii10020" unicode="&#xc3;" horiz-adv-x="2286" 
d="M1511 0h-1237v115h234c104 0 156 51.667 156 155v2343c0 43.333 -15.333 77.5 -46 102.5s-67.334 37.5 -110.001 37.5h-234v114h1962l50 -594h-132l-16 135c-10 94 -76.833 175 -200.5 243s-335.167 102 -634.5 102h-66c-59.333 0 -107 -11.667 -143 -35
s-54 -74.666 -54 -154v-2294c0 -103.333 52 -155 156 -155h315v-115z" />
    <glyph glyph-name="afii10020" unicode="&#x413;" horiz-adv-x="2286" 
d="M1511 0h-1237v115h234c104 0 156 51.667 156 155v2343c0 43.333 -15.333 77.5 -46 102.5s-67.334 37.5 -110.001 37.5h-234v114h1962l50 -594h-132l-16 135c-10 94 -76.833 175 -200.5 243s-335.167 102 -634.5 102h-66c-59.333 0 -107 -11.667 -143 -35
s-54 -74.666 -54 -154v-2294c0 -103.333 52 -155 156 -155h315v-115z" />
    <glyph glyph-name="afii10021" unicode="&#xc4;" horiz-adv-x="3023" 
d="M688 2867h2089v-114h-233c-104 0 -156 -61.667 -156 -185v-2269c0 -122.667 52 -184 156 -184h233l33 -746h-131l-13 160c-4.66699 76 -55.5 150.5 -152.5 223.5s-223 132.5 -378 178.5s-316.5 69 -484.5 69h-639c-178 -0 -351.5 -42.167 -520.5 -126.5
s-260.5 -203.166 -274.5 -356.499l-12 -148h-131l53 746c103.333 12.667 196.5 55.167 279.5 127.5s160.5 190.833 232.5 355.5c124.667 286 234.334 632.667 329.001 1040s142 692.666 142 855.999c0 108.667 -23.5 179 -70.5 211s-108.167 48 -183.5 48h-168v114z
M855.999 115h999c104 0 156 61.333 156 184v2269c0 123.333 -50.333 185 -151 185h-369c-70 0 -122.833 -19.5 -158.5 -58.5s-59.167 -83 -70.5 -132s-28 -144.167 -50 -285.5c-76 -473.333 -157.667 -861 -245 -1163c-60 -202 -103.833 -340.167 -131.5 -414.5
l-100.5 -258.5c-39.333 -98 -59 -163 -59 -195c0 -87.333 60 -131 180 -131z" />
    <glyph glyph-name="afii10021" unicode="&#x414;" horiz-adv-x="3023" 
d="M688 2867h2089v-114h-233c-104 0 -156 -61.667 -156 -185v-2269c0 -122.667 52 -184 156 -184h233l33 -746h-131l-13 160c-4.66699 76 -55.5 150.5 -152.5 223.5s-223 132.5 -378 178.5s-316.5 69 -484.5 69h-639c-178 -0 -351.5 -42.167 -520.5 -126.5
s-260.5 -203.166 -274.5 -356.499l-12 -148h-131l53 746c103.333 12.667 196.5 55.167 279.5 127.5s160.5 190.833 232.5 355.5c124.667 286 234.334 632.667 329.001 1040s142 692.666 142 855.999c0 108.667 -23.5 179 -70.5 211s-108.167 48 -183.5 48h-168v114z
M855.999 115h999c104 0 156 61.333 156 184v2269c0 123.333 -50.333 185 -151 185h-369c-70 0 -122.833 -19.5 -158.5 -58.5s-59.167 -83 -70.5 -132s-28 -144.167 -50 -285.5c-76 -473.333 -157.667 -861 -245 -1163c-60 -202 -103.833 -340.167 -131.5 -414.5
l-100.5 -258.5c-39.333 -98 -59 -163 -59 -195c0 -87.333 60 -131 180 -131z" />
    <glyph glyph-name="afii10022" unicode="&#xc5;" horiz-adv-x="2781" 
d="M274 2867l2180 0.00195312l49 -581h-131l-17 122c-12 97.333 -95.667 179.166 -251 245.499s-410.333 99.5 -765 99.5h-143c-104 0 -156 -61.667 -156 -185v-1003h185c212.667 0 372 10.5 478 31.5s173 47.667 201 80s42 72.833 42 121.5v103h131v-787h-131v103
c0 47.333 -11.833 86.666 -35.5 117.999s-88.167 58.333 -193.5 81s-269.333 34 -492 34h-185v-1151c0 -122.667 52 -184 156 -184h57c408 0 705 40 891 120s290.667 179 314 297l20 103h131l-135 -635h-2200v115h234c104 0 156 61.333 156 184v2269
c0 123.333 -52 185 -156 185h-234v114z" />
    <glyph glyph-name="afii10022" unicode="&#x415;" horiz-adv-x="2781" 
d="M274 2867l2180 0.00195312l49 -581h-131l-17 122c-12 97.333 -95.667 179.166 -251 245.499s-410.333 99.5 -765 99.5h-143c-104 0 -156 -61.667 -156 -185v-1003h185c212.667 0 372 10.5 478 31.5s173 47.667 201 80s42 72.833 42 121.5v103h131v-787h-131v103
c0 47.333 -11.833 86.666 -35.5 117.999s-88.167 58.333 -193.5 81s-269.333 34 -492 34h-185v-1151c0 -122.667 52 -184 156 -184h57c408 0 705 40 891 120s290.667 179 314 297l20 103h131l-135 -635h-2200v115h234c104 0 156 61.333 156 184v2269
c0 123.333 -52 185 -156 185h-234v114z" />
    <glyph glyph-name="afii10024" unicode="&#xc6;" horiz-adv-x="4284" 
d="M2720 0l-1155 -0.00292969v115h233c104 0 156 61.333 156 184v1196h-82c-80.667 0 -151.5 -18.167 -212.5 -54.5s-113.333 -84.5 -157 -144.5s-88.834 -137.833 -135.501 -233.5l-114 -235.5c-108 -223.333 -189.5 -385.166 -244.5 -485.499
s-127.333 -191.833 -217 -274.5s-193.834 -124 -312.501 -124c-207.333 0 -320.666 118.667 -339.999 356h111c6.66699 -120 46.334 -180 119.001 -180c29.333 0 56 11.5 80 34.5s44.833 53 62.5 90s33.5 75.167 47.5 114.5l43 121c69.333 182 140.833 340.5 214.5 475.5
s177.667 258.667 312 371s301.5 183.833 501.5 214.5v21c-146 31.333 -266.167 111.166 -360.5 239.499s-188.5 320.166 -282.5 575.499c-92.667 259.333 -177.334 389 -254.001 389c-27.333 0 -41 -19.333 -41 -58c0 -6.66699 0.666992 -16.667 2 -30s2 -22.333 2 -27
c0 -60 -18.5 -108.5 -55.5 -145.5s-83.833 -55.5 -140.5 -55.5c-55.333 0 -104.666 18.667 -147.999 56s-65 91 -65 161c0 72 25 133.167 75 183.5s122 75.5 216 75.5c103.333 0 194.833 -30.5 274.5 -91.5s149 -139.333 208 -235s126.167 -221.834 201.5 -378.5
c89.333 -182 166.333 -316.333 231 -403s124.5 -142.834 179.5 -168.501s121.5 -38.5 199.5 -38.5h82v958c0 123.333 -52 185 -156 185h-233v114h1155v-114h-234c-103.333 0 -155 -61.667 -155 -185v-958h82c77.333 0 143.5 12.833 198.5 38.5s115.5 82.834 181.5 171.501
s142.667 222 230 400c112 235.333 216.667 411.666 314 529c97.333 117.333 220.666 176 370 176c94 0 166 -25 216 -75s75 -111.333 75 -184c0 -70 -21.833 -123.667 -65.5 -161s-92.834 -56 -147.5 -56c-57.333 0 -104.5 18.833 -141.5 56.5s-55.5 85.834 -55.5 144.501
c0 4.66699 0.666992 13.667 2 27s2 23.333 2 30c0 38.667 -13.667 58 -41 58c-48.667 0 -92.667 -36 -132 -108s-80 -165.667 -122 -281c-94 -255.333 -188 -447.166 -282 -575.499s-214.333 -208.166 -361 -239.499v-21c199.333 -30.667 366.5 -102.167 501.5 -214.5
s239.167 -236 312.5 -371s144.666 -293.5 214 -475.5l61 -165c21.333 -56 45.833 -102.5 73.5 -139.5s60.834 -55.5 99.5 -55.5c28 0 54 14.333 78 43s37.667 74.334 41 137.001h110c-18.667 -237.333 -132 -356 -340 -356c-90.667 0 -173.167 25.333 -247.5 76
s-140.166 116.5 -197.5 197.5c-57.333 81 -115.333 180.167 -174 297.5l-155 313l-115.5 240c-45 92.667 -89.333 169 -133 229s-96 108.167 -157 144.5s-131.833 54.5 -212.5 54.5h-82v-1196c0 -122.667 51.667 -184 155 -184h234v-115z" />
    <glyph glyph-name="afii10024" unicode="&#x416;" horiz-adv-x="4284" 
d="M2720 0l-1155 -0.00292969v115h233c104 0 156 61.333 156 184v1196h-82c-80.667 0 -151.5 -18.167 -212.5 -54.5s-113.333 -84.5 -157 -144.5s-88.834 -137.833 -135.501 -233.5l-114 -235.5c-108 -223.333 -189.5 -385.166 -244.5 -485.499
s-127.333 -191.833 -217 -274.5s-193.834 -124 -312.501 -124c-207.333 0 -320.666 118.667 -339.999 356h111c6.66699 -120 46.334 -180 119.001 -180c29.333 0 56 11.5 80 34.5s44.833 53 62.5 90s33.5 75.167 47.5 114.5l43 121c69.333 182 140.833 340.5 214.5 475.5
s177.667 258.667 312 371s301.5 183.833 501.5 214.5v21c-146 31.333 -266.167 111.166 -360.5 239.499s-188.5 320.166 -282.5 575.499c-92.667 259.333 -177.334 389 -254.001 389c-27.333 0 -41 -19.333 -41 -58c0 -6.66699 0.666992 -16.667 2 -30s2 -22.333 2 -27
c0 -60 -18.5 -108.5 -55.5 -145.5s-83.833 -55.5 -140.5 -55.5c-55.333 0 -104.666 18.667 -147.999 56s-65 91 -65 161c0 72 25 133.167 75 183.5s122 75.5 216 75.5c103.333 0 194.833 -30.5 274.5 -91.5s149 -139.333 208 -235s126.167 -221.834 201.5 -378.5
c89.333 -182 166.333 -316.333 231 -403s124.5 -142.834 179.5 -168.501s121.5 -38.5 199.5 -38.5h82v958c0 123.333 -52 185 -156 185h-233v114h1155v-114h-234c-103.333 0 -155 -61.667 -155 -185v-958h82c77.333 0 143.5 12.833 198.5 38.5s115.5 82.834 181.5 171.501
s142.667 222 230 400c112 235.333 216.667 411.666 314 529c97.333 117.333 220.666 176 370 176c94 0 166 -25 216 -75s75 -111.333 75 -184c0 -70 -21.833 -123.667 -65.5 -161s-92.834 -56 -147.5 -56c-57.333 0 -104.5 18.833 -141.5 56.5s-55.5 85.834 -55.5 144.501
c0 4.66699 0.666992 13.667 2 27s2 23.333 2 30c0 38.667 -13.667 58 -41 58c-48.667 0 -92.667 -36 -132 -108s-80 -165.667 -122 -281c-94 -255.333 -188 -447.166 -282 -575.499s-214.333 -208.166 -361 -239.499v-21c199.333 -30.667 366.5 -102.167 501.5 -214.5
s239.167 -236 312.5 -371s144.666 -293.5 214 -475.5l61 -165c21.333 -56 45.833 -102.5 73.5 -139.5s60.834 -55.5 99.5 -55.5c28 0 54 14.333 78 43s37.667 74.334 41 137.001h110c-18.667 -237.333 -132 -356 -340 -356c-90.667 0 -173.167 25.333 -247.5 76
s-140.166 116.5 -197.5 197.5c-57.333 81 -115.333 180.167 -174 297.5l-155 313l-115.5 240c-45 92.667 -89.333 169 -133 229s-96 108.167 -157 144.5s-131.833 54.5 -212.5 54.5h-82v-1196c0 -122.667 51.667 -184 155 -184h234v-115z" />
    <glyph glyph-name="afii10025" unicode="&#xc7;" horiz-adv-x="2662" 
d="M975 1462v201c87.333 -16.667 200.666 -25 339.999 -25c226.667 0 387.834 58.667 483.501 176s143.5 265 143.5 443c0 165.333 -46 298.833 -138 400.5s-225 152.5 -399 152.5c-159.333 0 -301.833 -30 -427.5 -90s-223.5 -135 -293.5 -225s-107 -176.333 -111 -259
l-4 -77h-131l49 708h131l-8 -131c235.333 126 501.666 189 798.999 189c220.667 0 402.5 -35.5 545.5 -106.5s246.833 -161.167 311.5 -270.5s97 -224 97 -344c0 -130.667 -31.5 -242.167 -94.5 -334.5s-143.167 -163 -240.5 -212s-198.666 -78.5 -303.999 -88.5v-17
c204 -14.667 375.167 -87.334 513.5 -218.001s207.5 -302.334 207.5 -515.001c0 -142 -37.333 -279.833 -112 -413.5s-196.334 -244.167 -365.001 -331.5s-383.667 -131 -645 -131c-216 0 -403.167 29 -561.5 87s-279.166 133.5 -362.499 226.5s-125 189.167 -125 288.5
c0 68.667 21.167 128.834 63.5 180.501s101.833 77.5 178.5 77.5c70.667 0 124.5 -22.833 161.5 -68.5s55.5 -99.5 55.5 -161.5c0 -42 -6.83301 -80 -20.5 -114s-20.5 -62.667 -20.5 -86c0 -75.333 50 -146.833 150 -214.5s244 -101.5 432 -101.5
c150 0 279.667 33.333 389 100s192.666 159.167 249.999 277.5s86 253.5 86 405.5c0 130.667 -23.667 247.334 -71 350.001s-120.666 184 -219.999 244s-222.333 90 -369 90c-122.667 0 -244 -20.667 -364 -62z" />
    <glyph glyph-name="afii10025" unicode="&#x417;" horiz-adv-x="2662" 
d="M975 1462v201c87.333 -16.667 200.666 -25 339.999 -25c226.667 0 387.834 58.667 483.501 176s143.5 265 143.5 443c0 165.333 -46 298.833 -138 400.5s-225 152.5 -399 152.5c-159.333 0 -301.833 -30 -427.5 -90s-223.5 -135 -293.5 -225s-107 -176.333 -111 -259
l-4 -77h-131l49 708h131l-8 -131c235.333 126 501.666 189 798.999 189c220.667 0 402.5 -35.5 545.5 -106.5s246.833 -161.167 311.5 -270.5s97 -224 97 -344c0 -130.667 -31.5 -242.167 -94.5 -334.5s-143.167 -163 -240.5 -212s-198.666 -78.5 -303.999 -88.5v-17
c204 -14.667 375.167 -87.334 513.5 -218.001s207.5 -302.334 207.5 -515.001c0 -142 -37.333 -279.833 -112 -413.5s-196.334 -244.167 -365.001 -331.5s-383.667 -131 -645 -131c-216 0 -403.167 29 -561.5 87s-279.166 133.5 -362.499 226.5s-125 189.167 -125 288.5
c0 68.667 21.167 128.834 63.5 180.501s101.833 77.5 178.5 77.5c70.667 0 124.5 -22.833 161.5 -68.5s55.5 -99.5 55.5 -161.5c0 -42 -6.83301 -80 -20.5 -114s-20.5 -62.667 -20.5 -86c0 -75.333 50 -146.833 150 -214.5s244 -101.5 432 -101.5
c150 0 279.667 33.333 389 100s192.666 159.167 249.999 277.5s86 253.5 86 405.5c0 130.667 -23.667 247.334 -71 350.001s-120.666 184 -219.999 244s-222.333 90 -369 90c-122.667 0 -244 -20.667 -364 -62z" />
    <glyph glyph-name="afii10026" unicode="&#xc8;" horiz-adv-x="3473" 
d="M274 2867l1156 -0.000976562v-114h-234c-104 0 -156 -61.667 -156 -185v-2052l1454 2044v57c0 39.333 -15.5 71.833 -46.5 97.5s-67.167 38.5 -108.5 38.5h-234v114h1155v-114h-233c-104 0 -156 -61.667 -156 -185v-2269c0 -122.667 52 -184 156 -184h233v-115h-1155v115
h234c103.333 0 155 61.333 155 184v2064l-1454 -2052v-61c0 -31.333 12.333 -61.666 37 -90.999s64.334 -44 119.001 -44h234v-115h-1156v115h234c104 0 156 61.333 156 184v2269c0 123.333 -52 185 -156 185h-234v114z" />
    <glyph glyph-name="afii10026" unicode="&#x418;" horiz-adv-x="3473" 
d="M274 2867l1156 -0.000976562v-114h-234c-104 0 -156 -61.667 -156 -185v-2052l1454 2044v57c0 39.333 -15.5 71.833 -46.5 97.5s-67.167 38.5 -108.5 38.5h-234v114h1155v-114h-233c-104 0 -156 -61.667 -156 -185v-2269c0 -122.667 52 -184 156 -184h233v-115h-1155v115
h234c103.333 0 155 61.333 155 184v2064l-1454 -2052v-61c0 -31.333 12.333 -61.666 37 -90.999s64.334 -44 119.001 -44h234v-115h-1156v115h234c104 0 156 61.333 156 184v2269c0 123.333 -52 185 -156 185h-234v114z" />
    <glyph glyph-name="afii10027" unicode="&#xc9;" horiz-adv-x="3473" 
d="M274 2867l1156 -0.000976562v-114h-234c-104 0 -156 -61.667 -156 -185v-2052l1454 2044v57c0 39.333 -15.5 71.833 -46.5 97.5s-67.167 38.5 -108.5 38.5h-234v114h1155v-114h-233c-104 0 -156 -61.667 -156 -185v-2269c0 -122.667 52 -184 156 -184h233v-115h-1155v115
h234c103.333 0 155 61.333 155 184v2064l-1454 -2052v-61c0 -31.333 12.333 -61.666 37 -90.999s64.334 -44 119.001 -44h234v-115h-1156v115h234c104 0 156 61.333 156 184v2269c0 123.333 -52 185 -156 185h-234v114zM1769 2974
c-137.333 0 -260.498 23.666 -369.498 70.999s-193.333 111.166 -253 191.5c-59.667 80.333 -89.5 167.5 -89.5 261.5c0 82 20.5 139.333 61.5 172s83.167 49 126.5 49c54.667 0 99.167 -19.833 133.5 -59.5s51.5 -86.834 51.5 -141.5c0 -14 -5.66699 -41 -17 -81
c-12 -34 -25.667 -61.333 -41 -82c-16 -24.667 -24 -53.334 -24 -86c0 -62 45.333 -109 136 -141s185.667 -48 285 -48c57.333 0 118.166 6.33301 182.499 19s119 33 164 61s67.5 64.333 67.5 109c0 29.333 -12.333 62 -37 98c-11.333 16 -22.333 40.167 -33 72.5
s-16 58.5 -16 78.5c0 52 18.167 98.5 54.5 139.5s81.166 61.5 134.5 61.5c48 0 91.333 -18 130 -54s58 -91.667 58 -167c0 -82 -25.833 -163.167 -77.5 -243.5s-130.834 -147.166 -237.501 -200.499s-236.667 -80 -390 -80z" />
    <glyph glyph-name="afii10027" unicode="&#x419;" horiz-adv-x="3473" 
d="M274 2867l1156 -0.000976562v-114h-234c-104 0 -156 -61.667 -156 -185v-2052l1454 2044v57c0 39.333 -15.5 71.833 -46.5 97.5s-67.167 38.5 -108.5 38.5h-234v114h1155v-114h-233c-104 0 -156 -61.667 -156 -185v-2269c0 -122.667 52 -184 156 -184h233v-115h-1155v115
h234c103.333 0 155 61.333 155 184v2064l-1454 -2052v-61c0 -31.333 12.333 -61.666 37 -90.999s64.334 -44 119.001 -44h234v-115h-1156v115h234c104 0 156 61.333 156 184v2269c0 123.333 -52 185 -156 185h-234v114zM1769 2974
c-137.333 0 -260.498 23.666 -369.498 70.999s-193.333 111.166 -253 191.5c-59.667 80.333 -89.5 167.5 -89.5 261.5c0 82 20.5 139.333 61.5 172s83.167 49 126.5 49c54.667 0 99.167 -19.833 133.5 -59.5s51.5 -86.834 51.5 -141.5c0 -14 -5.66699 -41 -17 -81
c-12 -34 -25.667 -61.333 -41 -82c-16 -24.667 -24 -53.334 -24 -86c0 -62 45.333 -109 136 -141s185.667 -48 285 -48c57.333 0 118.166 6.33301 182.499 19s119 33 164 61s67.5 64.333 67.5 109c0 29.333 -12.333 62 -37 98c-11.333 16 -22.333 40.167 -33 72.5
s-16 58.5 -16 78.5c0 52 18.167 98.5 54.5 139.5s81.166 61.5 134.5 61.5c48 0 91.333 -18 130 -54s58 -91.667 58 -167c0 -82 -25.833 -163.167 -77.5 -243.5s-130.834 -147.166 -237.501 -200.499s-236.667 -80 -390 -80z" />
    <glyph glyph-name="afii10028" unicode="&#xca;" horiz-adv-x="3035" 
d="M1040 1610l163.999 -0.000976562c80 0 148.167 12.833 204.5 38.5s118.833 83.334 187.5 173.001s148.334 225.167 239.001 406.5c78.667 156.667 147.667 281.5 207 374.5s130.166 170 212.5 231c82.333 61 177.5 91.5 285.5 91.5c94.667 0 166.667 -25 216 -75
s74 -111.333 74 -184c0 -70.667 -21.667 -124.5 -65 -161.5s-92.666 -55.5 -148 -55.5c-56.667 0 -103.5 18.833 -140.5 56.5s-55.5 85.834 -55.5 144.5c0 4.66699 0.666992 13.667 2 27s2 23.333 2 30c0 38.667 -13.667 58 -41 58c-52 0 -97.5 -36.333 -136.5 -109
s-79.5 -166 -121.5 -280c-58 -160.667 -119 -297 -183 -409s-135 -201.833 -213 -269.5s-166 -114.834 -264 -141.501v-20c180.667 -21.333 338.167 -82 472.5 -182s246.5 -223.333 336.5 -370s171.333 -315 244 -505c57.333 -145.333 101 -241.666 131 -288.999
s62.667 -71 98 -71c34 0 61.833 18.5 83.5 55.5s33.5 78.5 35.5 124.5h111c-18 -237.333 -131.333 -356 -340 -356c-118 0 -225.833 43.833 -323.5 131.5s-183.167 193.5 -256.5 317.5s-155.333 280.333 -246 469s-154 312.667 -190 372c-106.667 174.667 -246 262 -418 262
h-164v-1196c0 -122.667 52 -184 156 -184h234v-115h-1156v115h234c104 0 156 61.333 156 184v2269c0 123.333 -52 185 -156 185h-234v114h1156v-114h-234c-104 0 -156 -61.667 -156 -185v-958z" />
    <glyph glyph-name="afii10028" unicode="&#x41a;" horiz-adv-x="3035" 
d="M1040 1610l163.999 -0.000976562c80 0 148.167 12.833 204.5 38.5s118.833 83.334 187.5 173.001s148.334 225.167 239.001 406.5c78.667 156.667 147.667 281.5 207 374.5s130.166 170 212.5 231c82.333 61 177.5 91.5 285.5 91.5c94.667 0 166.667 -25 216 -75
s74 -111.333 74 -184c0 -70.667 -21.667 -124.5 -65 -161.5s-92.666 -55.5 -148 -55.5c-56.667 0 -103.5 18.833 -140.5 56.5s-55.5 85.834 -55.5 144.5c0 4.66699 0.666992 13.667 2 27s2 23.333 2 30c0 38.667 -13.667 58 -41 58c-52 0 -97.5 -36.333 -136.5 -109
s-79.5 -166 -121.5 -280c-58 -160.667 -119 -297 -183 -409s-135 -201.833 -213 -269.5s-166 -114.834 -264 -141.501v-20c180.667 -21.333 338.167 -82 472.5 -182s246.5 -223.333 336.5 -370s171.333 -315 244 -505c57.333 -145.333 101 -241.666 131 -288.999
s62.667 -71 98 -71c34 0 61.833 18.5 83.5 55.5s33.5 78.5 35.5 124.5h111c-18 -237.333 -131.333 -356 -340 -356c-118 0 -225.833 43.833 -323.5 131.5s-183.167 193.5 -256.5 317.5s-155.333 280.333 -246 469s-154 312.667 -190 372c-106.667 174.667 -246 262 -418 262
h-164v-1196c0 -122.667 52 -184 156 -184h234v-115h-1156v115h234c104 0 156 61.333 156 184v2269c0 123.333 -52 185 -156 185h-234v114h1156v-114h-234c-104 0 -156 -61.667 -156 -185v-958z" />
    <glyph glyph-name="afii10029" unicode="&#xcb;" horiz-adv-x="3138" 
d="M750 2867l2175 0.000976562v-114h-234c-104 0 -156 -61.667 -156 -185v-2269c0 -122.667 52 -184 156 -184h234v-115h-1156v115h234c104 0 156 61.333 156 184v2269c0 123.333 -52 185 -156 185h-234c-113.333 0 -197.333 -13.333 -252 -40s-90.667 -62.5 -108 -107.5
s-31 -107.833 -41 -188.5c-57.333 -486.667 -116.5 -887 -177.5 -1201s-127.5 -564.833 -199.5 -752.5s-151 -321.334 -237 -401.001s-185.667 -119.5 -299 -119.5c-114.667 0 -209.667 30.667 -285 92s-113 141 -113 239c0 74 20.167 134.833 60.5 182.5
s95.5 71.5 165.5 71.5c72 0 126.833 -20.5 164.5 -61.5s56.5 -90.167 56.5 -147.5c0 -12.667 -2.66699 -33 -8 -61c-6 -24 -9 -41.667 -9 -53c0 -24.667 7 -45.167 21 -61.5s31.667 -24.5 53 -24.5c120 0 241.667 189.667 365 569c40.667 126.667 85 311 133 553
s89 483.833 123 725.5s51 417.5 51 527.5c0 82 -18.333 145.667 -55 191s-89.334 68 -158.001 68h-270v114z" />
    <glyph glyph-name="afii10029" unicode="&#x41b;" horiz-adv-x="3138" 
d="M750 2867l2175 0.000976562v-114h-234c-104 0 -156 -61.667 -156 -185v-2269c0 -122.667 52 -184 156 -184h234v-115h-1156v115h234c104 0 156 61.333 156 184v2269c0 123.333 -52 185 -156 185h-234c-113.333 0 -197.333 -13.333 -252 -40s-90.667 -62.5 -108 -107.5
s-31 -107.833 -41 -188.5c-57.333 -486.667 -116.5 -887 -177.5 -1201s-127.5 -564.833 -199.5 -752.5s-151 -321.334 -237 -401.001s-185.667 -119.5 -299 -119.5c-114.667 0 -209.667 30.667 -285 92s-113 141 -113 239c0 74 20.167 134.833 60.5 182.5
s95.5 71.5 165.5 71.5c72 0 126.833 -20.5 164.5 -61.5s56.5 -90.167 56.5 -147.5c0 -12.667 -2.66699 -33 -8 -61c-6 -24 -9 -41.667 -9 -53c0 -24.667 7 -45.167 21 -61.5s31.667 -24.5 53 -24.5c120 0 241.667 189.667 365 569c40.667 126.667 85 311 133 553
s89 483.833 123 725.5s51 417.5 51 527.5c0 82 -18.333 145.667 -55 191s-89.334 68 -158.001 68h-270v114z" />
    <glyph glyph-name="afii10030" unicode="&#xcc;" horiz-adv-x="4010" 
d="M274 2867l828.001 -0.00195312l971 -2306l979 2306h745v-114h-233c-104 0 -156 -61.667 -156 -185v-2269c0 -122.667 52 -184 156 -184h233v-115h-1155v115h233c104 0 156 61.333 156 184v2204l-1053 -2503h-106l-1094 2585v-1364v-86c0 -286 18.667 -527.5 56 -724.5
s119.666 -295.5 246.999 -295.5h78v-115h-885v115h78c85.333 0 149.166 55.333 191.499 166s68.833 242.334 79.5 395.001s16 334.334 16 545.001v1327c0 90 -14.667 146.667 -44 170s-66.666 35 -111.999 35h-209v114z" />
    <glyph glyph-name="afii10030" unicode="&#x41c;" horiz-adv-x="4010" 
d="M274 2867l828.001 -0.00195312l971 -2306l979 2306h745v-114h-233c-104 0 -156 -61.667 -156 -185v-2269c0 -122.667 52 -184 156 -184h233v-115h-1155v115h233c104 0 156 61.333 156 184v2204l-1053 -2503h-106l-1094 2585v-1364v-86c0 -286 18.667 -527.5 56 -724.5
s119.666 -295.5 246.999 -295.5h78v-115h-885v115h78c85.333 0 149.166 55.333 191.499 166s68.833 242.334 79.5 395.001s16 334.334 16 545.001v1327c0 90 -14.667 146.667 -44 170s-66.666 35 -111.999 35h-209v114z" />
    <glyph glyph-name="afii10031" unicode="&#xcd;" horiz-adv-x="3465" 
d="M1040 1552h1446v1016c0 123.333 -51.667 185 -155 185h-234v114h1155v-114h-233c-104 0 -156 -61.667 -156 -185v-2269c0 -122.667 52 -184 156 -184h233v-115h-1155v115h234c103.333 0 155 61.333 155 184v1139h-1446v-1139c0 -122.667 52 -184 156 -184h234v-115h-1156
v115h234c104 0 156 61.333 156 184v2269c0 123.333 -52 185 -156 185h-234v114h1156v-114h-234c-104 0 -156 -61.667 -156 -185v-1016z" />
    <glyph glyph-name="afii10031" unicode="&#x41d;" horiz-adv-x="3465" 
d="M1040 1552h1446v1016c0 123.333 -51.667 185 -155 185h-234v114h1155v-114h-233c-104 0 -156 -61.667 -156 -185v-2269c0 -122.667 52 -184 156 -184h233v-115h-1155v115h234c103.333 0 155 61.333 155 184v1139h-1446v-1139c0 -122.667 52 -184 156 -184h234v-115h-1156
v115h234c104 0 156 61.333 156 184v2269c0 123.333 -52 185 -156 185h-234v114h1156v-114h-234c-104 0 -156 -61.667 -156 -185v-1016z" />
    <glyph glyph-name="afii10032" unicode="&#xce;" horiz-adv-x="3371" 
d="M287 1442c0 193.333 32.167 379.498 96.5 558.498s158.166 337.833 281.499 476.5s274.5 248 453.5 328s379.5 120 601.5 120c222.667 0 423.334 -39.667 602.001 -119s330.167 -188.666 454.5 -327.999s218.333 -297.833 282 -475.5s95.5 -364.5 95.5 -560.5
c0 -198 -32.167 -387.667 -96.5 -569s-158.5 -341.666 -282.5 -480.999s-275.5 -249 -454.5 -329s-379.167 -120 -600.5 -120c-293.333 0 -548.5 68.5 -765.5 205.5s-382.5 320.333 -496.5 550s-171 477.5 -171 743.5zM733 1442c0 -210.667 32.002 -421.667 96.002 -633
s170 -389.5 318 -534.5s339 -217.5 573 -217.5s425.167 72.5 573.5 217.5s254.333 323.167 318 534.5s95.5 422.333 95.5 633c0 150 -16.333 302.667 -49 458s-87.167 302.5 -163.5 441.5s-178.833 251.833 -307.5 338.5s-284.334 130 -467.001 130
c-219.333 0 -403.333 -66 -552 -198s-258.334 -302.5 -329.001 -511.5s-106 -428.5 -106 -658.5z" />
    <glyph glyph-name="afii10032" unicode="&#x41e;" horiz-adv-x="3371" 
d="M287 1442c0 193.333 32.167 379.498 96.5 558.498s158.166 337.833 281.499 476.5s274.5 248 453.5 328s379.5 120 601.5 120c222.667 0 423.334 -39.667 602.001 -119s330.167 -188.666 454.5 -327.999s218.333 -297.833 282 -475.5s95.5 -364.5 95.5 -560.5
c0 -198 -32.167 -387.667 -96.5 -569s-158.5 -341.666 -282.5 -480.999s-275.5 -249 -454.5 -329s-379.167 -120 -600.5 -120c-293.333 0 -548.5 68.5 -765.5 205.5s-382.5 320.333 -496.5 550s-171 477.5 -171 743.5zM733 1442c0 -210.667 32.002 -421.667 96.002 -633
s170 -389.5 318 -534.5s339 -217.5 573 -217.5s425.167 72.5 573.5 217.5s254.333 323.167 318 534.5s95.5 422.333 95.5 633c0 150 -16.333 302.667 -49 458s-87.167 302.5 -163.5 441.5s-178.833 251.833 -307.5 338.5s-284.334 130 -467.001 130
c-219.333 0 -403.333 -66 -552 -198s-258.334 -302.5 -329.001 -511.5s-106 -428.5 -106 -658.5z" />
    <glyph glyph-name="afii10033" unicode="&#xcf;" horiz-adv-x="3305" 
d="M274 2867h2818v-114h-233c-104 0 -156 -61.667 -156 -185v-2269c0 -122.667 52 -184 156 -184h233v-115h-1155v115h234c104 0 156 61.333 156 184v2269c0 123.333 -52 185 -156 185h-975c-104 0 -156 -61.667 -156 -185v-2269c0 -122.667 52 -184 156 -184h234v-115
h-1156v115h234c104 0 156 61.333 156 184v2269c0 123.333 -52 185 -156 185h-234v114z" />
    <glyph glyph-name="afii10033" unicode="&#x41f;" horiz-adv-x="3305" 
d="M274 2867h2818v-114h-233c-104 0 -156 -61.667 -156 -185v-2269c0 -122.667 52 -184 156 -184h233v-115h-1155v115h234c104 0 156 61.333 156 184v2269c0 123.333 -52 185 -156 185h-975c-104 0 -156 -61.667 -156 -185v-2269c0 -122.667 52 -184 156 -184h234v-115
h-1156v115h234c104 0 156 61.333 156 184v2269c0 123.333 -52 185 -156 185h-234v114z" />
    <glyph glyph-name="afii10034" unicode="&#xd0;" horiz-adv-x="2757" 
d="M274 2867h1049c187.333 0 373.333 -18.333 558 -55s350.167 -119.834 496.5 -249.5c146.333 -129.667 219.5 -320.167 219.5 -571.5c0 -262.667 -104 -473.167 -312 -631.5s-497.333 -237.5 -868 -237.5c-118 0 -242.333 11 -373 33v-856c0 -122.667 52 -184 156 -184
h316v-115h-1237v115h233c104 0 156 61.333 156 184v2269c0 123.333 -52 185 -156 185h-238v114zM1044 2662l0.000976562 -1384c94 -27.333 193.667 -41 299 -41c176 0 325.167 34.833 447.5 104.5s212.833 161.667 271.5 276s88 238.833 88 373.5
c0 110.667 -14 211.834 -42 303.5c-28 91.667 -71 172.167 -129 241.5s-132 122.833 -222 160.5s-195 56.5 -315 56.5c-142.667 0 -275.334 -30.333 -398.001 -91z" />
    <glyph glyph-name="afii10034" unicode="&#x420;" horiz-adv-x="2757" 
d="M274 2867h1049c187.333 0 373.333 -18.333 558 -55s350.167 -119.834 496.5 -249.5c146.333 -129.667 219.5 -320.167 219.5 -571.5c0 -262.667 -104 -473.167 -312 -631.5s-497.333 -237.5 -868 -237.5c-118 0 -242.333 11 -373 33v-856c0 -122.667 52 -184 156 -184
h316v-115h-1237v115h233c104 0 156 61.333 156 184v2269c0 123.333 -52 185 -156 185h-238v114zM1044 2662l0.000976562 -1384c94 -27.333 193.667 -41 299 -41c176 0 325.167 34.833 447.5 104.5s212.833 161.667 271.5 276s88 238.833 88 373.5
c0 110.667 -14 211.834 -42 303.5c-28 91.667 -71 172.167 -129 241.5s-132 122.833 -222 160.5s-195 56.5 -315 56.5c-142.667 0 -275.334 -30.333 -398.001 -91z" />
    <glyph glyph-name="afii10035" unicode="&#xd1;" horiz-adv-x="3047" 
d="M2552 2867l131 0.00390625l57 -782h-131l-8 98c-7.33301 92 -47.333 187 -120 285s-174.167 179.5 -304.5 244.5s-281.166 97.5 -452.499 97.5c-162 0 -305.333 -36.833 -430 -110.5s-228.5 -175.834 -311.5 -306.501s-145.333 -281.167 -187 -451.5
s-62.5 -351.833 -62.5 -544.5c0 -302 54.667 -550.833 164 -746.5s248.166 -337.334 416.499 -425.001s343.5 -131.5 525.5 -131.5c399.333 0 714.666 240.333 946 721l103 -53c-137.333 -300 -307.833 -511.5 -511.5 -634.5s-426.5 -184.5 -668.5 -184.5
c-204.667 0 -394.334 35.167 -569.001 105.5s-326.167 171.166 -454.5 302.499s-226.666 286.666 -294.999 465.999s-102.5 374 -102.5 584c0 246.667 51.667 487.167 155 721.5s263 426.666 479 577c216 150.333 483.667 225.5 803 225.5c338.667 0 616 -67 832 -201z" />
    <glyph glyph-name="afii10035" unicode="&#x421;" horiz-adv-x="3047" 
d="M2552 2867l131 0.00390625l57 -782h-131l-8 98c-7.33301 92 -47.333 187 -120 285s-174.167 179.5 -304.5 244.5s-281.166 97.5 -452.499 97.5c-162 0 -305.333 -36.833 -430 -110.5s-228.5 -175.834 -311.5 -306.501s-145.333 -281.167 -187 -451.5
s-62.5 -351.833 -62.5 -544.5c0 -302 54.667 -550.833 164 -746.5s248.166 -337.334 416.499 -425.001s343.5 -131.5 525.5 -131.5c399.333 0 714.666 240.333 946 721l103 -53c-137.333 -300 -307.833 -511.5 -511.5 -634.5s-426.5 -184.5 -668.5 -184.5
c-204.667 0 -394.334 35.167 -569.001 105.5s-326.167 171.166 -454.5 302.499s-226.666 286.666 -294.999 465.999s-102.5 374 -102.5 584c0 246.667 51.667 487.167 155 721.5s263 426.666 479 577c216 150.333 483.667 225.5 803 225.5c338.667 0 616 -67 832 -201z" />
    <glyph glyph-name="afii10036" unicode="&#xd2;" horiz-adv-x="2793" 
d="M156 2867h2539v-639h-131v94c0 77.333 -41 149.333 -123 216s-183.167 119.167 -303.5 157.5s-232.166 57.5 -335.499 57.5c-125.333 0 -188 -26 -188 -78v-2376c0 -122.667 51.667 -184 155 -184h234v-115h-1155v115h233c104 0 156 61.333 156 184v2376
c0 52 -62.667 78 -188 78c-104.667 0 -217 -19.167 -337 -57.5s-220.833 -90.666 -302.5 -157c-81.667 -66.333 -122.5 -138.5 -122.5 -216.5v-94h-131v639z" />
    <glyph glyph-name="afii10036" unicode="&#x422;" horiz-adv-x="2793" 
d="M156 2867h2539v-639h-131v94c0 77.333 -41 149.333 -123 216s-183.167 119.167 -303.5 157.5s-232.166 57.5 -335.499 57.5c-125.333 0 -188 -26 -188 -78v-2376c0 -122.667 51.667 -184 155 -184h234v-115h-1155v115h233c104 0 156 61.333 156 184v2376
c0 52 -62.667 78 -188 78c-104.667 0 -217 -19.167 -337 -57.5s-220.833 -90.666 -302.5 -157c-81.667 -66.333 -122.5 -138.5 -122.5 -216.5v-94h-131v639z" />
    <glyph glyph-name="afii10037" unicode="&#xd3;" horiz-adv-x="3183" 
d="M229 2867h1082v-114h-213c-54.667 0 -82 -27.333 -82 -82c0 -22.667 4 -40.667 12 -54l823 -1589c151.333 297.333 271 541.166 359 731.499s155.333 346 202 467s76.834 211.333 90.5 271c13.667 59.667 20.5 109.167 20.5 148.5c0 71.333 -39.667 107 -119 107h-209
v114h889v-114h-131c-52 -30 -101.833 -75.5 -149.5 -136.5s-99.334 -144.5 -155.001 -250.5s-144.5 -287 -266.5 -543l-293 -611c-147.333 -302 -252.666 -513.333 -315.999 -634s-133 -231.167 -209 -331.5s-160.167 -176 -252.5 -227s-201.833 -76.5 -328.5 -76.5
c-88.667 0 -167.667 16.833 -237 50.5s-123 79 -161 136s-57 118.833 -57 185.5c0 72.667 23.5 131.167 70.5 175.5s101.5 66.5 163.5 66.5c63.333 0 116 -19.333 158 -58s63 -90.334 63 -155.001c0 -30.667 -4 -60.667 -12 -90c-8.66699 -27.333 -13 -50.666 -13 -69.999
c0 -24.667 12.833 -48.5 38.5 -71.5s59.5 -34.5 101.5 -34.5c86 0 176 44.333 270 133s184 224.334 270 407.001l-1011 1926c-71.333 139.333 -175.333 209 -312 209h-86v114z" />
    <glyph glyph-name="afii10037" unicode="&#x423;" horiz-adv-x="3183" 
d="M229 2867h1082v-114h-213c-54.667 0 -82 -27.333 -82 -82c0 -22.667 4 -40.667 12 -54l823 -1589c151.333 297.333 271 541.166 359 731.499s155.333 346 202 467s76.834 211.333 90.5 271c13.667 59.667 20.5 109.167 20.5 148.5c0 71.333 -39.667 107 -119 107h-209
v114h889v-114h-131c-52 -30 -101.833 -75.5 -149.5 -136.5s-99.334 -144.5 -155.001 -250.5s-144.5 -287 -266.5 -543l-293 -611c-147.333 -302 -252.666 -513.333 -315.999 -634s-133 -231.167 -209 -331.5s-160.167 -176 -252.5 -227s-201.833 -76.5 -328.5 -76.5
c-88.667 0 -167.667 16.833 -237 50.5s-123 79 -161 136s-57 118.833 -57 185.5c0 72.667 23.5 131.167 70.5 175.5s101.5 66.5 163.5 66.5c63.333 0 116 -19.333 158 -58s63 -90.334 63 -155.001c0 -30.667 -4 -60.667 -12 -90c-8.66699 -27.333 -13 -50.666 -13 -69.999
c0 -24.667 12.833 -48.5 38.5 -71.5s59.5 -34.5 101.5 -34.5c86 0 176 44.333 270 133s184 224.334 270 407.001l-1011 1926c-71.333 139.333 -175.333 209 -312 209h-86v114z" />
    <glyph glyph-name="afii10038" unicode="&#xd4;" horiz-adv-x="3953" 
d="M1434 3031h1155v-115h-234c-103.333 0 -155 -61.333 -155 -184v-98c54 5.33301 131.667 8 233 8c336.667 0 602.334 -60.667 797.001 -182s327.667 -267.333 399 -438s107 -342.334 107 -515.001c0 -298 -71.833 -529.833 -215.5 -695.5s-315.5 -277.5 -515.5 -335.5
s-404.333 -87 -613 -87c-57.333 0 -121.333 2.66699 -192 8v-98c0 -122.667 51.667 -184 155 -184h234v-115h-1155v115h233c104 0 156 61.333 156 184v98c-72 -5.33301 -136.333 -8 -193 -8c-208.667 0 -412.834 29 -612.501 87s-371.334 169.833 -515.001 335.5
s-215.5 397.5 -215.5 695.5c0 172.667 35.5 344.334 106.5 515.001s203.833 316.667 398.5 438s460.334 182 797.001 182c101.333 0 179.333 -2.66699 234 -8v98c0 122.667 -52 184 -156 184h-233v115zM1823 512l-0.000976562 2007c-65.333 5.33301 -114.666 8 -147.999 8
c-162.667 0 -315.5 -33.167 -458.5 -99.5s-259.333 -175.666 -349 -328c-89.667 -152.333 -134.5 -348.5 -134.5 -588.5c0 -344.667 93.833 -598.667 281.5 -762s410.5 -245 668.5 -245c33.333 0 80 2.66699 140 8zM2200 2519l0.000976562 -2007
c60 -5.33301 106.333 -8 139 -8c162.667 0 315.834 33.5 459.5 100.5c143.667 67 261.334 176.167 353 327.5c91.667 151.333 137.5 344.333 137.5 579c0 240 -44.833 436.167 -134.5 588.5s-205.834 261.666 -348.501 328c-142.667 66.333 -295.667 99.5 -459 99.5
c-32.667 0 -81.667 -2.66699 -147 -8z" />
    <glyph glyph-name="afii10038" unicode="&#x424;" horiz-adv-x="3953" 
d="M1434 3031h1155v-115h-234c-103.333 0 -155 -61.333 -155 -184v-98c54 5.33301 131.667 8 233 8c336.667 0 602.334 -60.667 797.001 -182s327.667 -267.333 399 -438s107 -342.334 107 -515.001c0 -298 -71.833 -529.833 -215.5 -695.5s-315.5 -277.5 -515.5 -335.5
s-404.333 -87 -613 -87c-57.333 0 -121.333 2.66699 -192 8v-98c0 -122.667 51.667 -184 155 -184h234v-115h-1155v115h233c104 0 156 61.333 156 184v98c-72 -5.33301 -136.333 -8 -193 -8c-208.667 0 -412.834 29 -612.501 87s-371.334 169.833 -515.001 335.5
s-215.5 397.5 -215.5 695.5c0 172.667 35.5 344.334 106.5 515.001s203.833 316.667 398.5 438s460.334 182 797.001 182c101.333 0 179.333 -2.66699 234 -8v98c0 122.667 -52 184 -156 184h-233v115zM1823 512l-0.000976562 2007c-65.333 5.33301 -114.666 8 -147.999 8
c-162.667 0 -315.5 -33.167 -458.5 -99.5s-259.333 -175.666 -349 -328c-89.667 -152.333 -134.5 -348.5 -134.5 -588.5c0 -344.667 93.833 -598.667 281.5 -762s410.5 -245 668.5 -245c33.333 0 80 2.66699 140 8zM2200 2519l0.000976562 -2007
c60 -5.33301 106.333 -8 139 -8c162.667 0 315.834 33.5 459.5 100.5c143.667 67 261.334 176.167 353 327.5c91.667 151.333 137.5 344.333 137.5 579c0 240 -44.833 436.167 -134.5 588.5s-205.834 261.666 -348.501 328c-142.667 66.333 -295.667 99.5 -459 99.5
c-32.667 0 -81.667 -2.66699 -147 -8z" />
    <glyph glyph-name="afii10039" unicode="&#xd5;" horiz-adv-x="3121" 
d="M229 2867l1131 0.00292969v-114h-258c-54.667 0 -82 -23.333 -82 -70c0 -20.667 23.333 -65.667 70 -135l565 -860c70 87.333 198.333 260.666 385 519.999c164 228.667 246 381.334 246 458c0 58 -50.667 87 -152 87h-197v114h1016v-114h-90
c-72.667 0 -150.167 -31.167 -232.5 -93.5s-175.166 -154.666 -278.5 -277c-103.333 -122.333 -237.333 -292.5 -402 -510.5l-117 -157l-104 -138l679 -1020c107.333 -160 197.833 -273.667 271.5 -341s174.5 -101 302.5 -101v-115h-1118v115h233c44 0 72.667 20.333 86 61
v45c-3.33301 12 -19.666 39.333 -49 82l-643 963c-472.667 -620 -709 -976.333 -709 -1069c0 -54.667 33 -82 99 -82h221v-115h-905v115c102 25.333 196.5 72.166 283.5 140.499s175 156.166 264 263.499s240.833 300.333 455.5 579l97.5 122l119.5 152l-684 1032
c-76.667 116.667 -152.167 203.5 -226.5 260.5s-166.833 86.5 -277.5 88.5v114z" />
    <glyph glyph-name="afii10039" unicode="&#x425;" horiz-adv-x="3121" 
d="M229 2867l1131 0.00292969v-114h-258c-54.667 0 -82 -23.333 -82 -70c0 -20.667 23.333 -65.667 70 -135l565 -860c70 87.333 198.333 260.666 385 519.999c164 228.667 246 381.334 246 458c0 58 -50.667 87 -152 87h-197v114h1016v-114h-90
c-72.667 0 -150.167 -31.167 -232.5 -93.5s-175.166 -154.666 -278.5 -277c-103.333 -122.333 -237.333 -292.5 -402 -510.5l-117 -157l-104 -138l679 -1020c107.333 -160 197.833 -273.667 271.5 -341s174.5 -101 302.5 -101v-115h-1118v115h233c44 0 72.667 20.333 86 61
v45c-3.33301 12 -19.666 39.333 -49 82l-643 963c-472.667 -620 -709 -976.333 -709 -1069c0 -54.667 33 -82 99 -82h221v-115h-905v115c102 25.333 196.5 72.166 283.5 140.499s175 156.166 264 263.499s240.833 300.333 455.5 579l97.5 122l119.5 152l-684 1032
c-76.667 116.667 -152.167 203.5 -226.5 260.5s-166.833 86.5 -277.5 88.5v114z" />
    <glyph glyph-name="afii10040" unicode="&#xd6;" horiz-adv-x="3305" 
d="M274 2867l1156 -0.000976562v-114h-234c-104 0 -156 -61.667 -156 -185v-2269c0 -122.667 52 -184 156 -184h975c104 0 156 61.333 156 184v2269c0 123.333 -52 185 -156 185h-234v114h1155v-114h-233c-104 0 -156 -61.667 -156 -185v-2208
c0 -66.667 16.333 -124.167 49 -172.5s109.334 -72.5 230 -72.5h250v-746h-131v160c0 77.333 -29.5 146 -88.5 206s-135.333 109.333 -229 148s-194.167 67.834 -301.5 87.501s-208.333 29.5 -303 29.5h-1905v115h234c104 0 156 61.333 156 184v2269
c0 123.333 -52 185 -156 185h-234v114z" />
    <glyph glyph-name="afii10040" unicode="&#x426;" horiz-adv-x="3305" 
d="M274 2867l1156 -0.000976562v-114h-234c-104 0 -156 -61.667 -156 -185v-2269c0 -122.667 52 -184 156 -184h975c104 0 156 61.333 156 184v2269c0 123.333 -52 185 -156 185h-234v114h1155v-114h-233c-104 0 -156 -61.667 -156 -185v-2208
c0 -66.667 16.333 -124.167 49 -172.5s109.334 -72.5 230 -72.5h250v-746h-131v160c0 77.333 -29.5 146 -88.5 206s-135.333 109.333 -229 148s-194.167 67.834 -301.5 87.501s-208.333 29.5 -303 29.5h-1905v115h234c104 0 156 61.333 156 184v2269
c0 123.333 -52 185 -156 185h-234v114z" />
    <glyph glyph-name="afii10041" unicode="&#xd7;" horiz-adv-x="3097" 
d="M139 2867l1155 -0.000976562v-114h-233c-104 0 -156 -61.667 -156 -185v-831c0 -86.667 13.333 -160.667 40 -222s74 -109.333 142 -144s161.667 -52 281 -52c122 0 253 12.833 393 38.5s259 57.834 357 96.501v1114c0 123.333 -52 185 -156 185h-233v114h1155v-114h-234
c-104 0 -156 -61.667 -156 -185v-2269c0 -122.667 52 -184 156 -184h234v-115h-1237v115h315c104 0 156 61.333 156 184v1040c-270.667 -114.667 -541 -172 -811 -172c-325.333 0 -536.5 65 -633.5 195s-145.5 264.333 -145.5 403v803c0 123.333 -51.667 185 -155 185h-234
v114z" />
    <glyph glyph-name="afii10041" unicode="&#x427;" horiz-adv-x="3097" 
d="M139 2867l1155 -0.000976562v-114h-233c-104 0 -156 -61.667 -156 -185v-831c0 -86.667 13.333 -160.667 40 -222s74 -109.333 142 -144s161.667 -52 281 -52c122 0 253 12.833 393 38.5s259 57.834 357 96.501v1114c0 123.333 -52 185 -156 185h-233v114h1155v-114h-234
c-104 0 -156 -61.667 -156 -185v-2269c0 -122.667 52 -184 156 -184h234v-115h-1237v115h315c104 0 156 61.333 156 184v1040c-270.667 -114.667 -541 -172 -811 -172c-325.333 0 -536.5 65 -633.5 195s-145.5 264.333 -145.5 403v803c0 123.333 -51.667 185 -155 185h-234
v114z" />
    <glyph glyph-name="afii10042" unicode="&#xd8;" horiz-adv-x="4657" 
d="M274 2867h1127v-114h-205c-104 0 -156 -61.667 -156 -185v-2269c0 -122.667 52 -184 156 -184h819c104 0 156 61.333 156 184v2269c0 123.333 -52 185 -156 185h-205v114h1098v-114h-205c-103.333 0 -155 -61.667 -155 -185v-2269c0 -122.667 51.667 -184 155 -184h820
c103.333 0 155 61.333 155 184v2269c0 123.333 -51.667 185 -155 185h-205v114h1126v-114h-233c-104 0 -156 -61.667 -156 -185v-2269c0 -122.667 52 -184 156 -184h233v-115h-4170v115h234c104 0 156 61.333 156 184v2269c0 123.333 -52 185 -156 185h-234v114z" />
    <glyph glyph-name="afii10042" unicode="&#x428;" horiz-adv-x="4657" 
d="M274 2867h1127v-114h-205c-104 0 -156 -61.667 -156 -185v-2269c0 -122.667 52 -184 156 -184h819c104 0 156 61.333 156 184v2269c0 123.333 -52 185 -156 185h-205v114h1098v-114h-205c-103.333 0 -155 -61.667 -155 -185v-2269c0 -122.667 51.667 -184 155 -184h820
c103.333 0 155 61.333 155 184v2269c0 123.333 -51.667 185 -155 185h-205v114h1126v-114h-233c-104 0 -156 -61.667 -156 -185v-2269c0 -122.667 52 -184 156 -184h233v-115h-4170v115h234c104 0 156 61.333 156 184v2269c0 123.333 -52 185 -156 185h-234v114z" />
    <glyph glyph-name="afii10043" unicode="&#xd9;" horiz-adv-x="4657" 
d="M3318 2867l1126 -0.000976562v-114h-233c-104 0 -156 -61.667 -156 -185v-2208c0 -66.667 16.333 -124.167 49 -172.5c32.666 -48.333 109.333 -72.5 230 -72.5h249v-746h-131v180c0 86 -46.166 163.333 -138.5 232s-210.667 122.334 -355 161.001s-286.833 58 -427.5 58
h-3257v115h234c104 0 156 61.333 156 184v2269c0 123.333 -52 185 -156 185h-234v114h1127v-114h-205c-104 0 -156 -61.667 -156 -185v-2269c0 -122.667 52 -184 156 -184h819c104 0 156 61.333 156 184v2269c0 123.333 -52 185 -156 185h-205v114h1098v-114h-205
c-103.333 0 -155 -61.667 -155 -185v-2269c0 -122.667 51.667 -184 155 -184h820c103.333 0 155 61.333 155 184v2269c0 123.333 -51.667 185 -155 185h-205v114z" />
    <glyph glyph-name="afii10043" unicode="&#x429;" horiz-adv-x="4657" 
d="M3318 2867l1126 -0.000976562v-114h-233c-104 0 -156 -61.667 -156 -185v-2208c0 -66.667 16.333 -124.167 49 -172.5c32.666 -48.333 109.333 -72.5 230 -72.5h249v-746h-131v180c0 86 -46.166 163.333 -138.5 232s-210.667 122.334 -355 161.001s-286.833 58 -427.5 58
h-3257v115h234c104 0 156 61.333 156 184v2269c0 123.333 -52 185 -156 185h-234v114h1127v-114h-205c-104 0 -156 -61.667 -156 -185v-2269c0 -122.667 52 -184 156 -184h819c104 0 156 61.333 156 184v2269c0 123.333 -52 185 -156 185h-205v114h1098v-114h-205
c-103.333 0 -155 -61.667 -155 -185v-2269c0 -122.667 51.667 -184 155 -184h820c103.333 0 155 61.333 155 184v2269c0 123.333 -51.667 185 -155 185h-205v114z" />
    <glyph glyph-name="afii10044" unicode="&#xda;" horiz-adv-x="3195" 
d="M1880 0h-1221v115h234c104 0 156 61.333 156 184v2318c0 56.667 -17.833 93.5 -53.5 110.5s-98.5 25.5 -188.5 25.5c-145.333 0 -282.5 -40.667 -411.5 -122s-196.5 -178.666 -202.5 -291.999l-5 -90h-131l37 618h1721v-114h-234c-104 0 -156 -61.667 -156 -185v-876
c175.333 32.667 334 49 476 49c232.667 0 432.834 -38 600.5 -114c167.667 -76 294.5 -181.667 380.5 -317s129 -292 129 -470c0 -192.667 -42.333 -347.834 -127 -465.501s-189.167 -203 -313.5 -256s-243.5 -86 -357.5 -99s-225 -19.5 -333 -19.5zM1425 1577
l0.000976562 -1368c141.333 -62.667 276.666 -94 405.999 -94c222 0 399 66 531 198s198 320 198 564c0 290.667 -79 485.5 -237 584.5s-337 148.5 -537 148.5c-132.667 0 -253 -11 -361 -33z" />
    <glyph glyph-name="afii10044" unicode="&#x42a;" horiz-adv-x="3195" 
d="M1880 0h-1221v115h234c104 0 156 61.333 156 184v2318c0 56.667 -17.833 93.5 -53.5 110.5s-98.5 25.5 -188.5 25.5c-145.333 0 -282.5 -40.667 -411.5 -122s-196.5 -178.666 -202.5 -291.999l-5 -90h-131l37 618h1721v-114h-234c-104 0 -156 -61.667 -156 -185v-876
c175.333 32.667 334 49 476 49c232.667 0 432.834 -38 600.5 -114c167.667 -76 294.5 -181.667 380.5 -317s129 -292 129 -470c0 -192.667 -42.333 -347.834 -127 -465.501s-189.167 -203 -313.5 -256s-243.5 -86 -357.5 -99s-225 -19.5 -333 -19.5zM1425 1577
l0.000976562 -1368c141.333 -62.667 276.666 -94 405.999 -94c222 0 399 66 531 198s198 320 198 564c0 290.667 -79 485.5 -237 584.5s-337 148.5 -537 148.5c-132.667 0 -253 -11 -361 -33z" />
    <glyph glyph-name="afii10045" unicode="&#xdb;" horiz-adv-x="4141" 
d="M274 2867l1156 0.000976562v-114h-234c-104 0 -156 -61.667 -156 -185v-876c175.333 32.667 334 49 476 49c232.667 0 432.834 -38 600.501 -114s294.5 -181.667 380.5 -317s129 -292 129 -470c0 -192.667 -42.333 -347.834 -127 -465.501s-189.167 -203 -313.5 -256
s-243.5 -86 -357.5 -99s-225 -19.5 -333 -19.5h-1221v115h234c104 0 156 61.333 156 184v2269c0 123.333 -52 185 -156 185h-234v114zM1040 1577l0.000976562 -1368c141.333 -62.667 276.666 -94 405.999 -94c222 0 399 66 531 198s198 320 198 564
c0 290.667 -79 485.5 -237 584.5s-337 148.5 -537 148.5c-132.667 0 -253 -11 -361 -33zM2773 2867h1155v-114h-233c-104 0 -156 -61.667 -156 -185v-2269c0 -122.667 52 -184 156 -184h233v-115h-1155v115h233c104 0 156 61.333 156 184v2269c0 123.333 -52 185 -156 185
h-233v114z" />
    <glyph glyph-name="afii10045" unicode="&#x42b;" horiz-adv-x="4141" 
d="M274 2867l1156 0.000976562v-114h-234c-104 0 -156 -61.667 -156 -185v-876c175.333 32.667 334 49 476 49c232.667 0 432.834 -38 600.501 -114s294.5 -181.667 380.5 -317s129 -292 129 -470c0 -192.667 -42.333 -347.834 -127 -465.501s-189.167 -203 -313.5 -256
s-243.5 -86 -357.5 -99s-225 -19.5 -333 -19.5h-1221v115h234c104 0 156 61.333 156 184v2269c0 123.333 -52 185 -156 185h-234v114zM1040 1577l0.000976562 -1368c141.333 -62.667 276.666 -94 405.999 -94c222 0 399 66 531 198s198 320 198 564
c0 290.667 -79 485.5 -237 584.5s-337 148.5 -537 148.5c-132.667 0 -253 -11 -361 -33zM2773 2867h1155v-114h-233c-104 0 -156 -61.667 -156 -185v-2269c0 -122.667 52 -184 156 -184h233v-115h-1155v115h233c104 0 156 61.333 156 184v2269c0 123.333 -52 185 -156 185
h-233v114z" />
    <glyph glyph-name="afii10046" unicode="&#xdc;" horiz-adv-x="2810" 
d="M274 2867l1156 0.000976562v-114h-234c-104 0 -156 -61.667 -156 -185v-876c175.333 32.667 334 49 476 49c232.667 0 432.834 -38 600.501 -114s294.5 -181.667 380.5 -317s129 -292 129 -470c0 -192.667 -42.333 -347.834 -127 -465.501s-189.167 -203 -313.5 -256
s-243.5 -86 -357.5 -99s-225 -19.5 -333 -19.5h-1221v115h234c104 0 156 61.333 156 184v2269c0 123.333 -52 185 -156 185h-234v114zM1040 1577l0.000976562 -1368c141.333 -62.667 276.666 -94 405.999 -94c222 0 399 66 531 198s198 320 198 564
c0 290.667 -79 485.5 -237 584.5s-337 148.5 -537 148.5c-132.667 0 -253 -11 -361 -33z" />
    <glyph glyph-name="afii10046" unicode="&#x42c;" horiz-adv-x="2810" 
d="M274 2867l1156 0.000976562v-114h-234c-104 0 -156 -61.667 -156 -185v-876c175.333 32.667 334 49 476 49c232.667 0 432.834 -38 600.501 -114s294.5 -181.667 380.5 -317s129 -292 129 -470c0 -192.667 -42.333 -347.834 -127 -465.501s-189.167 -203 -313.5 -256
s-243.5 -86 -357.5 -99s-225 -19.5 -333 -19.5h-1221v115h234c104 0 156 61.333 156 184v2269c0 123.333 -52 185 -156 185h-234v114zM1040 1577l0.000976562 -1368c141.333 -62.667 276.666 -94 405.999 -94c222 0 399 66 531 198s198 320 198 564
c0 290.667 -79 485.5 -237 584.5s-337 148.5 -537 148.5c-132.667 0 -253 -11 -361 -33z" />
    <glyph glyph-name="afii10047" unicode="&#xdd;" horiz-adv-x="3002" 
d="M1712 1548l622.997 -0.00195312c0 141.333 -11.833 282.833 -35.5 424.5s-66.667 276.334 -129 404c-62.333 127.667 -152.166 231.834 -269.499 312.5c-117.333 80.667 -263.666 121 -438.999 121c-144 0 -281 -26 -411 -78s-236.167 -121.667 -318.5 -209
s-128.5 -181.333 -138.5 -282l-8 -87h-156l49 713h160l-8 -102c236.667 106.667 492 160 766 160c286 0 534 -57.167 744 -171.5s369.833 -276.666 479.5 -487c109.667 -210.333 164.5 -456.5 164.5 -738.5c0 -291.333 -58.833 -557.666 -176.5 -798.999
s-290 -432.666 -517 -573.999s-495.5 -212 -805.5 -212c-221.333 0 -408.166 29.833 -560.499 89.5s-265.666 135 -339.999 226s-111.5 182.167 -111.5 273.5c0 90.667 23.833 159.167 71.5 205.5s104.5 69.5 170.5 69.5c75.333 0 132.333 -24 171 -72s58 -104.667 58 -170
c0 -27.333 -10.667 -68.333 -32 -123c-24.667 -52 -37 -87.333 -37 -106c0 -48 25.667 -93.667 77 -137s122.666 -77.833 213.999 -103.5s195 -38.5 311 -38.5c247.333 0 450.333 68 609 204s273 309 343 519s105 428 105 654h-623c-274 0 -544.333 -31.667 -811 -95v295
c292 -57.333 562.333 -86 811 -86z" />
    <glyph glyph-name="afii10047" unicode="&#x42d;" horiz-adv-x="3002" 
d="M1712 1548l622.997 -0.00195312c0 141.333 -11.833 282.833 -35.5 424.5s-66.667 276.334 -129 404c-62.333 127.667 -152.166 231.834 -269.499 312.5c-117.333 80.667 -263.666 121 -438.999 121c-144 0 -281 -26 -411 -78s-236.167 -121.667 -318.5 -209
s-128.5 -181.333 -138.5 -282l-8 -87h-156l49 713h160l-8 -102c236.667 106.667 492 160 766 160c286 0 534 -57.167 744 -171.5s369.833 -276.666 479.5 -487c109.667 -210.333 164.5 -456.5 164.5 -738.5c0 -291.333 -58.833 -557.666 -176.5 -798.999
s-290 -432.666 -517 -573.999s-495.5 -212 -805.5 -212c-221.333 0 -408.166 29.833 -560.499 89.5s-265.666 135 -339.999 226s-111.5 182.167 -111.5 273.5c0 90.667 23.833 159.167 71.5 205.5s104.5 69.5 170.5 69.5c75.333 0 132.333 -24 171 -72s58 -104.667 58 -170
c0 -27.333 -10.667 -68.333 -32 -123c-24.667 -52 -37 -87.333 -37 -106c0 -48 25.667 -93.667 77 -137s122.666 -77.833 213.999 -103.5s195 -38.5 311 -38.5c247.333 0 450.333 68 609 204s273 309 343 519s105 428 105 654h-623c-274 0 -544.333 -31.667 -811 -95v295
c292 -57.333 562.333 -86 811 -86z" />
    <glyph glyph-name="afii10048" unicode="&#xde;" horiz-adv-x="4559" 
d="M1040 1556l442.998 -0.000976562c13.333 178.667 53.833 349.834 121.5 513.501s162 310 283 439s268.667 230.667 443 305s368.166 111.5 581.5 111.5c222.667 0 423.334 -39.667 602 -119c178.667 -79.333 330.167 -188.666 454.5 -328
c124.333 -139.333 218.333 -297.833 282 -475.5c63.666 -177.667 95.5 -364.5 95.5 -560.5c0 -198 -32.166 -387.667 -96.5 -569c-64.333 -181.333 -158.5 -341.666 -282.5 -480.999s-275.5 -249 -454.5 -329s-379.167 -120 -600.5 -120c-348 0 -641.333 94 -880 282
c-113.333 89.333 -211.666 197.666 -294.999 324.999s-147.166 267 -191.499 419s-66.5 309.667 -66.5 473h-439v-1143c0 -122.667 52 -184 156 -184h234v-115h-1156v115h234c104 0 156 61.333 156 184v2269c0 123.333 -52 185 -156 185h-234v114h1156v-114h-234
c-104 0 -156 -61.667 -156 -185v-1012zM1925 1442c0 -152 16.832 -307.501 50.499 -466.501s89.167 -308.667 166.501 -449c77.333 -140.333 180 -253.666 308 -339.999s282 -129.5 462 -129.5c234 0 425.167 72.5 573.5 217.5s254.333 323.167 318 534.5
s95.5 422.333 95.5 633c0 230 -35.167 449.5 -105.5 658.5s-180 379.5 -329 511.5s-333.167 198 -552.5 198s-403.333 -66 -552 -198s-258.334 -302.5 -329 -511.5c-70.667 -209 -106 -428.5 -106 -658.5z" />
    <glyph glyph-name="afii10048" unicode="&#x42e;" horiz-adv-x="4559" 
d="M1040 1556l442.998 -0.000976562c13.333 178.667 53.833 349.834 121.5 513.501s162 310 283 439s268.667 230.667 443 305s368.166 111.5 581.5 111.5c222.667 0 423.334 -39.667 602 -119c178.667 -79.333 330.167 -188.666 454.5 -328
c124.333 -139.333 218.333 -297.833 282 -475.5c63.666 -177.667 95.5 -364.5 95.5 -560.5c0 -198 -32.166 -387.667 -96.5 -569c-64.333 -181.333 -158.5 -341.666 -282.5 -480.999s-275.5 -249 -454.5 -329s-379.167 -120 -600.5 -120c-348 0 -641.333 94 -880 282
c-113.333 89.333 -211.666 197.666 -294.999 324.999s-147.166 267 -191.499 419s-66.5 309.667 -66.5 473h-439v-1143c0 -122.667 52 -184 156 -184h234v-115h-1156v115h234c104 0 156 61.333 156 184v2269c0 123.333 -52 185 -156 185h-234v114h1156v-114h-234
c-104 0 -156 -61.667 -156 -185v-1012zM1925 1442c0 -152 16.832 -307.501 50.499 -466.501s89.167 -308.667 166.501 -449c77.333 -140.333 180 -253.666 308 -339.999s282 -129.5 462 -129.5c234 0 425.167 72.5 573.5 217.5s254.333 323.167 318 534.5
s95.5 422.333 95.5 633c0 230 -35.167 449.5 -105.5 658.5s-180 379.5 -329 511.5s-333.167 198 -552.5 198s-403.333 -66 -552 -198s-258.334 -302.5 -329 -511.5c-70.667 -209 -106 -428.5 -106 -658.5z" />
    <glyph glyph-name="afii10049" unicode="&#xdf;" horiz-adv-x="3015" 
d="M2802 0h-1155v115h233c104 0 156 61.333 156 184v1094c-146.667 -2.66699 -271.667 -26.834 -375 -72.501s-186.5 -102.834 -249.5 -171.501s-109.667 -131.834 -140 -189.501s-71.833 -145.5 -124.5 -263.5c-96 -217.333 -200.667 -397.166 -314 -539.499
s-249 -213.5 -407 -213.5c-98 0 -179.167 29.333 -243.5 88s-96.5 137 -96.5 235v62h111c0 -134 35.333 -201 106 -201c43.333 0 80.666 24.333 111.999 73s78.666 137.667 141.999 267c73.333 154.667 144.166 286.334 212.499 395.001s163.333 211.5 285 308.5
s269.834 162.833 444.501 197.5v25c-11.333 0 -27.333 -0.666992 -48 -2s-36 -2 -46 -2c-184.667 0 -351.334 31.833 -500.001 95.5s-265 152.334 -349 266.001s-126 241.5 -126 383.5c0 222 68.833 387 206.5 495s290.167 174.667 457.5 200s348.666 38 543.999 38h1164
v-114h-234c-103.333 0 -155 -61.667 -155 -185v-2269c0 -122.667 51.667 -184 155 -184h234v-115zM2036 1507l-0.000976562 1188c-150.667 38.667 -322.667 58 -516 58c-163.333 0 -294.833 -33 -394.5 -99s-170.167 -148.333 -211.5 -247s-62 -200.667 -62 -306
c0 -172 47.5 -303.5 142.5 -394.5s204.333 -150.333 328 -178s250.834 -41.5 381.501 -41.5c139.333 0 250 6.66699 332 20z" />
    <glyph glyph-name="afii10049" unicode="&#x42f;" horiz-adv-x="3015" 
d="M2802 0h-1155v115h233c104 0 156 61.333 156 184v1094c-146.667 -2.66699 -271.667 -26.834 -375 -72.501s-186.5 -102.834 -249.5 -171.501s-109.667 -131.834 -140 -189.501s-71.833 -145.5 -124.5 -263.5c-96 -217.333 -200.667 -397.166 -314 -539.499
s-249 -213.5 -407 -213.5c-98 0 -179.167 29.333 -243.5 88s-96.5 137 -96.5 235v62h111c0 -134 35.333 -201 106 -201c43.333 0 80.666 24.333 111.999 73s78.666 137.667 141.999 267c73.333 154.667 144.166 286.334 212.499 395.001s163.333 211.5 285 308.5
s269.834 162.833 444.501 197.5v25c-11.333 0 -27.333 -0.666992 -48 -2s-36 -2 -46 -2c-184.667 0 -351.334 31.833 -500.001 95.5s-265 152.334 -349 266.001s-126 241.5 -126 383.5c0 222 68.833 387 206.5 495s290.167 174.667 457.5 200s348.666 38 543.999 38h1164
v-114h-234c-103.333 0 -155 -61.667 -155 -185v-2269c0 -122.667 51.667 -184 155 -184h234v-115zM2036 1507l-0.000976562 1188c-150.667 38.667 -322.667 58 -516 58c-163.333 0 -294.833 -33 -394.5 -99s-170.167 -148.333 -211.5 -247s-62 -200.667 -62 -306
c0 -172 47.5 -303.5 142.5 -394.5s204.333 -150.333 328 -178s250.834 -41.5 381.501 -41.5c139.333 0 250 6.66699 332 20z" />
    <glyph glyph-name="afii10065" unicode="&#xe0;" horiz-adv-x="1917" 
d="M1249 1130l-0.00292969 212.999c0 91.333 -8.66699 172.333 -26 243s-59.166 131.834 -125.499 183.501s-165.833 77.5 -298.5 77.5c-94.667 0 -158 -14.167 -190 -42.5s-48 -56.5 -48 -84.5c0 -16.667 2.66699 -38.334 8 -65.001c8.66699 -28 13 -56.667 13 -86
c0 -60 -18 -105 -54 -135s-79.667 -45 -131 -45c-55.333 0 -98.5 19.5 -129.5 58.5s-46.5 84.833 -46.5 137.5c0 91.333 46.833 172.833 140.5 244.5s235.167 107.5 424.5 107.5c516.667 0 775 -198 775 -594v-1069c0 -106 30 -159 90 -159c63.333 0 113.666 53 150.999 159
l90 -36c-22 -70 -60.667 -134.667 -116 -194s-134 -89 -236 -89c-107.333 0 -182.666 37.5 -225.999 112.5s-65 156.167 -65 243.5c-195.333 -237.333 -423.333 -356 -684 -356c-133.333 0 -239 38 -317 114s-117 173 -117 291c0 114.667 29.5 215 88.5 301
s139.333 158.333 241 217s217.334 107.834 347.001 147.501s276.834 74.5 441.501 104.5zM1249 429.999v610c-207.333 -39.333 -366.5 -91.833 -477.5 -157.5s-186.167 -136.667 -225.5 -213s-59 -157.5 -59 -243.5c0 -98 23.167 -174.333 69.5 -229s107.833 -82 184.5 -82
c156.667 0 326 105 508 315z" />
    <glyph glyph-name="afii10065" unicode="&#x430;" horiz-adv-x="1917" 
d="M1249 1130l-0.00292969 212.999c0 91.333 -8.66699 172.333 -26 243s-59.166 131.834 -125.499 183.501s-165.833 77.5 -298.5 77.5c-94.667 0 -158 -14.167 -190 -42.5s-48 -56.5 -48 -84.5c0 -16.667 2.66699 -38.334 8 -65.001c8.66699 -28 13 -56.667 13 -86
c0 -60 -18 -105 -54 -135s-79.667 -45 -131 -45c-55.333 0 -98.5 19.5 -129.5 58.5s-46.5 84.833 -46.5 137.5c0 91.333 46.833 172.833 140.5 244.5s235.167 107.5 424.5 107.5c516.667 0 775 -198 775 -594v-1069c0 -106 30 -159 90 -159c63.333 0 113.666 53 150.999 159
l90 -36c-22 -70 -60.667 -134.667 -116 -194s-134 -89 -236 -89c-107.333 0 -182.666 37.5 -225.999 112.5s-65 156.167 -65 243.5c-195.333 -237.333 -423.333 -356 -684 -356c-133.333 0 -239 38 -317 114s-117 173 -117 291c0 114.667 29.5 215 88.5 301
s139.333 158.333 241 217s217.334 107.834 347.001 147.501s276.834 74.5 441.501 104.5zM1249 429.999v610c-207.333 -39.333 -366.5 -91.833 -477.5 -157.5s-186.167 -136.667 -225.5 -213s-59 -157.5 -59 -243.5c0 -98 23.167 -174.333 69.5 -229s107.833 -82 184.5 -82
c156.667 0 326 105 508 315z" />
    <glyph glyph-name="afii10066" unicode="&#xe1;" horiz-adv-x="2134" 
d="M279 1278l44.9941 -0.000976562c26.667 110 70.334 215.167 131.001 315.5s142.5 182.666 245.5 246.999s225.833 96.5 368.5 96.5c189.333 0 353.333 -45.5 492 -136.5s244.334 -212.5 317.001 -364.5s109 -315.333 109 -490c0 -149.333 -21.167 -284.5 -63.5 -405.5
s-104.333 -225.667 -186 -314s-179.167 -155.666 -292.5 -201.999s-238.666 -69.5 -375.999 -69.5c-102.667 0 -220.5 17.667 -353.5 53s-261 126.833 -384 274.5s-184.5 368.834 -184.5 663.501c0 368.667 42.333 679.667 127 933s188.834 450.5 312.501 591.5
s243 243.167 358 306.5s227.5 112.666 337.5 148c136.667 44.667 235.834 79.5 297.501 104.5s103.334 49.333 125.001 73s32.5 54.5 32.5 92.5h82c0 -134.667 -30.667 -245.834 -92 -333.5c-61.333 -87.667 -137.166 -155.834 -227.499 -204.5
c-90.333 -48.667 -206.5 -100 -348.5 -154c-183.333 -68 -333.333 -142.167 -450 -222.5s-213.334 -200.5 -290.001 -360.5s-120.667 -374 -132 -642zM1076.99 44.999c173.333 0 310.167 73.667 410.5 221s150.5 374 150.5 680c0 207.333 -23 377.833 -69 511.5
s-111.167 232 -195.5 295s-183.166 94.5 -296.499 94.5c-112 0 -210.333 -31.5 -295 -94.5s-150.834 -161.667 -198.501 -296s-71.5 -304.5 -71.5 -510.5c0 -332 54.5 -565.167 163.5 -699.5s242.833 -201.5 401.5 -201.5z" />
    <glyph glyph-name="afii10066" unicode="&#x431;" horiz-adv-x="2134" 
d="M279 1278l44.9941 -0.000976562c26.667 110 70.334 215.167 131.001 315.5s142.5 182.666 245.5 246.999s225.833 96.5 368.5 96.5c189.333 0 353.333 -45.5 492 -136.5s244.334 -212.5 317.001 -364.5s109 -315.333 109 -490c0 -149.333 -21.167 -284.5 -63.5 -405.5
s-104.333 -225.667 -186 -314s-179.167 -155.666 -292.5 -201.999s-238.666 -69.5 -375.999 -69.5c-102.667 0 -220.5 17.667 -353.5 53s-261 126.833 -384 274.5s-184.5 368.834 -184.5 663.501c0 368.667 42.333 679.667 127 933s188.834 450.5 312.501 591.5
s243 243.167 358 306.5s227.5 112.666 337.5 148c136.667 44.667 235.834 79.5 297.501 104.5s103.334 49.333 125.001 73s32.5 54.5 32.5 92.5h82c0 -134.667 -30.667 -245.834 -92 -333.5c-61.333 -87.667 -137.166 -155.834 -227.499 -204.5
c-90.333 -48.667 -206.5 -100 -348.5 -154c-183.333 -68 -333.333 -142.167 -450 -222.5s-213.334 -200.5 -290.001 -360.5s-120.667 -374 -132 -642zM1076.99 44.999c173.333 0 310.167 73.667 410.5 221s150.5 374 150.5 680c0 207.333 -23 377.833 -69 511.5
s-111.167 232 -195.5 295s-183.166 94.5 -296.499 94.5c-112 0 -210.333 -31.5 -295 -94.5s-150.834 -161.667 -198.501 -296s-71.5 -304.5 -71.5 -510.5c0 -332 54.5 -565.167 163.5 -699.5s242.833 -201.5 401.5 -201.5z" />
    <glyph glyph-name="afii10067" unicode="&#xe2;" horiz-adv-x="2081" 
d="M131 0v90.002h160c52.667 0 90.334 6.66699 113.001 20s34 39.333 34 78v1516c0 39.333 -11.333 65.5 -34 78.5s-60.334 19.5 -113.001 19.5h-160v90h1057c226.667 0 390.5 -43.833 491.5 -131.5s151.5 -197.834 151.5 -330.501
c0 -138.667 -51.167 -238.334 -153.5 -299.001s-204.166 -96.334 -305.499 -107.001v-16c137.333 -12 261.166 -57 371.499 -135s165.5 -190 165.5 -336c0 -72.667 -17.333 -148.667 -52 -228s-109.5 -150.666 -224.5 -213.999s-280.833 -95 -497.5 -95h-1004zM750 1065
h319.001c123.333 0 226.5 32 309.5 96s124.5 157.667 124.5 281c0 240 -162.333 360 -487 360c-94.667 0 -183.334 -16.333 -266.001 -49v-688zM750.001 975.002l-0.000976562 -823c80.667 -41.333 169.334 -62 266.001 -62c164 0 294.333 37.333 391 112
s145 184.667 145 330c0 183.333 -53.5 303 -160.5 359s-219.833 84 -338.5 84h-303z" />
    <glyph glyph-name="afii10067" unicode="&#x432;" horiz-adv-x="2081" 
d="M131 0v90.002h160c52.667 0 90.334 6.66699 113.001 20s34 39.333 34 78v1516c0 39.333 -11.333 65.5 -34 78.5s-60.334 19.5 -113.001 19.5h-160v90h1057c226.667 0 390.5 -43.833 491.5 -131.5s151.5 -197.834 151.5 -330.501
c0 -138.667 -51.167 -238.334 -153.5 -299.001s-204.166 -96.334 -305.499 -107.001v-16c137.333 -12 261.166 -57 371.499 -135s165.5 -190 165.5 -336c0 -72.667 -17.333 -148.667 -52 -228s-109.5 -150.666 -224.5 -213.999s-280.833 -95 -497.5 -95h-1004zM750 1065
h319.001c123.333 0 226.5 32 309.5 96s124.5 157.667 124.5 281c0 240 -162.333 360 -487 360c-94.667 0 -183.334 -16.333 -266.001 -49v-688zM750.001 975.002l-0.000976562 -823c80.667 -41.333 169.334 -62 266.001 -62c164 0 294.333 37.333 391 112
s145 184.667 145 330c0 183.333 -53.5 303 -160.5 359s-219.833 84 -338.5 84h-303z" />
    <glyph glyph-name="afii10068" unicode="&#xe3;" horiz-adv-x="1704" 
d="M131 0l-0.000976562 90h160c52.667 0 90.334 6.66699 113.001 20s34 39.333 34 78v1516c0 39.333 -11.333 65.5 -34 78.5s-60.334 19.5 -113.001 19.5h-160v90h1524v-503h-103v36c0 98.667 -47.833 186.167 -143.5 262.5s-267.5 114.5 -515.5 114.5h-49
c-62.667 0 -94 -32.667 -94 -98v-1516c0 -38.667 11.333 -64.667 34 -78s60.334 -20 113.001 -20h201v-90h-967z" />
    <glyph glyph-name="afii10068" unicode="&#x433;" horiz-adv-x="1704" 
d="M131 0l-0.000976562 90h160c52.667 0 90.334 6.66699 113.001 20s34 39.333 34 78v1516c0 39.333 -11.333 65.5 -34 78.5s-60.334 19.5 -113.001 19.5h-160v90h1524v-503h-103v36c0 98.667 -47.833 186.167 -143.5 262.5s-267.5 114.5 -515.5 114.5h-49
c-62.667 0 -94 -32.667 -94 -98v-1516c0 -38.667 11.333 -64.667 34 -78s60.334 -20 113.001 -20h201v-90h-967z" />
    <glyph glyph-name="afii10069" unicode="&#xe4;" horiz-adv-x="2150" 
d="M385 1892l1618 -0.00390625v-90h-160c-52.667 0 -90.334 -6.5 -113.001 -19.5s-34 -39.167 -34 -78.5v-1507c0 -42 11 -70.333 33 -85s60 -22 114 -22h180v-590h-102v127c0 70.667 -38.333 134.834 -115 192.501s-172.334 102.167 -287.001 133.5
s-226.334 47 -335.001 47h-430c-126 0 -234.167 -18.167 -324.5 -54.5s-157.833 -83.166 -202.5 -140.499s-67 -116.666 -67 -177.999v-127h-103v590h86c105.333 0 203.833 103.333 295.5 310s166.5 439.334 224.5 698.001s87 432 87 520c0 122.667 -76.667 184 -230 184
h-135v90zM1384 208.996l0.000976562 1474c0 52 -14.333 84.833 -43 98.5s-66 20.5 -112 20.5h-123c-76.667 0 -131.834 -17.833 -165.501 -53.5s-60.5 -114.834 -80.5 -237.501c-65.333 -402.667 -155.333 -752 -270 -1048c-46.667 -132.667 -70 -216 -70 -250
c0 -52.667 20.167 -86.334 60.5 -101.001s91.166 -22 152.499 -22h516c58.667 0 95.834 10.833 111.501 32.5s23.5 50.5 23.5 86.5z" />
    <glyph glyph-name="afii10069" unicode="&#x434;" horiz-adv-x="2150" 
d="M385 1892l1618 -0.00390625v-90h-160c-52.667 0 -90.334 -6.5 -113.001 -19.5s-34 -39.167 -34 -78.5v-1507c0 -42 11 -70.333 33 -85s60 -22 114 -22h180v-590h-102v127c0 70.667 -38.333 134.834 -115 192.501s-172.334 102.167 -287.001 133.5
s-226.334 47 -335.001 47h-430c-126 0 -234.167 -18.167 -324.5 -54.5s-157.833 -83.166 -202.5 -140.499s-67 -116.666 -67 -177.999v-127h-103v590h86c105.333 0 203.833 103.333 295.5 310s166.5 439.334 224.5 698.001s87 432 87 520c0 122.667 -76.667 184 -230 184
h-135v90zM1384 208.996l0.000976562 1474c0 52 -14.333 84.833 -43 98.5s-66 20.5 -112 20.5h-123c-76.667 0 -131.834 -17.833 -165.501 -53.5s-60.5 -114.834 -80.5 -237.501c-65.333 -402.667 -155.333 -752 -270 -1048c-46.667 -132.667 -70 -216 -70 -250
c0 -52.667 20.167 -86.334 60.5 -101.001s91.166 -22 152.499 -22h516c58.667 0 95.834 10.833 111.501 32.5s23.5 50.5 23.5 86.5z" />
    <glyph glyph-name="afii10070" unicode="&#xe5;" horiz-adv-x="1872" 
d="M1749 1081l-1241 0.00292969c-2.66699 -35.333 -4 -87 -4 -155c0 -203.333 28.667 -366.5 86 -489.5s130.166 -209.5 218.499 -259.5s182.166 -75 281.499 -75c246.667 0 436.334 127 569.001 381l74 -41c-56 -105.333 -117 -194 -183 -266
s-142.667 -126.833 -230 -164.5s-190 -56.5 -308 -56.5c-116 0 -226.167 20.667 -330.5 62s-196.833 103.166 -277.5 185.499s-143.667 183.166 -189 302.499s-68 254 -68 404c0 190 34.333 363.667 103 521s168.334 281.166 299.001 371.499s285 135.5 463 135.5
c169.333 0 309.333 -43.167 420 -129.5s191.167 -195 241.5 -326s75.5 -264.5 75.5 -400.5zM508 1171l905 0.000976562v58c0 217.333 -39.167 374.666 -117.5 471.999s-175.5 146 -291.5 146c-66 0 -133.333 -17.5 -202 -52.5s-131.167 -103.167 -187.5 -204.5
s-91.833 -241 -106.5 -419z" />
    <glyph glyph-name="afii10070" unicode="&#x435;" horiz-adv-x="1872" 
d="M1749 1081l-1241 0.00292969c-2.66699 -35.333 -4 -87 -4 -155c0 -203.333 28.667 -366.5 86 -489.5s130.166 -209.5 218.499 -259.5s182.166 -75 281.499 -75c246.667 0 436.334 127 569.001 381l74 -41c-56 -105.333 -117 -194 -183 -266
s-142.667 -126.833 -230 -164.5s-190 -56.5 -308 -56.5c-116 0 -226.167 20.667 -330.5 62s-196.833 103.166 -277.5 185.499s-143.667 183.166 -189 302.499s-68 254 -68 404c0 190 34.333 363.667 103 521s168.334 281.166 299.001 371.499s285 135.5 463 135.5
c169.333 0 309.333 -43.167 420 -129.5s191.167 -195 241.5 -326s75.5 -264.5 75.5 -400.5zM508 1171l905 0.000976562v58c0 217.333 -39.167 374.666 -117.5 471.999s-175.5 146 -291.5 146c-66 0 -133.333 -17.5 -202 -52.5s-131.167 -103.167 -187.5 -204.5
s-91.833 -241 -106.5 -419z" />
    <glyph glyph-name="afii10072" unicode="&#xe6;" horiz-adv-x="3047" 
d="M1061 1892l926.004 0.00292969v-90h-160c-45.333 0 -81.333 -5.5 -108 -16.5s-40 -38.167 -40 -81.5v-643h90c81.333 0 149.166 29 203.499 87s117.833 168.333 190.499 331c47.333 107.333 89.666 191.666 127 252.999c37.333 61.333 83.333 110.833 138 148.5
s120.667 56.5 198 56.5c75.333 0 134.333 -19 177 -57s64 -84.333 64 -139c0 -50.667 -14.333 -93.334 -43 -128.001s-64.667 -52 -108 -52c-94 0 -151.333 47.667 -172 143c-9.33301 60 -32.666 90 -70 90c-34 0 -61 -21.333 -81 -64s-40.667 -100.667 -62 -174
c-49.333 -163.333 -100.833 -287.666 -154.5 -372.999s-141.5 -141 -263.5 -167v-17c191.333 -19.333 338.166 -90.666 440.5 -213.999c102.333 -123.333 186.166 -269 251.5 -437c31.333 -83.333 57 -143 77 -179s50.333 -54 91 -54c62.667 0 94 58.667 94 176h90
c0 -90.667 -21.833 -169.334 -65.5 -236.001s-113.167 -100 -208.5 -100c-77.333 0 -147.166 22 -209.5 66c-62.333 44 -117.333 101.167 -165 171.5s-94.334 154.333 -140 252l-116.5 251.5c-44 92.667 -89.833 161.667 -137.5 207s-119.167 68 -214.5 68h-21v-783
c0 -42 13.333 -68.833 40 -80.5s62.667 -17.5 108 -17.5h160v-90h-926v90h160c44.667 0 80.334 5.66699 107.001 17s40 38.333 40 81v783h-20c-95.333 0 -167 -22.667 -215 -68s-94 -114.333 -138 -207c-89.333 -194 -154.333 -330.333 -195 -409
s-98.334 -153.667 -173.001 -225s-162 -107 -262 -107c-95.333 0 -165 33.667 -209 101s-66 145.666 -66 234.999h90c0 -117.333 31.333 -176 94 -176c41.333 0 72.833 19.5 94.5 58.5s46.167 97.167 73.5 174.5c64.667 166 148.667 311.167 252 435.5
s250.333 196.166 441 215.499v17c-84.667 18 -153.334 52.5 -206.001 103.5s-92.334 108 -119.001 171s-57.667 151.5 -93 265.5c-20 69.333 -40.5 126.333 -61.5 171s-48.5 67 -82.5 67c-36.667 0 -59.667 -30 -69 -90c-21.333 -95.333 -78.666 -143 -171.999 -143
c-43.333 0 -79.5 17.5 -108.5 52.5s-43.5 77.5 -43.5 127.5c0 54 21.5 100.167 64.5 138.5s102.167 57.5 177.5 57.5c112 0 200.167 -37.333 264.5 -112s130.5 -190 198.5 -346c72.667 -162.667 136 -273 190 -331s121.667 -87 203 -87h90v643c0 44 -13.333 71.333 -40 82
s-62.334 16 -107.001 16h-160v90z" />
    <glyph glyph-name="afii10072" unicode="&#x436;" horiz-adv-x="3047" 
d="M1061 1892l926.004 0.00292969v-90h-160c-45.333 0 -81.333 -5.5 -108 -16.5s-40 -38.167 -40 -81.5v-643h90c81.333 0 149.166 29 203.499 87s117.833 168.333 190.499 331c47.333 107.333 89.666 191.666 127 252.999c37.333 61.333 83.333 110.833 138 148.5
s120.667 56.5 198 56.5c75.333 0 134.333 -19 177 -57s64 -84.333 64 -139c0 -50.667 -14.333 -93.334 -43 -128.001s-64.667 -52 -108 -52c-94 0 -151.333 47.667 -172 143c-9.33301 60 -32.666 90 -70 90c-34 0 -61 -21.333 -81 -64s-40.667 -100.667 -62 -174
c-49.333 -163.333 -100.833 -287.666 -154.5 -372.999s-141.5 -141 -263.5 -167v-17c191.333 -19.333 338.166 -90.666 440.5 -213.999c102.333 -123.333 186.166 -269 251.5 -437c31.333 -83.333 57 -143 77 -179s50.333 -54 91 -54c62.667 0 94 58.667 94 176h90
c0 -90.667 -21.833 -169.334 -65.5 -236.001s-113.167 -100 -208.5 -100c-77.333 0 -147.166 22 -209.5 66c-62.333 44 -117.333 101.167 -165 171.5s-94.334 154.333 -140 252l-116.5 251.5c-44 92.667 -89.833 161.667 -137.5 207s-119.167 68 -214.5 68h-21v-783
c0 -42 13.333 -68.833 40 -80.5s62.667 -17.5 108 -17.5h160v-90h-926v90h160c44.667 0 80.334 5.66699 107.001 17s40 38.333 40 81v783h-20c-95.333 0 -167 -22.667 -215 -68s-94 -114.333 -138 -207c-89.333 -194 -154.333 -330.333 -195 -409
s-98.334 -153.667 -173.001 -225s-162 -107 -262 -107c-95.333 0 -165 33.667 -209 101s-66 145.666 -66 234.999h90c0 -117.333 31.333 -176 94 -176c41.333 0 72.833 19.5 94.5 58.5s46.167 97.167 73.5 174.5c64.667 166 148.667 311.167 252 435.5
s250.333 196.166 441 215.499v17c-84.667 18 -153.334 52.5 -206.001 103.5s-92.334 108 -119.001 171s-57.667 151.5 -93 265.5c-20 69.333 -40.5 126.333 -61.5 171s-48.5 67 -82.5 67c-36.667 0 -59.667 -30 -69 -90c-21.333 -95.333 -78.666 -143 -171.999 -143
c-43.333 0 -79.5 17.5 -108.5 52.5s-43.5 77.5 -43.5 127.5c0 54 21.5 100.167 64.5 138.5s102.167 57.5 177.5 57.5c112 0 200.167 -37.333 264.5 -112s130.5 -190 198.5 -346c72.667 -162.667 136 -273 190 -331s121.667 -87 203 -87h90v643c0 44 -13.333 71.333 -40 82
s-62.334 16 -107.001 16h-160v90z" />
    <glyph glyph-name="afii10073" unicode="&#xe7;" horiz-adv-x="1790" 
d="M225 1892l102.997 -0.000976562l-9 -94c173.333 92.667 363.333 139 570 139c221.333 0 388.666 -42.833 501.999 -128.5s170 -192.834 170 -321.501c0 -85.333 -23.167 -158.833 -69.5 -220.5s-106.5 -109.334 -180.5 -143.001s-150.667 -53.167 -230 -58.5v-29
c142.667 0 267.834 -40.833 375.501 -122.5s161.5 -207.167 161.5 -376.5c0 -149.333 -45.167 -267.666 -135.5 -354.999s-198.5 -147 -324.5 -179s-251.333 -48 -376 -48c-224 0 -395.333 39.5 -514 118.5s-178 169.167 -178 270.5c0 60.667 14.167 113.334 42.5 158.001
s72.833 67 133.5 67c48 0 90.833 -16.667 128.5 -50s56.5 -80.666 56.5 -141.999c0 -28.667 -4.33301 -56 -13 -82c-1.33301 -5.33301 -5.66602 -17.333 -12.999 -36s-11 -34 -11 -46c0 -40 31.333 -78 94 -114s155.334 -54 278.001 -54
c144.667 0 260.167 46.833 346.5 140.5s129.5 214.834 129.5 363.501c0 110 -32.667 212.5 -98 307.5s-189.666 142.5 -372.999 142.5c-68 0 -140.667 -10.667 -218 -32v155c74 -16 150.667 -24 230 -24c286.667 0 430 127 430 381c0 99.333 -29 185.5 -87 258.5
s-153.333 109.5 -286 109.5c-126.667 0 -249.167 -37.833 -367.5 -113.5s-185.5 -172.834 -201.5 -291.501l-8 -66h-103z" />
    <glyph glyph-name="afii10073" unicode="&#x437;" horiz-adv-x="1790" 
d="M225 1892l102.997 -0.000976562l-9 -94c173.333 92.667 363.333 139 570 139c221.333 0 388.666 -42.833 501.999 -128.5s170 -192.834 170 -321.501c0 -85.333 -23.167 -158.833 -69.5 -220.5s-106.5 -109.334 -180.5 -143.001s-150.667 -53.167 -230 -58.5v-29
c142.667 0 267.834 -40.833 375.501 -122.5s161.5 -207.167 161.5 -376.5c0 -149.333 -45.167 -267.666 -135.5 -354.999s-198.5 -147 -324.5 -179s-251.333 -48 -376 -48c-224 0 -395.333 39.5 -514 118.5s-178 169.167 -178 270.5c0 60.667 14.167 113.334 42.5 158.001
s72.833 67 133.5 67c48 0 90.833 -16.667 128.5 -50s56.5 -80.666 56.5 -141.999c0 -28.667 -4.33301 -56 -13 -82c-1.33301 -5.33301 -5.66602 -17.333 -12.999 -36s-11 -34 -11 -46c0 -40 31.333 -78 94 -114s155.334 -54 278.001 -54
c144.667 0 260.167 46.833 346.5 140.5s129.5 214.834 129.5 363.501c0 110 -32.667 212.5 -98 307.5s-189.666 142.5 -372.999 142.5c-68 0 -140.667 -10.667 -218 -32v155c74 -16 150.667 -24 230 -24c286.667 0 430 127 430 381c0 99.333 -29 185.5 -87 258.5
s-153.333 109.5 -286 109.5c-126.667 0 -249.167 -37.833 -367.5 -113.5s-185.5 -172.834 -201.5 -291.501l-8 -66h-103z" />
    <glyph glyph-name="afii10074" unicode="&#xe8;" horiz-adv-x="2392" 
d="M131 0l0.00195312 90h160c52.667 0 90.334 6.66699 113.001 20s34 39.333 34 78v1516c0 39.333 -11.333 65.5 -34 78.5s-60.334 19.5 -113.001 19.5h-160v90h885v-90h-119c-52.667 0 -90.334 -6.5 -113.001 -19.5s-34 -39.167 -34 -78.5v-1237l892 1130v107
c0 39.333 -11.333 65.5 -34 78.5s-60.334 19.5 -113.001 19.5h-119v90h885v-90h-160c-52.667 0 -90.334 -6.5 -113.001 -19.5s-34 -39.167 -34 -78.5v-1516c0 -38.667 11.333 -64.667 34 -78s60.334 -20 113.001 -20h160v-90h-885v90h119
c52.667 0 90.334 6.66699 113.001 20s34 39.333 34 78v1266l-892 -1139v-127c0 -40.667 10.667 -67.167 32 -79.5s59.666 -18.5 114.999 -18.5h119v-90h-885z" />
    <glyph glyph-name="afii10074" unicode="&#x438;" horiz-adv-x="2392" 
d="M131 0l0.00195312 90h160c52.667 0 90.334 6.66699 113.001 20s34 39.333 34 78v1516c0 39.333 -11.333 65.5 -34 78.5s-60.334 19.5 -113.001 19.5h-160v90h885v-90h-119c-52.667 0 -90.334 -6.5 -113.001 -19.5s-34 -39.167 -34 -78.5v-1237l892 1130v107
c0 39.333 -11.333 65.5 -34 78.5s-60.334 19.5 -113.001 19.5h-119v90h885v-90h-160c-52.667 0 -90.334 -6.5 -113.001 -19.5s-34 -39.167 -34 -78.5v-1516c0 -38.667 11.333 -64.667 34 -78s60.334 -20 113.001 -20h160v-90h-885v90h119
c52.667 0 90.334 6.66699 113.001 20s34 39.333 34 78v1266l-892 -1139v-127c0 -40.667 10.667 -67.167 32 -79.5s59.666 -18.5 114.999 -18.5h119v-90h-885z" />
    <glyph glyph-name="afii10075" unicode="&#xe9;" horiz-adv-x="2392" 
d="M131 0l0.00195312 90h160c52.667 0 90.334 6.66699 113.001 20s34 39.333 34 78v1516c0 39.333 -11.333 65.5 -34 78.5s-60.334 19.5 -113.001 19.5h-160v90h885v-90h-119c-52.667 0 -90.334 -6.5 -113.001 -19.5s-34 -39.167 -34 -78.5v-1237l892 1130v107
c0 39.333 -11.333 65.5 -34 78.5s-60.334 19.5 -113.001 19.5h-119v90h885v-90h-160c-52.667 0 -90.334 -6.5 -113.001 -19.5s-34 -39.167 -34 -78.5v-1516c0 -38.667 11.333 -64.667 34 -78s60.334 -20 113.001 -20h160v-90h-885v90h119
c52.667 0 90.334 6.66699 113.001 20s34 39.333 34 78v1266l-892 -1139v-127c0 -40.667 10.667 -67.167 32 -79.5s59.666 -18.5 114.999 -18.5h119v-90h-885zM1196 2191c-122.667 0 -230.165 23.5 -322.498 70.5s-162.666 106.833 -210.999 179.5s-72.5 145 -72.5 217
c0 66 19.167 117.333 57.5 154s86.166 55 143.499 55c55.333 0 95.666 -18.833 120.999 -56.5s38 -78.834 38 -123.5c0 -18.667 -8 -44.667 -24 -78c-8 -17.333 -19.833 -38.5 -35.5 -63.5s-26 -43 -31 -54s-7.5 -25.167 -7.5 -42.5c0 -36.667 31.167 -73.834 93.5 -111.5
c62.333 -37.667 145.833 -56.5 250.5 -56.5c110 0 194.833 18.5 254.5 55.5s89.5 74.5 89.5 112.5c0 33.333 -11 66.333 -33 99c-43.333 58 -65 104.333 -65 139c0 50 14.5 92.5 43.5 127.5s69.167 52.5 120.5 52.5c55.333 0 101.833 -18.167 139.5 -54.5
s56.5 -87.833 56.5 -154.5c0 -70.667 -24.333 -142.334 -73 -215c-48.667 -72.667 -119.334 -132.834 -212.001 -180.5c-92.667 -47.667 -199.667 -71.5 -321 -71.5z" />
    <glyph glyph-name="afii10075" unicode="&#x439;" horiz-adv-x="2392" 
d="M131 0l0.00195312 90h160c52.667 0 90.334 6.66699 113.001 20s34 39.333 34 78v1516c0 39.333 -11.333 65.5 -34 78.5s-60.334 19.5 -113.001 19.5h-160v90h885v-90h-119c-52.667 0 -90.334 -6.5 -113.001 -19.5s-34 -39.167 -34 -78.5v-1237l892 1130v107
c0 39.333 -11.333 65.5 -34 78.5s-60.334 19.5 -113.001 19.5h-119v90h885v-90h-160c-52.667 0 -90.334 -6.5 -113.001 -19.5s-34 -39.167 -34 -78.5v-1516c0 -38.667 11.333 -64.667 34 -78s60.334 -20 113.001 -20h160v-90h-885v90h119
c52.667 0 90.334 6.66699 113.001 20s34 39.333 34 78v1266l-892 -1139v-127c0 -40.667 10.667 -67.167 32 -79.5s59.666 -18.5 114.999 -18.5h119v-90h-885zM1196 2191c-122.667 0 -230.165 23.5 -322.498 70.5s-162.666 106.833 -210.999 179.5s-72.5 145 -72.5 217
c0 66 19.167 117.333 57.5 154s86.166 55 143.499 55c55.333 0 95.666 -18.833 120.999 -56.5s38 -78.834 38 -123.5c0 -18.667 -8 -44.667 -24 -78c-8 -17.333 -19.833 -38.5 -35.5 -63.5s-26 -43 -31 -54s-7.5 -25.167 -7.5 -42.5c0 -36.667 31.167 -73.834 93.5 -111.5
c62.333 -37.667 145.833 -56.5 250.5 -56.5c110 0 194.833 18.5 254.5 55.5s89.5 74.5 89.5 112.5c0 33.333 -11 66.333 -33 99c-43.333 58 -65 104.333 -65 139c0 50 14.5 92.5 43.5 127.5s69.167 52.5 120.5 52.5c55.333 0 101.833 -18.167 139.5 -54.5
s56.5 -87.833 56.5 -154.5c0 -70.667 -24.333 -142.334 -73 -215c-48.667 -72.667 -119.334 -132.834 -212.001 -180.5c-92.667 -47.667 -199.667 -71.5 -321 -71.5z" />
    <glyph glyph-name="afii10076" unicode="&#xea;" horiz-adv-x="2187" 
d="M131 1892l925.995 0.00390625v-90h-160c-52.667 0 -90.334 -6.5 -113.001 -19.5s-34 -39.167 -34 -78.5v-643h159c86 0 158.333 29.167 217 87.5s121.667 164.166 189 317.499c70 157.333 141.5 275.166 214.5 353.499s165.167 117.5 276.5 117.5
c75.333 0 134.5 -18.333 177.5 -55s64.5 -83.667 64.5 -141c0 -52 -13.833 -95 -41.5 -129s-64.5 -51 -110.5 -51c-93.333 0 -150.666 47.667 -171.999 143c-8 29.333 -15.667 51.666 -23 66.999s-22.666 23 -45.999 23c-53.333 0 -105.333 -79.333 -156 -238
c-34 -108 -63.333 -191.167 -88 -249.5s-66.667 -116.833 -126 -175.5s-136.666 -97 -231.999 -115v-17c189.333 -19.333 335.833 -91 439.5 -215s187.834 -269.333 252.501 -436c31.333 -83.333 57 -143 77 -179s50.333 -54 91 -54c62.667 0 94 58.667 94 176h90
c0 -90.667 -21.833 -169.334 -65.5 -236.001s-113.167 -100 -208.5 -100c-99.333 0 -186.666 35.667 -261.999 107s-133.333 146.333 -174 225s-105.667 215 -195 409c-44 92.667 -89.833 161.667 -137.5 207s-119.167 68 -214.5 68h-90v-783
c0 -38.667 11.333 -64.667 34 -78s60.334 -20 113.001 -20h160v-90h-926v90h160c52.667 0 90.334 6.66699 113.001 20s34 39.333 34 78v1516c0 39.333 -11.333 65.5 -34 78.5s-60.334 19.5 -113.001 19.5h-160v90z" />
    <glyph glyph-name="afii10076" unicode="&#x43a;" horiz-adv-x="2187" 
d="M131 1892l925.995 0.00390625v-90h-160c-52.667 0 -90.334 -6.5 -113.001 -19.5s-34 -39.167 -34 -78.5v-643h159c86 0 158.333 29.167 217 87.5s121.667 164.166 189 317.499c70 157.333 141.5 275.166 214.5 353.499s165.167 117.5 276.5 117.5
c75.333 0 134.5 -18.333 177.5 -55s64.5 -83.667 64.5 -141c0 -52 -13.833 -95 -41.5 -129s-64.5 -51 -110.5 -51c-93.333 0 -150.666 47.667 -171.999 143c-8 29.333 -15.667 51.666 -23 66.999s-22.666 23 -45.999 23c-53.333 0 -105.333 -79.333 -156 -238
c-34 -108 -63.333 -191.167 -88 -249.5s-66.667 -116.833 -126 -175.5s-136.666 -97 -231.999 -115v-17c189.333 -19.333 335.833 -91 439.5 -215s187.834 -269.333 252.501 -436c31.333 -83.333 57 -143 77 -179s50.333 -54 91 -54c62.667 0 94 58.667 94 176h90
c0 -90.667 -21.833 -169.334 -65.5 -236.001s-113.167 -100 -208.5 -100c-99.333 0 -186.666 35.667 -261.999 107s-133.333 146.333 -174 225s-105.667 215 -195 409c-44 92.667 -89.833 161.667 -137.5 207s-119.167 68 -214.5 68h-90v-783
c0 -38.667 11.333 -64.667 34 -78s60.334 -20 113.001 -20h160v-90h-926v90h160c52.667 0 90.334 6.66699 113.001 20s34 39.333 34 78v1516c0 39.333 -11.333 65.5 -34 78.5s-60.334 19.5 -113.001 19.5h-160v90z" />
    <glyph glyph-name="afii10077" unicode="&#xeb;" horiz-adv-x="2261" 
d="M1204 0l-0.00195312 90h160c52.667 0 90.334 6.66699 113.001 20s34 39.333 34 78v1516c0 65.333 -31.333 98 -94 98h-106c-63.333 0 -112.833 -4.33301 -148.5 -13s-66.5 -29.167 -92.5 -61.5s-47.833 -81.166 -65.5 -146.499s-34.5 -156.666 -50.5 -273.999
c-42 -336.667 -86.333 -599.834 -133 -789.501s-108.167 -330.834 -184.5 -423.501s-176.5 -139 -300.5 -139c-86 0 -155.333 22 -208 66s-79 102.667 -79 176c0 68 18.833 118.333 56.5 151s80.167 49 127.5 49c46 0 86.333 -15 121 -45s52 -73.667 52 -131v-12
c0 -65.333 23 -98 69 -98c102.667 0 194.334 195 275.001 585c21.333 100 47.833 257.5 79.5 472.5s47.5 359.5 47.5 433.5c0 84 -19 138.333 -57 163s-97 37 -177 37h-151v90h1638v-90h-160c-52.667 0 -90.334 -6.5 -113.001 -19.5s-34 -39.167 -34 -78.5v-1516
c0 -38.667 11.333 -64.667 34 -78s60.334 -20 113.001 -20h160v-90h-926z" />
    <glyph glyph-name="afii10077" unicode="&#x43b;" horiz-adv-x="2261" 
d="M1204 0l-0.00195312 90h160c52.667 0 90.334 6.66699 113.001 20s34 39.333 34 78v1516c0 65.333 -31.333 98 -94 98h-106c-63.333 0 -112.833 -4.33301 -148.5 -13s-66.5 -29.167 -92.5 -61.5s-47.833 -81.166 -65.5 -146.499s-34.5 -156.666 -50.5 -273.999
c-42 -336.667 -86.333 -599.834 -133 -789.501s-108.167 -330.834 -184.5 -423.501s-176.5 -139 -300.5 -139c-86 0 -155.333 22 -208 66s-79 102.667 -79 176c0 68 18.833 118.333 56.5 151s80.167 49 127.5 49c46 0 86.333 -15 121 -45s52 -73.667 52 -131v-12
c0 -65.333 23 -98 69 -98c102.667 0 194.334 195 275.001 585c21.333 100 47.833 257.5 79.5 472.5s47.5 359.5 47.5 433.5c0 84 -19 138.333 -57 163s-97 37 -177 37h-151v90h1638v-90h-160c-52.667 0 -90.334 -6.5 -113.001 -19.5s-34 -39.167 -34 -78.5v-1516
c0 -38.667 11.333 -64.667 34 -78s60.334 -20 113.001 -20h160v-90h-926z" />
    <glyph glyph-name="afii10078" unicode="&#xec;" horiz-adv-x="2732" 
d="M131 1892h651l607 -1425l598 1425h618v-90h-160c-52.667 0 -90.334 -6.5 -113 -19.5c-22.667 -13 -34 -39.167 -34 -78.5v-1516c0 -38.667 11.333 -64.667 34 -78s60.334 -20 113 -20h160v-90h-926v90h160c52.667 0 90.5 6.66699 113.5 20s34.5 39.333 34.5 78v1463
l-684 -1651h-78l-705 1651v-963c0 -220 20.833 -374.667 62.5 -464s89.167 -134 142.5 -134h66v-90h-664v90h86c53.333 0 100.833 44.667 142.5 134s62.5 244 62.5 464v1016c0 43.333 -12.167 70.5 -36.5 81.5s-62.833 16.5 -115.5 16.5h-135v90z" />
    <glyph glyph-name="afii10078" unicode="&#x43c;" horiz-adv-x="2732" 
d="M131 1892h651l607 -1425l598 1425h618v-90h-160c-52.667 0 -90.334 -6.5 -113 -19.5c-22.667 -13 -34 -39.167 -34 -78.5v-1516c0 -38.667 11.333 -64.667 34 -78s60.334 -20 113 -20h160v-90h-926v90h160c52.667 0 90.5 6.66699 113.5 20s34.5 39.333 34.5 78v1463
l-684 -1651h-78l-705 1651v-963c0 -220 20.833 -374.667 62.5 -464s89.167 -134 142.5 -134h66v-90h-664v90h86c53.333 0 100.833 44.667 142.5 134s62.5 244 62.5 464v1016c0 43.333 -12.167 70.5 -36.5 81.5s-62.833 16.5 -115.5 16.5h-135v90z" />
    <glyph glyph-name="afii10079" unicode="&#xed;" horiz-adv-x="2351" 
d="M1602 1012h-852v-824c0 -38.667 11.333 -64.667 34 -78s60.334 -20 113.001 -20h115v-90h-881v90h160c52.667 0 90.334 6.66699 113.001 20s34 39.333 34 78v1516c0 39.333 -11.333 65.5 -34 78.5s-60.334 19.5 -113.001 19.5h-160v90h881v-90h-115
c-52.667 0 -90.334 -6.5 -113.001 -19.5s-34 -39.167 -34 -78.5v-602h852v602c0 39.333 -11.5 65.5 -34.5 78.5s-60.833 19.5 -113.5 19.5h-119v90h885v-90h-160c-52.667 0 -90.334 -6.5 -113.001 -19.5s-34 -39.167 -34 -78.5v-1516c0 -38.667 11.333 -64.667 34 -78
s60.334 -20 113.001 -20h160v-90h-885v90h119c52.667 0 90.5 6.66699 113.5 20s34.5 39.333 34.5 78v824z" />
    <glyph glyph-name="afii10079" unicode="&#x43d;" horiz-adv-x="2351" 
d="M1602 1012h-852v-824c0 -38.667 11.333 -64.667 34 -78s60.334 -20 113.001 -20h115v-90h-881v90h160c52.667 0 90.334 6.66699 113.001 20s34 39.333 34 78v1516c0 39.333 -11.333 65.5 -34 78.5s-60.334 19.5 -113.001 19.5h-160v90h881v-90h-115
c-52.667 0 -90.334 -6.5 -113.001 -19.5s-34 -39.167 -34 -78.5v-602h852v602c0 39.333 -11.5 65.5 -34.5 78.5s-60.833 19.5 -113.5 19.5h-119v90h885v-90h-160c-52.667 0 -90.334 -6.5 -113.001 -19.5s-34 -39.167 -34 -78.5v-1516c0 -38.667 11.333 -64.667 34 -78
s60.334 -20 113.001 -20h160v-90h-885v90h119c52.667 0 90.5 6.66699 113.5 20s34.5 39.333 34.5 78v824z" />
    <glyph glyph-name="afii10080" unicode="&#xee;" horiz-adv-x="2130" 
d="M147 946c0 113.333 16.167 227.498 48.5 342.498s85.166 222.333 158.499 322s169.5 179 288.5 238s259.833 88.5 422.5 88.5c145.333 0 274.833 -25 388.5 -75s209.834 -120.167 288.501 -210.5s138.334 -195.666 179.001 -315.999s61 -250.166 61 -389.499
c0 -185.333 -35.833 -353.166 -107.5 -503.499s-177 -269.166 -316 -356.499s-303.5 -131 -493.5 -131c-162.667 0 -303.667 30 -423 90s-215.333 139.167 -288 237.5s-125.334 205.166 -158.001 320.499s-49 229.666 -49 342.999zM504 945.998
c0 -357.333 59.8301 -596.833 179.497 -718.5s246.834 -182.5 381.501 -182.5c136 0 263.5 60.667 382.5 182s178.5 361 178.5 719c0 249.333 -32.167 441 -96.5 575s-138.166 221.833 -221.499 263.5s-164.333 62.5 -243 62.5c-135.333 0 -262.666 -60.833 -381.999 -182.5
s-179 -361.167 -179 -718.5z" />
    <glyph glyph-name="afii10080" unicode="&#x43e;" horiz-adv-x="2130" 
d="M147 946c0 113.333 16.167 227.498 48.5 342.498s85.166 222.333 158.499 322s169.5 179 288.5 238s259.833 88.5 422.5 88.5c145.333 0 274.833 -25 388.5 -75s209.834 -120.167 288.501 -210.5s138.334 -195.666 179.001 -315.999s61 -250.166 61 -389.499
c0 -185.333 -35.833 -353.166 -107.5 -503.499s-177 -269.166 -316 -356.499s-303.5 -131 -493.5 -131c-162.667 0 -303.667 30 -423 90s-215.333 139.167 -288 237.5s-125.334 205.166 -158.001 320.499s-49 229.666 -49 342.999zM504 945.998
c0 -357.333 59.8301 -596.833 179.497 -718.5s246.834 -182.5 381.501 -182.5c136 0 263.5 60.667 382.5 182s178.5 361 178.5 719c0 249.333 -32.167 441 -96.5 575s-138.166 221.833 -221.499 263.5s-164.333 62.5 -243 62.5c-135.333 0 -262.666 -60.833 -381.999 -182.5
s-179 -361.167 -179 -718.5z" />
    <glyph glyph-name="afii10081" unicode="&#xef;" horiz-adv-x="2339" 
d="M131 1892h2077v-90h-160c-52.667 0 -90.334 -6.5 -113.001 -19.5s-34 -39.167 -34 -78.5v-1516c0 -38.667 11.333 -64.667 34 -78s60.334 -20 113.001 -20h160v-90h-885v90h119c52.667 0 90.334 6.66699 113.001 20s34 39.333 34 78v1516c0 39.333 -11.333 65.5 -34 78.5
s-60.334 19.5 -113.001 19.5h-545c-52.667 0 -90.334 -6.5 -113.001 -19.5s-34 -39.167 -34 -78.5v-1516c0 -38.667 11.333 -64.667 34 -78s60.334 -20 113.001 -20h119v-90h-885v90h160c52.667 0 90.334 6.66699 113.001 20s34 39.333 34 78v1516
c0 39.333 -11.333 65.5 -34 78.5s-60.334 19.5 -113.001 19.5h-160v90z" />
    <glyph glyph-name="afii10081" unicode="&#x43f;" horiz-adv-x="2339" 
d="M131 1892h2077v-90h-160c-52.667 0 -90.334 -6.5 -113.001 -19.5s-34 -39.167 -34 -78.5v-1516c0 -38.667 11.333 -64.667 34 -78s60.334 -20 113.001 -20h160v-90h-885v90h119c52.667 0 90.334 6.66699 113.001 20s34 39.333 34 78v1516c0 39.333 -11.333 65.5 -34 78.5
s-60.334 19.5 -113.001 19.5h-545c-52.667 0 -90.334 -6.5 -113.001 -19.5s-34 -39.167 -34 -78.5v-1516c0 -38.667 11.333 -64.667 34 -78s60.334 -20 113.001 -20h119v-90h-885v90h160c52.667 0 90.334 6.66699 113.001 20s34 39.333 34 78v1516
c0 39.333 -11.333 65.5 -34 78.5s-60.334 19.5 -113.001 19.5h-160v90z" />
    <glyph glyph-name="afii10082" unicode="&#xf0;" horiz-adv-x="2204" 
d="M1016 -877h-926.003v91h160c52.667 0 90.334 6.66699 113.001 20s34 39.333 34 78v2330c0 35.333 -19.167 58.666 -57.5 69.999s-105.166 17 -200.499 17h-49v90c161.333 7.33301 367.666 59 618.999 155v-229c164 128 333.333 192 508 192c150 0 289 -38.167 417 -114.5
s230.333 -189.666 307 -339.999s115 -327.833 115 -532.5c0 -170.667 -34 -332.5 -102 -485.5s-167.667 -276.167 -299 -369.5s-285.666 -140 -462.999 -140c-204 0 -365 39.667 -483 119v-762c0 -38.667 11.333 -64.667 34 -78s60.334 -20 113.001 -20h160v-91z
M708.997 1638l0.000976562 -1306c0 -41.333 16.833 -84.666 50.5 -129.999s84 -82.833 151 -112.5s145.833 -44.5 236.5 -44.5c95.333 0 185.5 34.333 270.5 103s153.333 170.5 205 305.5s77.5 297.833 77.5 488.5c0 164 -20.833 310.5 -62.5 439.5
s-106.834 230.667 -195.501 305s-200.667 111.5 -336 111.5c-168.667 0 -301 -53.333 -397 -160z" />
    <glyph glyph-name="afii10082" unicode="&#x440;" horiz-adv-x="2204" 
d="M1016 -877h-926.003v91h160c52.667 0 90.334 6.66699 113.001 20s34 39.333 34 78v2330c0 35.333 -19.167 58.666 -57.5 69.999s-105.166 17 -200.499 17h-49v90c161.333 7.33301 367.666 59 618.999 155v-229c164 128 333.333 192 508 192c150 0 289 -38.167 417 -114.5
s230.333 -189.666 307 -339.999s115 -327.833 115 -532.5c0 -170.667 -34 -332.5 -102 -485.5s-167.667 -276.167 -299 -369.5s-285.666 -140 -462.999 -140c-204 0 -365 39.667 -483 119v-762c0 -38.667 11.333 -64.667 34 -78s60.334 -20 113.001 -20h160v-91z
M708.997 1638l0.000976562 -1306c0 -41.333 16.833 -84.666 50.5 -129.999s84 -82.833 151 -112.5s145.833 -44.5 236.5 -44.5c95.333 0 185.5 34.333 270.5 103s153.333 170.5 205 305.5s77.5 297.833 77.5 488.5c0 164 -20.833 310.5 -62.5 439.5
s-106.834 230.667 -195.501 305s-200.667 111.5 -336 111.5c-168.667 0 -301 -53.333 -397 -160z" />
    <glyph glyph-name="afii10083" unicode="&#xf1;" horiz-adv-x="1884" 
d="M1679 557l82 -20c-42.667 -141.333 -124 -273.666 -244 -396.999s-294 -185 -522 -185c-151.333 0 -291.5 36 -420.5 108s-232.5 181.333 -310.5 328s-117 323.667 -117 531c0 193.333 39.167 367.333 117.5 522s189.166 275.5 332.499 362.5s309 130.5 497 130.5
c176 0 314.833 -33.667 416.5 -101s152.5 -151 152.5 -251c0 -68 -20.333 -120.5 -61 -157.5s-86 -55.5 -136 -55.5c-48 0 -91.333 16.667 -130 50s-58 76.666 -58 129.999c0 25.333 3.33301 51 10 77s10 51 10 75c0 34.667 -18.833 67.167 -56.5 97.5
s-93.834 45.5 -168.501 45.5c-138 0 -249.667 -49 -335 -147s-145.666 -217.833 -180.999 -359.5s-53 -281.167 -53 -418.5c0 -238.667 53 -437 159 -595s253.667 -237 443 -237c146.667 0 269.834 46 369.501 138s167.5 201.667 203.5 329z" />
    <glyph glyph-name="afii10083" unicode="&#x441;" horiz-adv-x="1884" 
d="M1679 557l82 -20c-42.667 -141.333 -124 -273.666 -244 -396.999s-294 -185 -522 -185c-151.333 0 -291.5 36 -420.5 108s-232.5 181.333 -310.5 328s-117 323.667 -117 531c0 193.333 39.167 367.333 117.5 522s189.166 275.5 332.499 362.5s309 130.5 497 130.5
c176 0 314.833 -33.667 416.5 -101s152.5 -151 152.5 -251c0 -68 -20.333 -120.5 -61 -157.5s-86 -55.5 -136 -55.5c-48 0 -91.333 16.667 -130 50s-58 76.666 -58 129.999c0 25.333 3.33301 51 10 77s10 51 10 75c0 34.667 -18.833 67.167 -56.5 97.5
s-93.834 45.5 -168.501 45.5c-138 0 -249.667 -49 -335 -147s-145.666 -217.833 -180.999 -359.5s-53 -281.167 -53 -418.5c0 -238.667 53 -437 159 -595s253.667 -237 443 -237c146.667 0 269.834 46 369.501 138s167.5 201.667 203.5 329z" />
    <glyph glyph-name="afii10084" unicode="&#xf2;" horiz-adv-x="1909" 
d="M115 1892h1679v-499h-102v98c0 55.333 -24.667 107 -74 155s-110.833 86 -184.5 114s-143.167 42 -208.5 42c-76.667 0 -115 -31.333 -115 -94v-1520c0 -38.667 11.333 -64.667 34 -78s60.334 -20 113.001 -20h160v-90h-925v90h159c53.333 0 91.333 6.66699 114 20
s34 39.333 34 78v1520c0 62.667 -38.333 94 -115 94c-66 0 -135.833 -14 -209.5 -42s-135 -66 -184 -114s-73.5 -99.667 -73.5 -155v-98h-102v499z" />
    <glyph glyph-name="afii10084" unicode="&#x442;" horiz-adv-x="1909" 
d="M115 1892h1679v-499h-102v98c0 55.333 -24.667 107 -74 155s-110.833 86 -184.5 114s-143.167 42 -208.5 42c-76.667 0 -115 -31.333 -115 -94v-1520c0 -38.667 11.333 -64.667 34 -78s60.334 -20 113.001 -20h160v-90h-925v90h159c53.333 0 91.333 6.66699 114 20
s34 39.333 34 78v1520c0 62.667 -38.333 94 -115 94c-66 0 -135.833 -14 -209.5 -42s-135 -66 -184 -114s-73.5 -99.667 -73.5 -155v-98h-102v499z" />
    <glyph glyph-name="afii10085" unicode="&#xf3;" horiz-adv-x="2163" 
d="M2105 1892l0.00195312 -90.002h-61c-53.333 0 -98.833 -24.833 -136.5 -74.5s-80.667 -136.167 -129 -259.5l-164.5 -424l-545 -1376c-64 -160 -143.833 -297.667 -239.5 -413s-224.834 -173 -387.501 -173c-90 0 -167.667 25.667 -233 77s-98 116 -98 194
c0 54.667 16.333 100.334 49 137.001s75 55 127 55c116.667 0 180.667 -62.667 192 -188c7.33301 -84.667 40.333 -127 99 -127c58 0 123 38.833 195 116.5s138 195.834 198 354.501l102 266l-713 1688c-36.667 98 -110.334 147 -221.001 147h-82v90h844v-90h-139
c-71.333 0 -107 -26 -107 -78c0 -21.333 5.66699 -44.333 17 -69l553 -1315l172 475c160.667 445.333 241 732 241 860c0 84.667 -42.333 127 -127 127h-110v90h704z" />
    <glyph glyph-name="afii10085" unicode="&#x443;" horiz-adv-x="2163" 
d="M2105 1892l0.00195312 -90.002h-61c-53.333 0 -98.833 -24.833 -136.5 -74.5s-80.667 -136.167 -129 -259.5l-164.5 -424l-545 -1376c-64 -160 -143.833 -297.667 -239.5 -413s-224.834 -173 -387.501 -173c-90 0 -167.667 25.667 -233 77s-98 116 -98 194
c0 54.667 16.333 100.334 49 137.001s75 55 127 55c116.667 0 180.667 -62.667 192 -188c7.33301 -84.667 40.333 -127 99 -127c58 0 123 38.833 195 116.5s138 195.834 198 354.501l102 266l-713 1688c-36.667 98 -110.334 147 -221.001 147h-82v90h844v-90h-139
c-71.333 0 -107 -26 -107 -78c0 -21.333 5.66699 -44.333 17 -69l553 -1315l172 475c160.667 445.333 241 732 241 860c0 84.667 -42.333 127 -127 127h-110v90h704z" />
    <glyph glyph-name="afii10086" unicode="&#xf4;" horiz-adv-x="2998" 
d="M1343 1827l-0.00390625 790.001c0 35.333 -19.167 58.5 -57.5 69.5s-105.166 16.5 -200.499 16.5h-49v90c164.667 9.33301 371 61.333 619 156v-1122c97.333 73.333 220 110 368 110c122 0 234 -22 336 -66s189.667 -107.5 263 -190.5s129.833 -183.833 169.5 -302.5
s59.5 -250.334 59.5 -395.001c0 -228 -40.833 -419.5 -122.5 -574.5s-185.5 -269.333 -311.5 -343s-255.667 -110.5 -389 -110.5c-146 0 -270.333 37 -373 111v-754c0 -38.667 11.333 -64.667 34 -78s60.334 -20 113.001 -20h160v-91h-926v91h160
c52.667 0 90.334 6.66699 113.001 20s34 39.333 34 78v754c-144 -74 -294 -111 -450 -111c-152 0 -284.667 41.333 -398 124s-199.666 195.667 -258.999 339s-89 304.333 -89 483c0 178 29.833 346.167 89.5 504.5s152 286.5 277 384.5s278.833 147 461.5 147
c148 0 270.667 -36.667 368 -110zM1343 193.001l0.000976562 1363c-18.667 74.667 -56.334 141.834 -113.001 201.501s-137.667 89.5 -243 89.5c-166 0 -288 -89.167 -366 -267.5s-117 -392.166 -117 -641.499c0 -288.667 47 -505.5 141 -650.5s224.333 -217.5 391 -217.5
c114 0 216.333 41 307 123zM1655 1556v-1363c98.667 -98.667 213.334 -148 344.001 -148c198 0 330 100 396 300s99 411.333 99 634c0 250.667 -31 440.334 -93 569.001s-128.833 210.667 -200.5 246s-134.834 53 -189.501 53c-104.667 0 -185.5 -30 -242.5 -90
s-94.833 -127 -113.5 -201z" />
    <glyph glyph-name="afii10086" unicode="&#x444;" horiz-adv-x="2998" 
d="M1343 1827l-0.00390625 790.001c0 35.333 -19.167 58.5 -57.5 69.5s-105.166 16.5 -200.499 16.5h-49v90c164.667 9.33301 371 61.333 619 156v-1122c97.333 73.333 220 110 368 110c122 0 234 -22 336 -66s189.667 -107.5 263 -190.5s129.833 -183.833 169.5 -302.5
s59.5 -250.334 59.5 -395.001c0 -228 -40.833 -419.5 -122.5 -574.5s-185.5 -269.333 -311.5 -343s-255.667 -110.5 -389 -110.5c-146 0 -270.333 37 -373 111v-754c0 -38.667 11.333 -64.667 34 -78s60.334 -20 113.001 -20h160v-91h-926v91h160
c52.667 0 90.334 6.66699 113.001 20s34 39.333 34 78v754c-144 -74 -294 -111 -450 -111c-152 0 -284.667 41.333 -398 124s-199.666 195.667 -258.999 339s-89 304.333 -89 483c0 178 29.833 346.167 89.5 504.5s152 286.5 277 384.5s278.833 147 461.5 147
c148 0 270.667 -36.667 368 -110zM1343 193.001l0.000976562 1363c-18.667 74.667 -56.334 141.834 -113.001 201.501s-137.667 89.5 -243 89.5c-166 0 -288 -89.167 -366 -267.5s-117 -392.166 -117 -641.499c0 -288.667 47 -505.5 141 -650.5s224.333 -217.5 391 -217.5
c114 0 216.333 41 307 123zM1655 1556v-1363c98.667 -98.667 213.334 -148 344.001 -148c198 0 330 100 396 300s99 411.333 99 634c0 250.667 -31 440.334 -93 569.001s-128.833 210.667 -200.5 246s-134.834 53 -189.501 53c-104.667 0 -185.5 -30 -242.5 -90
s-94.833 -127 -113.5 -201z" />
    <glyph glyph-name="afii10087" unicode="&#xf5;" horiz-adv-x="2114" 
d="M934 913l-474.999 689c-38 53.333 -84.333 99.5 -139 138.5s-131.334 59.5 -230.001 61.5v90h877v-90h-140c-60 0 -90 -15 -90 -45c0 -22 9.66699 -49.333 29 -82l356 -532l242 336c76.667 102.667 115 186 115 250c0 48.667 -27.333 73 -82 73h-152v90h737v-90h-73
c-69.333 0 -134 -26.833 -194 -80.5s-136 -140.167 -228 -259.5l-307 -397l557 -811c74.667 -109.333 181 -164 319 -164v-90h-934v90h172c74 0 111 23.333 111 70c0 24 -9.66699 55.333 -29 94l-381 577l-270 -360c-90 -120 -135 -212.667 -135 -278
c0 -44.667 16.167 -73 48.5 -85s77.5 -18 135.5 -18h90v-90h-774v90h49c102 0 272.667 154.333 512 463z" />
    <glyph glyph-name="afii10087" unicode="&#x445;" horiz-adv-x="2114" 
d="M934 913l-474.999 689c-38 53.333 -84.333 99.5 -139 138.5s-131.334 59.5 -230.001 61.5v90h877v-90h-140c-60 0 -90 -15 -90 -45c0 -22 9.66699 -49.333 29 -82l356 -532l242 336c76.667 102.667 115 186 115 250c0 48.667 -27.333 73 -82 73h-152v90h737v-90h-73
c-69.333 0 -134 -26.833 -194 -80.5s-136 -140.167 -228 -259.5l-307 -397l557 -811c74.667 -109.333 181 -164 319 -164v-90h-934v90h172c74 0 111 23.333 111 70c0 24 -9.66699 55.333 -29 94l-381 577l-270 -360c-90 -120 -135 -212.667 -135 -278
c0 -44.667 16.167 -73 48.5 -85s77.5 -18 135.5 -18h90v-90h-774v90h49c102 0 272.667 154.333 512 463z" />
    <glyph glyph-name="afii10088" unicode="&#xf6;" horiz-adv-x="2339" 
d="M2208 90v-589.998h-103v127c0 67.333 -38.167 129.666 -114.5 186.999s-172.833 102.666 -289.5 135.999s-227.667 50 -333 50h-1237v90h160c52.667 0 90.334 6.66699 113.001 20s34 39.333 34 78v1516c0 39.333 -11.333 65.5 -34 78.5s-60.334 19.5 -113.001 19.5h-160
v90h889v-90h-123c-52.667 0 -90.334 -6.5 -113.001 -19.5s-34 -39.167 -34 -78.5v-1516c0 -38.667 11.333 -64.667 34 -78s60.334 -20 113.001 -20h545c52.667 0 90.334 6.66699 113.001 20s34 39.333 34 78v1516c0 39.333 -11.333 65.5 -34 78.5
s-60.334 19.5 -113.001 19.5h-123v90h889v-90h-160c-52.667 0 -90.334 -6.5 -113.001 -19.5s-34 -39.167 -34 -78.5v-1516c0 -38.667 11.333 -64.667 34 -78s60.334 -20 113.001 -20h160z" />
    <glyph glyph-name="afii10088" unicode="&#x446;" horiz-adv-x="2339" 
d="M2208 90v-589.998h-103v127c0 67.333 -38.167 129.666 -114.5 186.999s-172.833 102.666 -289.5 135.999s-227.667 50 -333 50h-1237v90h160c52.667 0 90.334 6.66699 113.001 20s34 39.333 34 78v1516c0 39.333 -11.333 65.5 -34 78.5s-60.334 19.5 -113.001 19.5h-160
v90h889v-90h-123c-52.667 0 -90.334 -6.5 -113.001 -19.5s-34 -39.167 -34 -78.5v-1516c0 -38.667 11.333 -64.667 34 -78s60.334 -20 113.001 -20h545c52.667 0 90.334 6.66699 113.001 20s34 39.333 34 78v1516c0 39.333 -11.333 65.5 -34 78.5
s-60.334 19.5 -113.001 19.5h-123v90h889v-90h-160c-52.667 0 -90.334 -6.5 -113.001 -19.5s-34 -39.167 -34 -78.5v-1516c0 -38.667 11.333 -64.667 34 -78s60.334 -20 113.001 -20h160z" />
    <glyph glyph-name="afii10089" unicode="&#xf7;" horiz-adv-x="2142" 
d="M1393 188l0.00292969 676c-168.667 -65.333 -351.667 -98 -549 -98c-352.667 0 -529 146 -529 438v500c0 39.333 -11.333 65.5 -34 78.5s-60.334 19.5 -113.001 19.5h-123v90h815v-90h-86c-52.667 0 -90.334 -6.5 -113.001 -19.5s-34 -39.167 -34 -78.5v-578
c0 -158 116 -237 348 -237c139.333 0 278.666 27.333 417.999 82v733c0 39.333 -11.5 65.5 -34.5 78.5s-60.833 19.5 -113.5 19.5h-86v90h852v-90h-160c-52.667 0 -90.334 -6.5 -113.001 -19.5s-34 -39.167 -34 -78.5v-1516c0 -38.667 11.333 -64.667 34 -78
s60.334 -20 113.001 -20h160v-90h-967v90h201c52.667 0 90.5 6.66699 113.5 20s34.5 39.333 34.5 78z" />
    <glyph glyph-name="afii10089" unicode="&#x447;" horiz-adv-x="2142" 
d="M1393 188l0.00292969 676c-168.667 -65.333 -351.667 -98 -549 -98c-352.667 0 -529 146 -529 438v500c0 39.333 -11.333 65.5 -34 78.5s-60.334 19.5 -113.001 19.5h-123v90h815v-90h-86c-52.667 0 -90.334 -6.5 -113.001 -19.5s-34 -39.167 -34 -78.5v-578
c0 -158 116 -237 348 -237c139.333 0 278.666 27.333 417.999 82v733c0 39.333 -11.5 65.5 -34.5 78.5s-60.833 19.5 -113.5 19.5h-86v90h852v-90h-160c-52.667 0 -90.334 -6.5 -113.001 -19.5s-34 -39.167 -34 -78.5v-1516c0 -38.667 11.333 -64.667 34 -78
s60.334 -20 113.001 -20h160v-90h-967v90h201c52.667 0 90.5 6.66699 113.5 20s34.5 39.333 34.5 78z" />
    <glyph glyph-name="afii10090" unicode="&#xf8;" horiz-adv-x="3301" 
d="M131 1892h881v-90h-115c-52.667 0 -90.334 -6.5 -113.001 -19.5s-34 -39.167 -34 -78.5v-1516c0 -38.667 11.333 -64.667 34 -78s60.334 -20 113.001 -20h451c52.667 0 90.334 6.66699 113.001 20s34 39.333 34 78v1516c0 39.333 -11.333 65.5 -34 78.5
s-60.334 19.5 -113.001 19.5h-115v90h835v-90h-114c-52.667 0 -90.5 -6.5 -113.5 -19.5s-34.5 -39.167 -34.5 -78.5v-1516c0 -38.667 11.5 -64.667 34.5 -78s60.833 -20 113.5 -20h450c53.333 0 91.333 6.66699 114 20s34 39.333 34 78v1516c0 39.333 -11.333 65.5 -34 78.5
s-60.667 19.5 -114 19.5h-114v90h880v-90h-159c-52.667 0 -90.5 -6.5 -113.5 -19.5s-34.5 -39.167 -34.5 -78.5v-1516c0 -38.667 11.5 -64.667 34.5 -78s60.833 -20 113.5 -20h159v-90h-3039v90h160c52.667 0 90.334 6.66699 113.001 20s34 39.333 34 78v1516
c0 39.333 -11.333 65.5 -34 78.5s-60.334 19.5 -113.001 19.5h-160v90z" />
    </font>
</defs>
</svg>
